<svg width="1280" height="136" viewBox="0 0 1280 136" fill="none" xmlns="http://www.w3.org/2000/svg">
<path d="M1280 136H0V0.000244141H836.44C838.093 0.257412 840.058 0.404579 842.28 0.437744C870.81 0.862076 887.165 19.6249 901.595 36.1791C907.343 42.7734 912.77 48.9994 918.556 53.6171C921.652 56.0877 924.603 57.9036 927.578 59.1682C930.886 60.5752 934.166 61.2814 937.605 61.3272C937.717 61.3291 937.827 61.3291 937.939 61.3291C951.273 61.3282 958.734 50.6162 967.373 38.2127L967.381 38.2014C969.044 35.8132 970.764 33.3437 972.574 30.8829C975.894 26.3694 978.841 22.8171 981.847 19.7039C985.63 15.7882 989.482 12.5982 993.626 9.95191C1003.65 3.54958 1015.29 0.437412 1029.22 0.437412L1029.45 0.437744L1029.69 0.438076C1032.68 0.438076 1035.34 0.290745 1037.59 0.000244141H1280V136ZM938.777 78.7322C937.451 78.7322 936.158 79.3619 934.931 80.6039C933.851 81.6971 932.855 83.2247 931.97 85.1447C930.429 88.4872 929.393 92.7643 929.393 95.7872C929.393 98.5724 930.308 101.137 931.97 103.009C932.807 103.951 933.803 104.688 934.931 105.197C936.11 105.73 937.404 106 938.777 106C941.469 106 943.758 104.965 945.396 103.009C946.937 101.168 947.786 98.6037 947.786 95.7872C947.786 93.2251 947.047 88.9406 945.396 85.1446C944.56 83.2211 943.607 81.6934 942.564 80.6039C941.375 79.3619 940.101 78.7322 938.777 78.7322Z" fill="#004600"/>
</svg>
