<svg width="514" height="466" viewBox="0 0 514 466" fill="none" xmlns="http://www.w3.org/2000/svg">
<path d="M24.1504 153.659C20.7812 166.424 23.1497 180.025 30.6358 190.9C33.1579 194.582 35.2764 197.951 36.2385 200.185C38.9695 206.504 41.5276 204.847 43.0517 207.174C46.7952 212.903 45.2603 223.845 47.3501 228.616C50.1893 235.101 54.1561 234.456 54.1561 234.456L99.1431 229.599C99.1431 229.599 101.305 222.267 98.354 209.423C97.2731 204.739 97.374 192.766 100.062 185.574C103.813 175.547 100.062 162.677 97.7018 150.56C96.621 144.879 93.8286 134.311 92.2613 130.575C90.6112 126.64 89.941 111.284 84.1979 111.569C74.0519 112.073 79.7806 150.121 73.8754 146.013C66.309 140.771 58.6346 134.315 49.8506 126.399C30.2647 108.766 29.2775 134.311 24.1504 153.659Z" fill="#FFAD97"/>
<path d="M68.3483 203.904C68.1871 203.924 68.0264 203.865 67.9159 203.746C66.2046 201.658 64.9745 199.218 64.3129 196.601C63.6279 194.008 63.4941 191.301 63.9202 188.653C64.4534 185.317 65.8514 181.966 68.078 178.694C68.2361 178.473 68.5416 178.419 68.7665 178.571C68.9913 178.724 69.0536 179.028 68.9068 179.256C66.7629 182.409 65.419 185.623 64.9111 188.811C64.503 191.32 64.6258 193.887 65.2713 196.345C65.8985 198.805 67.0501 201.1 68.6473 203.072C68.7419 203.17 68.7921 203.303 68.7859 203.439C68.7798 203.576 68.718 203.703 68.6149 203.793C68.5394 203.856 68.4464 203.895 68.3483 203.904Z" fill="#F47C53"/>
<path d="M87.6784 124.676C87.0248 124.673 86.3835 124.497 85.8192 124.168C85.5382 124.009 84.1655 122.849 84.6807 115.654C84.6811 115.509 84.7624 115.376 84.8915 115.309C85.0205 115.243 85.1758 115.254 85.2944 115.337C85.413 115.421 85.475 115.564 85.4553 115.708C85.25 118.644 85.3436 123 86.2047 123.49C86.9132 123.926 87.7802 124.018 88.5647 123.743C88.7637 123.655 88.996 123.745 89.0836 123.944C89.1711 124.143 89.0807 124.376 88.8817 124.463C88.4985 124.613 88.0895 124.685 87.6784 124.676Z" fill="#F47C53"/>
<path d="M47.9806 206.492H47.8906C43.4517 206.219 40.7639 204.63 39.2866 203.343C38.3523 202.572 37.6004 201.604 37.0852 200.508C36.9995 200.338 37.0178 200.134 37.1324 199.981C37.247 199.829 37.4379 199.755 37.6252 199.79C37.8124 199.826 37.9634 199.964 38.0148 200.147C38.4873 201.11 39.162 201.959 39.9928 202.637C41.3475 203.805 43.83 205.246 47.9518 205.52C48.2125 205.533 48.4194 205.744 48.4269 206.005C48.4345 206.266 48.2402 206.489 47.9806 206.518V206.492Z" fill="#F47C53"/>
<path d="M20.832 186.96L34.3433 189.601C37.8793 191.061 41.9292 189.378 43.3904 185.843C44.8523 182.307 43.1694 178.256 39.6324 176.796L30.4701 173.016C24.2008 170.53 18.9621 169.943 16.613 175.639C13.2982 183.678 17.4164 185.551 20.832 186.96Z" fill="#FFAD97"/>
<path d="M38.1985 186.716C36.9951 186.716 34.2604 186.633 32.6895 185.949C32.1923 185.732 31.4213 185.051 31.814 182.915C32.2212 180.717 33.8353 177.482 35.4422 177.406C37.5211 177.309 40.9152 178.487 41.2899 180.54C41.5745 182.083 40.8611 184.933 39.9027 186.078C39.644 186.446 39.2339 186.677 38.7858 186.709C38.7317 186.709 38.5192 186.716 38.1985 186.716ZM35.6764 178.429H35.489C34.7396 178.465 33.2408 180.879 32.8336 183.088C32.6499 184.086 32.7544 184.832 33.1002 184.979C34.9018 185.768 38.7173 185.657 38.7534 185.653C38.7966 185.653 38.9155 185.599 39.0812 185.401C39.8415 184.489 40.472 181.949 40.245 180.717C40.0252 179.427 37.3626 178.44 35.68 178.44L35.6764 178.429Z" fill="#F47C53"/>
<path d="M36.3393 190.539C32.5778 190.539 20.0971 186.857 19.5602 186.698C19.3787 186.649 19.2382 186.505 19.193 186.322C19.1478 186.14 19.2051 185.947 19.3427 185.819C19.4802 185.69 19.6765 185.646 19.8556 185.704C19.9889 185.744 33.1651 189.628 36.4942 189.498C39.6685 189.376 41.1781 187.783 41.1781 187.769C41.3712 187.556 41.7002 187.539 41.9131 187.733C42.126 187.926 42.1422 188.255 41.9492 188.468C41.8771 188.547 40.1657 190.395 36.5447 190.536L36.3393 190.539Z" fill="#F47C53"/>
<path d="M40.8286 171.712C35.9078 170.723 32.7162 165.938 33.6947 161.015L51.5835 71.6858C52.5684 66.7574 57.3642 63.5623 62.2916 64.5519C67.2205 65.5384 70.4152 70.3353 69.4256 75.2635L51.5367 164.582C50.5484 169.507 45.7545 172.7 40.8286 171.712Z" fill="#002B34"/>
<path d="M109.952 109.229L5.105 90.1331C3.39513 89.821 1.89379 88.8079 0.964348 87.3392C0.03492 85.8704 -0.2378 84.0799 0.212136 82.4011L18.7387 13.3785C19.6248 10.1208 22.9469 8.16399 26.2257 8.96846L122.606 32.4672C125.75 33.2272 127.787 36.2712 127.29 39.4679L117.219 104.066C116.962 105.725 116.044 107.209 114.676 108.182C113.307 109.154 111.603 109.532 109.952 109.229Z" fill="#94C358"/>
<path d="M75.1399 31.0007L68.6834 29.7037C67.7574 29.5218 66.7975 29.6378 65.9415 30.0352L49.9334 37.4898C47.7114 38.5173 46.7435 41.1518 47.7716 43.3735L49.0615 46.1154C49.5639 47.1993 50.4814 48.0355 51.6072 48.4354C52.733 48.8353 53.9724 48.7653 55.046 48.2411L60.7063 45.4307C61.1594 45.206 61.7006 45.257 62.1036 45.5624C62.5068 45.8678 62.7024 46.375 62.6088 46.8719L59.0814 64.4761L55.691 81.4102C55.2139 83.8115 56.7711 86.1458 59.1715 86.6274L63.8337 87.5605C66.2354 88.0397 68.571 86.4817 69.0509 84.0801L78.606 36.218C79.0859 33.8208 77.5356 31.4874 75.1399 31.0007Z" fill="#FFBB01"/>
<path d="M12.9343 167.671L28.2614 173.415C32.1227 175.82 37.2025 174.639 39.6072 170.777C42.0127 166.917 40.8336 161.837 36.9735 159.431L26.9644 153.198C20.1186 149.055 14.0692 147.343 10.2032 153.559C4.74471 162.361 9.19799 165.344 12.9343 167.671Z" fill="#FFAD97"/>
<path d="M34.2316 170.734C34.1657 170.739 34.0994 170.739 34.0334 170.734C33.7524 170.694 29.2234 170.063 27.0725 168.662C26.1861 168.085 26.0492 166.803 26.6833 165.059C27.5769 162.594 30.0521 159.161 31.9149 159.373C34.3361 159.661 38.04 161.694 38.0688 164.1C38.1012 165.942 36.7249 169.105 35.3918 170.251C35.0755 170.546 34.6637 170.717 34.2316 170.734ZM31.7311 160.375C30.7656 160.375 28.5893 162.829 27.6597 165.387C27.2274 166.586 27.2202 167.502 27.6381 167.779C29.6198 169.065 34.1235 169.685 34.1812 169.689H34.1992C34.3965 169.67 34.5799 169.578 34.7144 169.433C35.8205 168.478 37.0563 165.632 37.0275 164.086C37.0023 162.407 33.7848 160.613 31.7924 160.375H31.7311Z" fill="#F47C53"/>
<path d="M32.4877 174.841C28.9892 174.841 23.5235 171.804 23.2641 171.656C23.097 171.568 22.9909 171.397 22.9869 171.208C22.983 171.019 23.0818 170.843 23.2451 170.748C23.4083 170.654 23.6101 170.655 23.7721 170.752C25.6817 171.833 31.1438 174.431 33.4533 173.674C33.726 173.584 34.0196 173.733 34.1091 174.005C34.1986 174.278 34.0502 174.572 33.7776 174.661C33.3599 174.789 32.9245 174.85 32.4877 174.841Z" fill="#F47C53"/>
<path d="M17.7731 148.993L32.1274 156.877C35.6039 159.809 40.7993 159.369 43.7326 155.893C46.6685 152.417 46.2297 147.219 42.7527 144.284L33.7452 136.682C27.5444 131.598 21.8228 129.036 17.1029 134.639C10.4266 142.544 14.4115 146.154 17.7731 148.993Z" fill="#FFAD97"/>
<path d="M38.5732 155.027C38.4509 155.026 38.3294 155.006 38.2129 154.969C37.9391 154.89 33.529 153.618 31.6194 151.925C30.8268 151.226 30.8736 149.936 31.7527 148.289C32.9921 145.98 35.9394 142.932 37.7445 143.411C40.1008 144.045 43.4661 146.585 43.149 148.97C42.9148 150.801 41.0989 153.733 39.618 154.674C39.3106 154.889 38.9481 155.011 38.5732 155.027ZM37.305 144.398C36.2889 144.398 33.8965 146.455 32.6535 148.783C32.0518 149.907 31.9113 150.811 32.2932 151.143C34.0659 152.699 38.4471 153.96 38.4903 153.971C38.6886 153.979 38.883 153.915 39.038 153.791C40.2702 153.006 41.8988 150.365 42.0969 148.833C42.3095 147.165 39.3875 144.931 37.4419 144.409C37.3967 144.401 37.3508 144.397 37.305 144.398Z" fill="#F47C53"/>
<path d="M37.3698 158.997C31.605 158.997 21.5167 151.322 21.0447 150.973C20.8427 150.791 20.8139 150.484 20.9785 150.268C21.1431 150.052 21.446 149.998 21.6751 150.144C21.7941 150.234 33.5038 159.151 38.4038 157.833C38.6814 157.758 38.967 157.922 39.0416 158.2C39.1162 158.478 38.9517 158.763 38.6741 158.838C38.2481 158.947 37.8096 159.001 37.3698 158.997Z" fill="#F47C53"/>
<path d="M27.2129 133.355L39.3659 139.163C42.3585 141.412 46.6078 140.809 48.8562 137.816C51.1048 134.824 50.5014 130.576 47.5086 128.329L39.755 122.5C34.4262 118.612 29.6054 116.774 26.0024 121.584C20.8789 128.397 24.3198 131.179 27.2129 133.355Z" fill="#FFAD97"/>
<path d="M44.5289 137.35C44.4452 137.349 44.3619 137.339 44.2803 137.321C44.0497 137.267 40.3819 136.424 38.7209 135.123C38.0363 134.586 38.0003 133.523 38.6633 132.132C39.5712 130.176 41.8483 127.531 43.3472 127.845C45.3143 128.256 48.1932 130.187 48.0527 132.169C47.9446 133.682 46.5899 136.175 45.4153 137.018C45.1617 137.219 44.8517 137.334 44.5289 137.35ZM43.0877 128.674C42.2735 128.674 40.3639 130.497 39.4379 132.493C38.9947 133.444 38.9227 134.193 39.2505 134.449C40.7782 135.645 44.4353 136.478 44.4749 136.488C44.6393 136.49 44.798 136.428 44.918 136.315C45.8944 135.617 47.1087 133.372 47.1987 132.104C47.2961 130.724 44.7955 129.023 43.1706 128.684C43.1435 128.678 43.1157 128.674 43.0877 128.674Z" fill="#F47C53"/>
<path d="M43.4697 140.656C38.6705 140.656 30.3981 135.075 30.0125 134.812C29.8135 134.68 29.7595 134.411 29.8918 134.213C30.0241 134.014 30.2927 133.959 30.4917 134.092C30.5926 134.16 40.6305 140.937 44.5902 139.63C44.8151 139.555 45.0578 139.677 45.1324 139.902C45.2071 140.126 45.0853 140.369 44.8604 140.444C44.411 140.588 43.9416 140.66 43.4697 140.656Z" fill="#F47C53"/>
<path d="M43.1274 237.265C43.1274 237.265 43.0336 216.991 45.6674 214.718C48.3013 212.444 64.2624 216.285 79.9211 209.49C95.5796 202.694 100.31 199.488 101.492 204.085C102.674 208.683 102.386 227.559 102.386 227.559L43.1274 237.265Z" fill="#94C358"/>
<path d="M156.935 441.759C147.834 441.49 138.918 440.89 130.186 439.958C93.0396 436.056 60.3352 452.644 34.0262 439.288C27.3067 371.642 39.5568 223.879 41.8952 223.623C42.3059 223.573 42.7491 223.544 43.2246 223.533C43.9453 223.508 44.7379 223.533 45.5882 223.558C47.1483 223.616 48.9138 223.739 50.8594 223.854C54.8958 224.147 58.9473 224.172 62.987 223.93H63.0123C64.379 223.836 65.7674 223.686 67.1773 223.479H67.2062C71.1066 222.938 74.9211 221.896 78.5556 220.38C87.5379 216.554 95.0068 214.677 99.842 214.616C100.422 214.603 101.001 214.622 101.579 214.673C101.871 214.706 102.148 214.742 102.407 214.789C104.108 215.077 105.214 215.744 105.614 216.76C105.87 217.43 129.296 306.298 144.429 373.929C151.141 403.86 156.225 429.649 156.935 441.759Z" fill="#015700"/>
<path d="M151.796 142.754C146.196 154.709 146.093 168.512 151.511 180.55C153.342 184.625 154.819 188.318 155.367 190.688C156.912 197.394 159.723 196.219 160.804 198.784C163.466 205.09 160 215.581 161.203 220.647C162.839 227.543 166.86 227.608 166.86 227.608L220.253 223.476C220.253 223.476 218.931 218.071 218.336 204.938C218.12 200.132 216.83 194.317 220.757 187.72C226.237 178.525 224.832 165.187 224.688 152.846C224.62 147.06 223.777 136.168 222.887 132.212C221.968 128.043 224.05 112.817 218.347 112.071C208.258 110.753 207.12 149.207 202.04 144.116C195.554 137.613 189.134 129.888 181.903 120.527C165.819 99.6769 160.281 124.631 151.796 142.754Z" fill="#FFAD97"/>
<path d="M185.009 200.092C184.848 200.08 184.702 199.992 184.617 199.854C183.301 197.495 182.525 194.874 182.343 192.18C182.134 189.507 182.488 186.82 183.381 184.293C184.498 181.104 186.472 178.059 189.25 175.235C189.449 175.036 189.771 175.036 189.971 175.235C190.17 175.434 190.17 175.756 189.971 175.955C187.297 178.672 185.402 181.594 184.335 184.642C183.487 187.039 183.152 189.587 183.352 192.122C183.531 194.649 184.255 197.107 185.474 199.328C185.545 199.441 185.568 199.577 185.539 199.707C185.509 199.837 185.428 199.949 185.316 200.02C185.223 200.074 185.116 200.099 185.009 200.092Z" fill="#F47C53"/>
<path d="M232.803 440.84C200.801 441.309 115.223 445.852 106.507 444.937C109.959 424.602 116.199 350.34 121.903 327.537C138.26 262.146 159.583 197.707 161.175 197.808C162.402 197.912 163.618 198.111 164.814 198.402C172.291 200.071 184.447 204.326 197.854 200.892C208.663 198.132 217.108 197.649 221.605 198.939C223.702 199.548 224.948 200.542 225.179 201.876C225.334 202.701 231.628 365.513 232.803 440.84Z" fill="#FF4929"/>
<path d="M216.347 125.554C215.477 125.546 214.639 125.228 213.983 124.656C213.735 124.447 212.593 123.064 214.383 116.074C214.446 115.878 214.65 115.764 214.85 115.815C215.049 115.865 215.175 116.063 215.136 116.265C214.416 119.119 213.724 123.421 214.484 124.058C215.104 124.613 215.94 124.858 216.761 124.725C216.97 124.677 217.178 124.806 217.23 125.013C217.255 125.113 217.239 125.218 217.186 125.306C217.134 125.394 217.048 125.457 216.949 125.482C216.752 125.529 216.55 125.553 216.347 125.554Z" fill="#F47C53"/>
<path d="M166.804 199.151C166.774 199.154 166.744 199.154 166.714 199.151C162.391 198.092 160.034 196.045 158.813 194.518C158.03 193.593 157.463 192.507 157.152 191.336C157.096 191.065 157.271 190.799 157.543 190.744C157.814 190.688 158.08 190.863 158.135 191.134C158.424 192.168 158.936 193.126 159.634 193.941C160.762 195.328 162.945 197.184 166.956 198.178C167.211 198.237 167.377 198.483 167.338 198.742C167.298 199.001 167.065 199.185 166.804 199.165V199.151Z" fill="#F47C53"/>
<path d="M144.825 175.173L157.648 180.185C160.868 182.25 165.152 181.316 167.221 178.099C169.288 174.881 168.356 170.597 165.139 168.529L156.798 163.168C151.072 159.605 146.021 158.091 142.695 163.276C137.997 170.594 141.712 173.17 144.825 175.173Z" fill="#FFAD97"/>
<path d="M161.792 178.086C161.727 178.091 161.662 178.091 161.597 178.086C161.349 178.046 157.541 177.459 155.735 176.248C155.289 175.949 154.654 175.139 155.418 173.107C156.207 171.017 158.373 168.135 159.973 168.333C162.037 168.61 165.161 170.397 165.164 172.462C165.164 174.033 163.957 176.706 162.812 177.668C162.531 177.923 162.17 178.071 161.792 178.086ZM159.785 169.345C159.007 169.345 157.169 171.406 156.391 173.46C156.031 174.411 156.002 175.16 156.315 175.369C157.944 176.45 161.72 177.037 161.76 177.045C161.806 177.045 161.929 177.023 162.12 176.854C163.028 176.093 164.102 173.708 164.102 172.451C164.102 171.078 161.464 169.568 159.81 169.349L159.785 169.345Z" fill="#F47C53"/>
<path d="M160.93 181.608C160.448 181.606 159.966 181.571 159.489 181.504C156.012 181.01 143.996 174.954 143.474 174.698C143.217 174.569 143.114 174.256 143.243 173.999C143.372 173.742 143.685 173.639 143.942 173.768C144.064 173.83 156.329 180.005 159.633 180.473C162.807 180.924 164.54 179.623 164.558 179.612C164.785 179.437 165.111 179.479 165.286 179.706C165.461 179.933 165.419 180.259 165.192 180.434C165.106 180.477 163.618 181.608 160.93 181.608Z" fill="#F47C53"/>
<path d="M161.835 220.073C162.003 218.756 163.04 217.719 164.357 217.551C165.953 217.461 167.091 218.607 167.012 219.828C166.875 221.329 165.604 222.471 164.097 222.447C162.858 222.361 161.777 221.294 161.835 220.073Z" fill="#B75E4B"/>
<path d="M165.424 163.49C160.751 161.642 158.463 156.354 160.315 151.683L193.862 67.0126C195.712 62.3398 201 60.052 205.673 61.9036C210.344 63.755 212.631 69.042 210.782 73.7143L177.231 158.385C175.381 163.056 170.094 165.342 165.424 163.49Z" fill="#002B34"/>
<path d="M231.632 118.471L137.724 83.1613C136.189 82.5885 134.965 81.3988 134.349 79.8813C133.733 78.3638 133.78 76.6575 134.481 75.177L163.244 14.3585C164.603 11.4822 168.011 10.2182 170.918 11.5122L256.255 49.4733C259.036 50.7094 260.406 53.8695 259.408 56.7442L239.227 114.896C238.712 116.391 237.615 117.614 236.184 118.287C234.754 118.961 233.112 119.027 231.632 118.471Z" fill="#94C358"/>
<path d="M140.859 154.818L154.911 163.206C158.28 166.263 163.49 166.008 166.545 162.636C169.602 159.267 169.347 154.057 165.975 151.002L157.242 143.076C151.229 137.772 145.601 135.009 140.668 140.438C133.747 148.109 137.598 151.86 140.859 154.818Z" fill="#FFAD97"/>
<path d="M160.434 161.586C160.291 161.585 160.148 161.561 160.013 161.514C159.742 161.427 155.397 159.994 153.527 158.235C152.756 157.515 152.85 156.221 153.787 154.611C155.105 152.341 158.161 149.397 159.951 149.948C162.282 150.669 165.554 153.321 165.161 155.713C164.862 157.515 162.945 160.397 161.432 161.283C161.132 161.471 160.788 161.575 160.434 161.586ZM159.472 150.918C158.442 150.918 156.01 152.874 154.695 155.133C154.053 156.236 153.88 157.133 154.248 157.479C155.963 159.096 160.297 160.512 160.34 160.527C160.538 160.544 160.734 160.487 160.892 160.368C162.153 159.626 163.875 157.046 164.134 155.522C164.405 153.865 161.569 151.526 159.641 150.932C159.586 150.921 159.529 150.916 159.472 150.918Z" fill="#F47C53"/>
<path d="M158.955 165.403C155.525 165.403 149.85 160.748 149.587 160.539C149.366 160.356 149.335 160.029 149.519 159.808C149.702 159.587 150.029 159.556 150.25 159.739C151.936 161.13 156.843 164.672 159.258 164.344C159.446 164.309 159.638 164.38 159.758 164.529C159.878 164.678 159.905 164.882 159.83 165.058C159.755 165.234 159.589 165.354 159.398 165.371C159.251 165.392 159.103 165.403 158.955 165.403Z" fill="#F47C53"/>
<path d="M148.241 137.273L160.949 147.592C163.847 151.099 169.038 151.595 172.547 148.698C176.052 145.8 176.547 140.609 173.653 137.1L166.144 128.01C160.949 121.885 155.778 118.361 150.133 123.027C142.177 129.617 145.452 133.883 148.241 137.273Z" fill="#FFAD97"/>
<path d="M166.937 146.881C166.723 146.883 166.511 146.832 166.321 146.733C166.065 146.607 161.972 144.571 160.376 142.561C159.72 141.732 160.016 140.471 161.158 139.008C162.786 136.955 166.231 134.479 167.924 135.279C170.129 136.32 172.968 139.419 172.248 141.714C171.693 143.472 169.365 146.038 167.759 146.697C167.499 146.811 167.22 146.873 166.937 146.881ZM167.16 136.158C166.054 136.158 163.525 137.697 161.972 139.653C161.179 140.655 160.891 141.519 161.19 141.912C162.657 143.761 166.746 145.786 166.786 145.803C166.98 145.849 167.183 145.822 167.358 145.728C168.71 145.173 170.785 142.867 171.25 141.404C171.758 139.805 169.286 137.081 167.463 136.223C167.368 136.18 167.265 136.158 167.16 136.158Z" fill="#F47C53"/>
<path d="M166.498 150.697C160.884 150.697 151.315 140.248 150.904 139.798C150.705 139.586 150.715 139.253 150.927 139.054C151.139 138.855 151.472 138.865 151.671 139.077C151.772 139.189 161.698 150.059 166.761 149.63C167.047 149.607 167.298 149.821 167.321 150.108C167.344 150.394 167.13 150.645 166.844 150.668C166.733 150.687 166.618 150.697 166.498 150.697Z" fill="#F47C53"/>
<path d="M159.418 123.53L170.339 131.417C172.885 134.161 177.174 134.323 179.919 131.777C182.661 129.231 182.822 124.946 180.28 122.201L173.69 115.081C169.139 110.304 164.725 107.634 160.304 111.73C154.089 117.531 156.972 120.875 159.418 123.53Z" fill="#FFAD97"/>
<path d="M175.157 130.514C175.005 130.514 174.855 130.482 174.717 130.42C174.501 130.33 171.042 128.846 169.64 127.268C169.06 126.616 169.23 125.567 170.116 124.313C171.359 122.551 174.079 120.35 175.499 120.934C177.362 121.69 179.851 124.104 179.361 126.021C179.001 127.491 177.2 129.703 175.903 130.323C175.671 130.44 175.416 130.505 175.157 130.514ZM174.969 121.694C174.083 121.694 172.022 123.092 170.815 124.807C170.21 125.664 170.004 126.389 170.278 126.698C171.568 128.14 175.02 129.62 175.056 129.635C175.218 129.664 175.384 129.632 175.524 129.545C176.605 129.026 178.205 127.023 178.522 125.805C178.864 124.465 176.72 122.343 175.167 121.719C175.103 121.7 175.036 121.691 174.969 121.694Z" fill="#F47C53"/>
<path d="M174.817 133.697C170.165 133.697 162.076 125.806 161.72 125.456C161.6 125.351 161.549 125.189 161.586 125.034C161.623 124.879 161.743 124.758 161.897 124.719C162.052 124.68 162.215 124.729 162.321 124.848C162.408 124.93 171.077 133.383 175.206 132.814C175.428 132.802 175.623 132.963 175.653 133.184C175.683 133.405 175.539 133.612 175.321 133.66C175.154 133.684 174.985 133.696 174.817 133.697Z" fill="#F47C53"/>
<path d="M222.448 55.6885C222.251 53.5009 221.563 51.3861 220.434 49.5022C219.273 47.5826 217.764 45.8964 215.984 44.53C214.128 43.0925 212.082 41.9166 209.906 41.0351C207.646 40.0992 205.249 39.5394 202.808 39.3777C200.497 39.2138 198.176 39.4814 195.962 40.1668C193.772 40.8564 191.732 41.9568 189.953 43.4095C189.922 43.4261 189.893 43.448 189.87 43.4743C186.987 45.809 187.434 50.32 190.637 52.1791L191.599 52.734C193.66 53.8872 196.23 53.569 197.948 51.9486C198.53 51.4242 199.183 50.9829 199.886 50.6371C201.598 49.798 203.594 49.7583 205.337 50.529C207.141 51.2664 208.37 52.3858 209.023 53.887C209.672 55.3894 209.65 56.9891 208.951 58.7041C208.406 60.0921 207.477 61.2966 206.274 62.1774C206.087 62.3216 205.892 62.4549 205.683 62.5918C204.532 63.3429 203.307 63.9732 202.026 64.4725L192.021 68.0935L178.69 72.9396C177.272 73.4574 176.139 74.55 175.57 75.9481L174.625 78.2684C174.09 79.5788 174.097 81.0486 174.646 82.3536C175.195 83.6588 176.24 84.6921 177.551 85.2257L184.188 87.9281L201.039 94.7917L202.329 95.3177C202.968 95.5808 203.652 95.7154 204.343 95.7141C206.897 95.7193 209.097 93.9124 209.587 91.4056C210.078 88.8988 208.721 86.3962 206.354 85.4383L204.97 84.8762L195.934 81.194C195.261 80.9262 194.827 80.2684 194.845 79.5451C194.862 78.8218 195.329 78.1859 196.013 77.9514L206.862 74.1105C207.795 73.7682 208.717 73.4116 209.621 73.0476C210.164 72.8267 210.702 72.6033 211.235 72.3775C212.651 71.7885 214.006 71.0646 215.282 70.2157C216.558 69.3552 217.709 68.3236 218.705 67.1496C219.788 65.8419 220.654 64.3688 221.27 62.7864C222.234 60.5512 222.638 58.115 222.448 55.6885Z" fill="#015700"/>
<path d="M281.398 136.873C276.926 149.293 278.096 163.047 284.601 174.535C286.799 178.422 288.608 181.964 289.375 184.263C291.537 190.795 294.236 189.368 295.551 191.829C298.793 197.86 296.3 208.626 297.965 213.562C300.228 220.275 304.238 219.972 304.238 219.972L357.022 210.939C357.022 210.939 355.22 205.693 353.419 192.654C352.759 187.887 350.936 182.205 354.24 175.288C358.848 165.624 356.222 152.473 354.939 140.202C354.341 134.437 352.496 123.675 351.26 119.82C349.96 115.752 350.63 100.396 344.883 100.18C334.716 99.8013 337.111 138.209 331.599 133.597C324.533 127.717 317.436 120.627 309.375 111.979C291.4 92.6855 288.19 118.032 281.398 136.873Z" fill="#FFAD97"/>
<path d="M321.601 190.69C321.439 190.693 321.285 190.62 321.186 190.492C319.664 188.262 318.65 185.725 318.218 183.059C317.763 180.418 317.867 177.71 318.524 175.111C319.342 171.832 321.028 168.626 323.532 165.549C323.704 165.33 324.021 165.292 324.24 165.464C324.459 165.636 324.497 165.953 324.325 166.172C321.914 169.123 320.296 172.207 319.515 175.342C318.892 177.805 318.794 180.372 319.227 182.875C319.634 185.381 320.582 187.769 322.004 189.872C322.086 189.978 322.121 190.112 322.103 190.244C322.085 190.376 322.014 190.495 321.907 190.575C321.821 190.646 321.713 190.687 321.601 190.69Z" fill="#F47C53"/>
<path d="M390.697 459.284C350.221 454.96 307.234 453.091 268.595 449.062C268.498 446.901 265.353 399.341 265.302 397.053C265.263 394.956 265.252 392.798 265.263 390.597C265.292 381.625 265.673 371.861 266.315 361.661C266.454 359.477 266.605 357.27 266.769 355.039C267.651 342.893 268.876 330.214 270.311 317.524C270.551 315.427 270.791 313.327 271.031 311.223C272.245 300.954 273.589 290.729 274.994 280.821C275.29 278.752 275.585 276.7 275.881 274.663C277.599 262.86 279.376 251.604 281.084 241.386C281.446 239.246 281.806 237.15 282.164 235.099C283.141 229.478 284.078 224.247 284.967 219.476C285.373 217.3 285.767 215.227 286.149 213.257C288.866 199.253 290.923 190.663 291.532 190.645C292.764 190.635 293.995 190.72 295.214 190.901C302.813 191.87 315.312 194.983 328.362 190.324C338.864 186.581 347.227 185.316 351.832 186.195C353.993 186.61 355.309 187.485 355.655 188.789C355.712 189.013 357.074 197.797 359.203 211.96C359.492 213.894 359.794 215.927 360.111 218.06C361.318 226.171 362.713 235.621 364.204 245.976C364.514 248.1 364.827 250.261 365.141 252.461C366.287 260.471 367.49 268.938 368.708 277.683C368.996 279.729 369.283 281.79 369.569 283.865C371.176 295.456 372.812 307.425 374.365 319.355C374.636 321.444 374.908 323.532 375.179 325.617C376.934 339.139 378.598 352.517 380.058 365.116C380.298 367.194 380.538 369.247 380.778 371.277C382.032 382.374 383.12 392.766 383.945 401.997C384.137 404.144 384.316 406.23 384.482 408.255C384.705 411.058 390.528 456.737 390.697 459.284Z" fill="#015700"/>
<path d="M345.568 113.368C344.961 113.292 344.382 113.068 343.882 112.716C343.615 112.532 342.351 111.256 343.489 104.133C343.504 103.99 343.597 103.867 343.731 103.813C343.864 103.759 344.017 103.784 344.127 103.876C344.237 103.969 344.287 104.115 344.257 104.256C343.795 107.163 343.508 111.509 344.325 112.074C344.992 112.568 345.846 112.735 346.649 112.528C346.847 112.476 347.051 112.585 347.119 112.778C347.187 112.971 347.095 113.184 346.909 113.267C346.474 113.394 346.017 113.428 345.568 113.368Z" fill="#F47C53"/>
<path d="M303.234 191.545C303.204 191.548 303.174 191.548 303.144 191.545C298.748 190.886 296.208 189.066 294.857 187.657C293.994 186.807 293.328 185.778 292.908 184.642C292.828 184.376 292.979 184.096 293.244 184.017C293.51 183.937 293.79 184.088 293.87 184.353C294.255 185.355 294.852 186.261 295.621 187.009C296.871 188.288 299.224 189.942 303.302 190.554C303.555 190.596 303.736 190.823 303.72 191.079C303.704 191.335 303.497 191.538 303.241 191.549L303.234 191.545Z" fill="#F47C53"/>
<path d="M278.831 169.776L292.072 173.584C295.467 175.345 299.648 174.021 301.41 170.626C303.172 167.23 301.847 163.05 298.453 161.287L289.654 156.719C283.626 153.699 278.456 152.658 275.624 158.127C271.61 165.867 275.548 168.072 278.831 169.776Z" fill="#FFAD97"/>
<path d="M296.269 170.528C296.269 170.528 292.306 170.308 290.475 169.303C288.645 168.297 291.877 161.935 293.696 162.007C295.516 162.079 298.582 163.43 298.74 165.17C298.899 166.91 297.487 170.636 296.269 170.528Z" fill="#F47C53"/>
<path d="M293.705 174.657C289.742 174.17 278.057 169.591 277.546 169.389C277.279 169.284 277.149 168.982 277.254 168.716C277.359 168.449 277.661 168.318 277.928 168.424C278.057 168.474 290.845 173.504 294.17 173.652C297.344 173.807 298.98 172.355 298.998 172.34C299.209 172.141 299.541 172.151 299.74 172.362C299.939 172.573 299.93 172.905 299.719 173.104C299.64 173.176 297.773 174.87 294.134 174.693C293.994 174.686 293.86 174.675 293.705 174.657Z" fill="#F47C53"/>
<path d="M297.832 155.819C293.009 154.408 290.244 149.354 291.656 144.531L317.259 57.1117C318.67 52.2889 323.725 49.5238 328.547 50.9361C333.369 52.3492 336.132 57.4028 334.719 62.2242L309.12 149.644C307.708 154.466 302.654 157.231 297.832 155.819Z" fill="#002B34"/>
<path d="M365.854 105.824L265.486 78.326C263.851 77.8776 262.479 76.7661 261.7 75.2607C260.921 73.7552 260.807 71.9926 261.386 70.3995L285.277 4.82502C286.408 1.72461 289.808 0.0943942 292.934 1.15357L384.691 32.2113C387.686 33.2165 389.409 36.3501 388.654 39.4173L373.356 101.421C372.964 103.012 371.947 104.376 370.534 105.205C369.122 106.034 367.434 106.258 365.854 105.824Z" fill="#94C358"/>
<path d="M273.012 149.893L287.785 156.951C291.422 159.679 296.581 158.945 299.314 155.312C302.043 151.675 301.311 146.516 297.678 143.782L288.253 136.702C281.768 131.975 275.916 129.745 271.521 135.621C265.313 143.869 269.496 147.248 273.012 149.893Z" fill="#FFAD97"/>
<path d="M293.302 154.21C293.302 154.21 288.719 153.183 286.749 151.637C284.778 150.091 289.836 143.271 291.955 143.711C294.073 144.15 297.406 146.337 297.262 148.394C297.118 150.452 294.7 154.574 293.302 154.21Z" fill="#F47C53"/>
<path d="M291.42 158.681C287.94 158.256 282.964 154.891 282.719 154.718C282.482 154.556 282.422 154.232 282.584 153.995C282.746 153.759 283.07 153.698 283.306 153.86C285.108 155.093 290.325 158.166 292.696 157.615C292.975 157.549 293.255 157.722 293.321 158.002C293.387 158.281 293.213 158.561 292.934 158.627C292.436 158.731 291.924 158.75 291.42 158.681Z" fill="#F47C53"/>
<path d="M278.885 131.694L292.487 140.799C295.696 144.022 300.91 144.035 304.135 140.828C307.363 137.621 307.377 132.404 304.168 129.179L295.855 120.821C290.12 115.218 284.643 112.173 279.455 117.336C272.13 124.632 275.783 128.574 278.885 131.694Z" fill="#FFAD97"/>
<path d="M298.372 138.893C298.372 138.893 293.983 137.218 292.247 135.406C290.51 133.593 296.502 127.569 298.534 128.308C300.566 129.047 303.556 131.691 303.113 133.712C302.67 135.734 299.705 139.452 298.372 138.893Z" fill="#F47C53"/>
<path d="M297.396 143.324C291.631 142.625 282.48 134.316 282.058 133.931C281.846 133.738 281.831 133.409 282.024 133.197C282.217 132.985 282.545 132.97 282.757 133.163C282.869 133.264 293.765 143.154 298.754 142.282C298.89 142.257 299.031 142.288 299.144 142.367C299.257 142.446 299.333 142.568 299.356 142.704C299.404 142.986 299.216 143.254 298.935 143.306C298.426 143.388 297.907 143.394 297.396 143.324Z" fill="#F47C53"/>
<path d="M288.941 116.912L300.542 123.757C303.329 126.256 307.613 126.025 310.115 123.242C312.615 120.456 312.385 116.171 309.6 113.669L302.394 107.184C297.422 102.86 292.781 100.594 288.757 105.083C283.064 111.424 286.249 114.494 288.941 116.912Z" fill="#FFAD97"/>
<path d="M305.311 121.9C305.311 121.9 301.625 120.729 300.119 119.32C298.613 117.911 303.254 112.683 304.958 113.195C306.663 113.706 309.239 115.739 308.972 117.425C308.705 119.111 306.428 122.296 305.311 121.9Z" fill="#F47C53"/>
<path d="M304.337 125.564C299.538 124.984 292.008 118.884 291.651 118.596C291.47 118.444 291.443 118.175 291.59 117.99C291.741 117.809 292.009 117.783 292.192 117.933C292.289 118.008 301.696 125.632 305.757 124.678C305.987 124.626 306.217 124.768 306.272 124.998C306.324 125.228 306.181 125.456 305.951 125.51C305.421 125.623 304.874 125.641 304.337 125.564Z" fill="#F47C53"/>
<path d="M361.589 225.385C356.329 225.745 329.339 227.669 314.196 230.306C309.729 231.073 305.174 231.179 300.677 230.62C295.776 230.008 290.983 228.72 286.434 226.794C286.84 224.617 287.234 222.544 287.616 220.575C292.549 222.809 302.234 226.145 313.136 224.25C328.355 221.594 354.286 219.724 360.696 219.285C360.972 221.221 361.27 223.254 361.589 225.385Z" fill="#FFBB01"/>
<path d="M366.434 258.976C362.11 258.036 341.061 253.784 320.777 255.107C316.136 255.402 311.477 255.263 306.862 254.692C298.409 253.634 290.155 251.347 282.362 247.904C282.724 245.764 283.085 243.668 283.443 241.617C289.838 244.586 304.048 250.041 320.369 248.975C339.228 247.746 358.161 251.021 365.493 252.498C365.794 254.629 366.107 256.788 366.434 258.976Z" fill="#FFBB01"/>
<path d="M369.898 283.106C361.744 282.843 339.272 282.386 319.381 284.429C301.794 286.23 284.792 282.303 277.067 280.105C276.771 282.14 276.476 284.192 276.181 286.263C282.617 288.053 289.178 289.359 295.81 290.168C303.838 291.183 311.953 291.304 320.007 290.529C340.497 288.417 363.877 289.03 370.759 289.275C370.461 287.204 370.174 285.148 369.898 283.106Z" fill="#FFBB01"/>
<path d="M376.144 329.839C368.409 329.118 345.4 327.353 324.15 329.839C317.185 330.661 310.012 330.408 303.177 329.58C289.982 327.976 278.038 324.211 271.272 321.761C271.512 319.664 271.753 317.564 271.993 315.46C281.04 318.81 303.555 326.067 323.414 323.746C344.334 321.289 366.29 322.77 375.298 323.584C375.591 325.674 375.873 327.759 376.144 329.839Z" fill="#FFBB01"/>
<path d="M381.475 374.119C370.799 373.943 340.339 373.59 316.642 374.84C311.338 375.114 306.02 374.924 300.749 374.271C286.301 372.516 274.142 367.821 267.018 364.514C267.158 362.33 267.309 360.123 267.472 357.891C273.695 360.925 286.446 366.319 301.701 368.171C306.547 368.774 311.437 368.952 316.315 368.704C339.615 367.461 369.343 367.764 380.765 367.948C381.007 370.035 381.244 372.092 381.475 374.119Z" fill="#FFBB01"/>
<path d="M344.076 53.3861C346.423 51.8561 348.061 49.5873 348.99 46.5801C349.797 43.9907 349.952 41.5695 349.455 39.3165C348.972 37.0932 348.007 35.0027 346.631 33.1914C345.201 31.3239 343.447 29.7288 341.453 28.4822C339.368 27.1629 337.117 26.1258 334.759 25.3981C332.539 24.7044 330.237 24.313 327.913 24.2344C325.651 24.1533 323.389 24.4071 321.201 24.9873C319.048 25.5686 317.014 26.5195 315.187 27.7977C314.563 28.2369 313.969 28.7184 313.411 29.2388C312.566 30.0095 312.138 31.1351 312.256 32.2721C312.374 33.4092 313.024 34.4229 314.009 35.0036L318.718 37.7491C320.057 38.5562 321.769 38.3831 322.919 37.324C323.632 36.6449 324.467 36.107 325.38 35.7387C327.065 35.0666 328.934 35.013 330.655 35.5873C332.365 36.0898 333.859 37.1469 334.903 38.5922C335.957 40.0334 336.182 41.7292 335.576 43.6796C335.278 44.8248 334.652 45.8579 333.775 46.6521C332.983 47.3036 332.042 47.7481 331.037 47.9456C329.94 48.1527 328.815 48.1734 327.711 48.0069C326.491 47.8249 325.287 47.5503 324.108 47.1854L323.802 47.0881C321.909 46.5079 319.903 47.5633 319.309 49.4516L318.549 51.8909C318.483 52.0972 318.437 52.3096 318.412 52.525C318.389 52.7005 318.381 52.8777 318.387 53.0547C318.431 54.5895 319.444 55.9274 320.909 56.3874C322.248 56.8012 323.549 57.3305 324.796 57.9691C325.965 58.5515 327.039 59.3084 327.981 60.2138C328.833 61.0297 329.467 62.0453 329.826 63.1683C330.171 64.3951 330.13 65.6986 329.707 66.9009C329.158 69.0115 327.583 70.7034 325.517 71.4011C324.588 71.7069 323.612 71.8424 322.635 71.801C321.657 71.7654 320.688 71.6019 319.752 71.3146C317.314 70.558 315.513 69.2597 314.348 67.4197C313.996 66.8707 313.694 66.2921 313.443 65.6903C313.252 65.244 313.094 64.7839 312.971 64.314C312.615 62.8129 311.316 61.7235 309.776 61.6333L303.816 61.3703C302.738 61.3145 301.692 61.7502 300.972 62.5553C300.253 63.3604 299.936 64.4483 300.112 65.5138C300.302 66.6033 300.595 67.6723 300.988 68.706C301.813 70.9 303.034 72.9237 304.591 74.6762C306.046 76.2961 307.722 77.703 309.57 78.8557C309.754 78.9746 309.93 79.0863 310.118 79.1979C312.279 80.4846 314.585 81.5089 316.989 82.2496C319.476 83.0257 322.059 83.4513 324.663 83.5143C327.203 83.5832 329.737 83.2177 332.154 82.4334C334.529 81.6312 336.696 80.3107 338.498 78.5675C340.358 76.7803 341.747 74.4144 342.667 71.4695C343.131 70.0046 343.327 68.4678 343.244 66.9334C343.16 65.4454 342.821 63.983 342.242 62.6097C341.653 61.2123 340.844 59.9181 339.846 58.7762C338.798 57.5768 337.56 56.558 336.182 55.7605L336.257 55.5335C339.026 55.667 341.764 54.9148 344.076 53.3861Z" fill="#FF4929"/>
<path d="M486.506 215.443C491.619 227.614 491.168 241.41 485.27 253.22C483.278 257.22 481.667 260.851 481.008 263.193C479.185 269.834 476.418 268.547 475.243 271.066C472.332 277.259 475.373 287.881 473.968 292.897C472.054 299.721 468.034 299.623 468.034 299.623L414.854 293.351C414.854 293.351 416.392 288.018 417.512 274.9C417.923 270.108 419.447 264.35 415.787 257.605C410.685 248.194 412.623 234.928 413.265 222.602C413.563 216.837 414.846 205.974 415.877 202.065C416.958 197.94 415.495 182.638 421.224 182.122C431.341 181.214 430.952 219.68 436.23 214.798C442.982 208.561 449.698 201.107 457.297 192.038C474.216 171.84 478.745 196.996 486.506 215.443Z" fill="#FFAD97"/>
<path d="M449.871 271.938C450.033 271.934 450.183 271.852 450.274 271.718C451.679 269.417 452.559 266.833 452.85 264.152C453.167 261.488 452.922 258.788 452.13 256.225C451.143 252.983 449.291 249.87 446.632 246.937C446.445 246.732 446.128 246.717 445.924 246.903C445.719 247.089 445.704 247.406 445.889 247.611C448.451 250.432 450.213 253.429 451.172 256.517C451.92 258.945 452.152 261.503 451.852 264.026C451.573 266.55 450.75 268.984 449.442 271.16C449.334 271.314 449.323 271.517 449.413 271.683C449.503 271.848 449.679 271.948 449.867 271.942L449.871 271.938Z" fill="#F47C53"/>
<path d="M513.482 465.672C476.638 461.349 437.152 466.627 397.826 462.386C402.672 388.013 413.318 275.315 413.455 274.566C413.736 273.24 415.023 272.303 417.141 271.774C421.696 270.653 430.112 271.478 440.799 274.656C454.058 278.619 466.38 274.869 473.91 273.503C475.12 273.26 476.346 273.11 477.578 273.053C479.837 273.017 507.454 391.375 513.482 465.672Z" fill="#54A233"/>
<path d="M418.525 196.164C418.412 196.153 418.3 196.132 418.19 196.103C417.983 196.042 417.864 195.825 417.925 195.618C417.986 195.411 418.203 195.293 418.409 195.354C419.224 195.519 420.069 195.307 420.708 194.777C421.494 194.172 420.982 189.845 420.366 186.966C420.321 186.755 420.456 186.548 420.667 186.503C420.878 186.458 421.085 186.593 421.13 186.804C422.636 193.862 421.44 195.199 421.184 195.393C420.436 195.994 419.479 196.271 418.525 196.164Z" fill="#F47C53"/>
<path d="M470.448 271.862H470.538C474.894 270.976 477.337 269.03 478.619 267.539C479.441 266.646 480.057 265.583 480.421 264.425C480.487 264.157 480.324 263.885 480.055 263.818C479.786 263.752 479.515 263.916 479.448 264.184C479.114 265.204 478.564 266.139 477.834 266.926C476.655 268.27 474.397 270.043 470.35 270.868C470.098 270.921 469.927 271.157 469.956 271.414C469.985 271.67 470.204 271.863 470.462 271.859L470.448 271.862Z" fill="#F47C53"/>
<path d="M494.548 248.756L481.534 253.249C478.235 255.184 473.991 254.079 472.054 250.781C470.117 247.483 471.22 243.238 474.519 241.301L483.069 236.279C488.931 232.949 494.04 231.642 497.156 236.956C501.534 244.457 497.719 246.882 494.548 248.756Z" fill="#FFAD97"/>
<path d="M476.443 251.01C476.1 250.951 475.782 250.788 475.535 250.542C474.425 249.537 473.323 246.813 473.373 245.246C473.463 243.181 476.656 241.52 478.727 241.329C480.323 241.178 482.381 244.161 483.083 246.28C483.786 248.398 483.083 249.126 482.644 249.407C480.792 250.546 476.962 250.978 476.71 251.007C476.621 251.019 476.532 251.02 476.443 251.01ZM478.933 242.363H478.843C477.182 242.518 474.49 243.92 474.429 245.289C474.375 246.546 475.355 248.971 476.23 249.771C476.425 249.944 476.548 249.984 476.591 249.976C476.63 249.976 480.424 249.555 482.1 248.535C482.42 248.341 482.42 247.588 482.1 246.626C481.433 244.561 479.725 242.464 478.933 242.367V242.363Z" fill="#F47C53"/>
<path d="M477.304 254.524C476.061 254.415 474.871 253.972 473.859 253.241C473.638 253.057 473.609 252.729 473.793 252.508C473.977 252.287 474.305 252.257 474.526 252.441C474.558 252.47 476.266 253.821 479.412 253.522C482.737 253.187 495.236 247.509 495.362 247.451C495.618 247.358 495.903 247.478 496.016 247.725C496.129 247.973 496.033 248.266 495.795 248.399C495.272 248.636 483.011 254.203 479.516 254.556C478.78 254.627 478.038 254.616 477.304 254.524Z" fill="#F47C53"/>
<path d="M471.849 233.426C476.591 231.764 479.088 226.573 477.426 221.831L447.309 135.86C445.649 131.119 440.459 128.621 435.718 130.283C430.975 131.943 428.476 137.135 430.137 141.877L460.255 227.848C461.916 232.59 467.107 235.088 471.849 233.426Z" fill="#002B34"/>
<path d="M401.984 186.45L502.475 153.209C504.116 152.667 505.454 151.463 506.166 149.888C506.879 148.313 506.899 146.512 506.222 144.922L478.479 79.5965C477.166 76.5074 473.628 75.031 470.509 76.2708L378.957 112.661C375.974 113.847 374.396 117.119 375.325 120.191L394.133 182.361C394.612 183.958 395.716 185.293 397.195 186.063C398.673 186.833 400.4 186.973 401.984 186.45Z" fill="#94C358"/>
<path d="M499.592 228.551L485.206 236.373C481.715 239.29 476.521 238.826 473.604 235.335C470.686 231.846 471.149 226.652 474.638 223.734L483.681 216.168C489.907 211.123 495.64 208.576 500.334 214.2C506.964 222.134 502.965 225.73 499.592 228.551Z" fill="#FFAD97"/>
<path d="M478.601 234.568C478.285 234.517 477.986 234.394 477.726 234.208C476.248 233.256 474.447 230.32 474.22 228.49C473.924 226.097 477.3 223.575 479.66 222.952C481.462 222.476 484.402 225.542 485.627 227.859C486.502 229.506 486.542 230.799 485.746 231.491C483.811 233.177 479.412 234.431 479.138 234.51C478.965 234.566 478.782 234.586 478.601 234.568ZM480.175 223.961C480.092 223.946 480.007 223.946 479.923 223.961C477.974 224.476 475.045 226.699 475.24 228.364C475.43 229.898 477.041 232.547 478.277 233.336C478.431 233.461 478.626 233.527 478.824 233.52C478.868 233.52 483.26 232.266 485.036 230.72C485.396 230.388 485.281 229.484 484.676 228.356C483.515 226.101 481.242 224.09 480.175 223.961Z" fill="#F47C53"/>
<path d="M480.136 238.464L479.967 238.439C479.684 238.388 479.496 238.118 479.547 237.836C479.598 237.553 479.868 237.365 480.15 237.416C482.528 237.866 487.591 234.501 489.331 233.179C489.477 233.047 489.685 233.009 489.869 233.08C490.053 233.151 490.181 233.319 490.2 233.515C490.22 233.711 490.127 233.902 489.961 234.008C489.709 234.217 483.526 238.875 480.136 238.464Z" fill="#F47C53"/>
<path d="M492.127 210.693L479.012 220.494C475.975 223.879 470.77 224.165 467.381 221.131C463.993 218.097 463.706 212.89 466.74 209.501L474.609 200.717C480.042 194.822 485.357 191.493 490.822 196.393C498.511 203.289 495.06 207.418 492.127 210.693Z" fill="#FFAD97"/>
<path d="M472.008 219.59C471.769 219.559 471.536 219.489 471.319 219.385C469.72 218.664 467.515 216.009 467.032 214.229C466.398 211.905 469.374 208.926 471.622 207.971C473.341 207.25 476.684 209.851 478.23 211.97C479.332 213.476 479.556 214.748 478.867 215.551C477.192 217.493 473.02 219.367 472.742 219.482C472.513 219.588 472.258 219.626 472.008 219.59ZM472.454 208.889C472.31 208.865 472.163 208.879 472.025 208.929C470.17 209.715 467.59 212.334 468.033 213.973C468.441 215.465 470.419 217.854 471.752 218.459C471.921 218.563 472.123 218.599 472.317 218.56C472.361 218.542 476.526 216.683 478.082 214.896C478.41 214.535 478.147 213.638 477.394 212.608C475.964 210.626 473.607 209.03 472.454 208.889Z" fill="#F47C53"/>
<path d="M472.854 223.428C472.57 223.393 472.367 223.134 472.402 222.85C472.437 222.565 472.696 222.363 472.98 222.398C478.024 223.007 488.372 212.565 488.473 212.461C488.59 212.288 488.8 212.202 489.005 212.243C489.21 212.284 489.37 212.444 489.411 212.649C489.452 212.854 489.367 213.064 489.194 213.181C488.783 213.635 478.392 224.102 472.854 223.428Z" fill="#F47C53"/>
<path d="M480.543 196.512L469.327 203.952C466.681 206.601 462.389 206.601 459.743 203.952C457.095 201.307 457.095 197.014 459.743 194.368L466.614 187.523C471.352 182.933 475.87 180.443 480.122 184.712C486.124 190.726 483.105 193.958 480.543 196.512Z" fill="#FFAD97"/>
<path d="M463.67 202.898C463.448 202.868 463.232 202.796 463.036 202.685C461.757 202.015 460.068 199.735 459.754 198.25C459.34 196.315 461.916 194.002 463.815 193.321C465.256 192.802 467.886 195.123 469.06 196.924C469.893 198.21 470.019 199.266 469.421 199.893C467.958 201.413 464.441 202.757 464.222 202.84C464.046 202.908 463.856 202.928 463.67 202.898ZM464.391 194.107C464.294 194.091 464.196 194.098 464.103 194.128C462.543 194.687 460.302 196.722 460.59 198.092C460.853 199.335 462.37 201.388 463.433 201.947C463.568 202.039 463.731 202.078 463.894 202.058C463.93 202.058 467.439 200.715 468.783 199.317C469.071 199.017 468.895 198.286 468.325 197.407C467.234 195.667 465.31 194.218 464.391 194.107Z" fill="#F47C53"/>
<path d="M464.283 206.081L464.085 206.052C463.853 206.009 463.7 205.787 463.742 205.555C463.785 205.323 464.008 205.17 464.24 205.213L464.398 205.234C468.574 205.742 477.344 197.848 477.434 197.769C477.517 197.693 477.628 197.653 477.741 197.658C477.854 197.664 477.96 197.714 478.036 197.798C478.195 197.973 478.182 198.244 478.007 198.403C477.646 198.753 468.873 206.65 464.283 206.081Z" fill="#F47C53"/>
<path d="M464.549 136.489L463.526 133.247C462.822 131.034 460.458 129.81 458.244 130.512L458.158 130.537C455.942 131.236 453.579 130.01 452.876 127.795L444.045 99.9155C443.342 97.7011 440.978 96.4742 438.763 97.1735L428.282 100.492C426.946 100.917 425.909 101.978 425.515 103.324L413.92 142.989C413.688 143.791 413.699 144.644 413.953 145.439L416.003 151.889C416.703 154.104 419.067 155.332 421.281 154.63L432.76 150.991L440.809 148.444C441.873 148.105 443.028 148.203 444.019 148.717C445.01 149.231 445.755 150.118 446.091 151.182L447.172 154.573C447.507 155.637 448.252 156.524 449.243 157.039C450.233 157.553 451.387 157.652 452.451 157.315L454.079 156.799L457.416 155.747C459.632 155.042 460.86 152.677 460.161 150.458L459.08 147.068C458.896 146.495 458.839 145.888 458.914 145.291C459.112 143.654 460.249 142.283 461.822 141.786C462.887 141.446 463.772 140.697 464.284 139.703C464.796 138.71 464.891 137.553 464.549 136.489ZM437.311 137.149L434.519 138.035C433.054 138.51 431.446 138.137 430.339 137.066C429.214 136.013 428.767 134.422 429.179 132.937L434.223 114.291L434.468 114.212L439.966 131.56L440.064 131.874C440.399 132.938 440.297 134.093 439.781 135.082C439.264 136.071 438.376 136.815 437.311 137.149Z" fill="#015700"/>
</svg>
