<svg width="870" height="680" viewBox="0 0 870 680" fill="none" xmlns="http://www.w3.org/2000/svg">
<path opacity="0.4" d="M874.093 490.148C872.357 543.249 912.545 632.078 878.645 671.19C868.746 680.998 870.309 686.654 858.12 686.638C642.404 688.459 321.751 682.829 104.748 682.549C12.6359 606.208 77.5013 392.122 215.788 320.805C335.95 258.836 334.277 12.6492 504.24 27.3202C571.304 33.1113 585.689 46.2222 636.984 29.2076C1082.72 -118.636 864.782 335.054 874.093 490.148Z" fill="white"/>
<path d="M606.692 318.055C606.692 318.055 654.414 269.821 668.534 280.274C682.655 290.726 606.692 318.055 606.692 318.055Z" fill="url(#paint0_linear_3_3084)"/>
<path d="M603.414 327.143C603.414 327.143 693.601 283.419 715.891 304.416C738.181 325.413 691.381 324.151 674.004 322.255C656.628 320.358 603.414 327.143 603.414 327.143Z" fill="url(#paint1_linear_3_3084)"/>
<path d="M599.271 317.25C599.271 317.25 599.629 314.935 600.114 311.55C601.057 304.944 602.473 294.249 602.608 288.707C602.816 280.314 609.371 274.162 617.027 282.466C624.684 290.77 602.045 314.866 602.045 314.866L599.271 317.25Z" fill="url(#paint2_linear_3_3084)"/>
<path d="M362.502 400.3C366.679 386.739 389.633 391.807 389.633 391.807C389.633 391.807 404.496 416.302 409.038 417.028C413.58 417.755 400.422 393.606 400.422 393.606C409.293 393.053 431.451 404.663 431.451 404.663C431.451 404.663 429.063 432.565 433.653 432.149C438.242 431.734 434.505 407.34 434.505 407.34C442.973 410.199 450.614 420.454 450.614 420.454C460.05 437.053 438.239 448.296 438.239 448.296C438.239 448.296 437.61 457.984 443.228 469.311C444.246 471.108 445.095 472.995 445.763 474.949L443.429 474.87C443.262 474.241 443.07 473.611 442.86 473.036V473.011C442.715 472.646 442.501 472.124 442.23 471.488C441.567 470.07 441.12 469.022 440.84 468.27C438.855 463.819 435.974 458.01 433.964 456.742C434.187 456.415 434.367 456.061 434.499 455.688L433.964 456.742C429.676 465.159 409.664 465.899 398.62 463.238C387.576 460.576 392.533 457.604 398.699 452.715C404.864 447.827 417.365 449.604 421.139 447.736C424.914 445.867 419.566 443.685 412.13 443.999C404.694 444.314 400.734 451.602 388.718 452.332C376.701 453.061 368.347 430.218 368.347 430.218C376.525 433.068 391.517 429.017 392.184 426.182C392.851 423.348 370.885 422.883 367.491 421.907C364.097 420.932 358.325 413.864 362.502 400.3Z" fill="url(#paint3_linear_3_3084)"/>
<path d="M712.736 417.343C708.508 406.406 689.883 411.914 689.883 411.914C689.883 411.914 679.05 432.964 675.344 433.826C671.638 434.688 681.095 414.009 681.095 414.009C673.749 414.068 656.159 424.918 656.159 424.918C656.159 424.918 659.739 447.777 655.939 447.701C652.139 447.626 653.8 427.299 653.8 427.299C646.987 430.149 641.281 439.041 641.281 439.041C634.474 453.269 653.095 461.275 653.095 461.275C653.095 461.275 654.165 469.223 650.198 478.89C649.461 480.429 648.871 482.034 648.434 483.684L650.353 483.486C650.456 482.954 650.576 482.438 650.717 481.941C650.716 481.934 650.716 481.927 650.717 481.919C650.818 481.605 650.963 481.167 651.142 480.629C651.608 479.418 651.916 478.531 652.085 477.893C653.463 474.118 655.502 469.151 657.087 467.991C656.883 467.735 656.714 467.454 656.584 467.154C656.744 467.421 656.898 467.701 657.087 467.991C661.107 474.681 677.644 474.134 686.593 471.299C695.542 468.465 691.283 466.304 685.919 462.634C680.557 458.963 670.355 461.149 667.134 459.824C663.913 458.5 668.197 456.396 674.344 456.226C680.49 456.056 684.177 461.834 694.124 461.74C704.07 461.646 709.634 442.335 709.634 442.335C703.053 445.166 690.468 442.681 689.754 440.388C689.04 438.095 707.121 436.434 709.861 435.433C712.601 434.433 716.963 428.28 712.736 417.343Z" fill="url(#paint4_linear_3_3084)"/>
<path d="M375.264 272.017C386.085 250.982 422.275 266.015 422.275 266.015C422.275 266.015 439.503 310.559 446.747 313.082C453.992 315.605 439.453 272.12 439.453 272.12C454.171 273.809 487.143 299.342 487.143 299.342C487.143 299.342 475.07 344.434 482.711 345.095C490.352 345.756 491.365 304.624 491.365 304.624C504.425 311.796 513.969 330.861 513.969 330.861C524.582 360.858 485.514 372.937 485.514 372.937C485.514 372.937 481.667 388.665 487.558 408.882C487.558 408.882 489.046 412.7 490.075 418.875L486.266 418.051C486.174 416.966 486.042 415.906 485.863 414.877V414.858C485.861 414.843 485.861 414.829 485.863 414.814C485.727 414.185 485.533 413.241 485.281 412.134C484.605 409.617 484.18 407.762 483.941 406.444C481.984 398.555 478.955 388.177 476.027 385.507C476.49 385.037 476.89 384.508 477.216 383.934L476.027 385.507C466.53 398.07 433.47 393.433 416.125 385.821C398.78 378.209 407.78 374.811 419.324 368.58C430.868 362.348 450.868 368.929 457.612 366.963C464.356 364.997 456.216 359.854 443.919 358.2C431.623 356.545 422.992 367.347 403.058 365.029C383.125 362.71 376.094 322.78 376.094 322.78C388.676 329.851 414.47 327.58 416.395 323.126C418.32 318.672 382.401 311.487 377.116 308.892C371.832 306.297 364.443 293.054 375.264 272.017Z" fill="url(#paint5_linear_3_3084)"/>
<rect x="430.271" y="302.84" width="231.733" height="313.368" fill="#01644C"/>
<rect x="437.506" y="308.943" width="215.263" height="299.436" fill="url(#paint6_linear_3_3084)"/>
<rect x="452.202" y="329.342" width="56.3912" height="56.3912" fill="white"/>
<path d="M499.125 440.271H454.536L486.501 368.599L497.561 393.377L501.6 417.469L499.125 440.271Z" fill="#88A0E2"/>
<path d="M464.31 370.452L471.45 368.599L478.389 366.139C478.389 366.139 482.413 368.064 485.284 368.599C488.408 369.181 498.836 386.598 498.836 387.328C498.836 388.058 490.679 439.916 490.679 439.916H451.315L464.31 370.452Z" fill="white"/>
<path d="M483.853 371.427C480.321 372.034 475.171 371.178 471.443 368.596C473.246 364.557 474.023 361.361 474.322 359.272C474.322 359.162 474.35 359.055 474.366 358.958C474.477 358.247 474.507 357.527 474.457 356.809L483.551 357.023C483.551 357.023 486.011 358.215 485.992 359.002C485.992 359.423 485.976 359.826 485.976 360.21C485.976 361.254 485.976 362.169 486.026 362.953C486.14 365.51 486.501 368.615 486.501 368.615C486.501 368.615 487.419 370.81 483.853 371.427Z" fill="#F5C99D"/>
<path d="M486.027 362.946C479.107 364.12 475.196 360.26 474.322 359.272C474.196 359.134 474.133 359.049 474.133 359.049C474.206 359.014 474.284 358.983 474.366 358.951C476.952 357.973 482.859 358.495 486.077 359.763C486.071 360.801 485.989 362.163 486.027 362.946Z" fill="#D8A982"/>
<path d="M471.773 356.155C474.117 362.474 482.507 360.804 486.077 359.763C487.08 359.47 487.703 359.228 487.703 359.228C488.807 358.722 489.134 356.79 489.024 354.353C488.801 349.533 486.854 342.736 485.749 341.103C484.089 338.643 481.33 336.152 473.205 339.7C465.08 343.249 468.77 348.055 471.773 356.155Z" fill="#F5C99D"/>
<path d="M484.982 335.501C482.101 333.378 479.534 332.915 477.662 332.89C472.126 332.815 467.832 335.614 467.807 335.63C461.402 339.876 460.509 345.491 465.605 353.119C471 361.182 474.29 359.41 474.29 359.41C474.29 359.41 473.661 359.209 473.262 356.472C473.239 356.318 473.224 356.189 473.211 356.076C473.159 355.509 472.851 354.997 472.375 354.686C471.381 354.057 470.56 351.814 471.17 351.043C471.903 350.099 473.29 350.848 473.806 351.512C474 351.738 474.279 351.874 474.577 351.887C474.874 351.901 475.164 351.791 475.378 351.584C477.301 349.848 475.426 347.36 477.2 345.337C478.974 343.314 489.603 344.22 490.301 338.244C488.394 337.618 486.598 336.693 484.982 335.501Z" fill="#070707"/>
<path d="M486.501 368.599C486.501 368.599 497.668 391.641 499.124 409.432C500.581 427.223 499.124 440.259 499.124 440.259C499.124 440.259 506.388 422.895 507.076 402.32C507.391 393.175 505.916 376.62 502.811 373.695C501.294 372.273 496.746 370.908 486.501 368.599Z" fill="#002822"/>
<path d="M474.064 399.07C474.029 401.703 473.925 404.453 473.749 407.299C473.062 418.366 471.076 429.314 467.829 439.916H431.271C431.271 439.916 435.798 428.906 441.268 416.953C442.227 414.858 443.215 412.732 444.209 410.634C448.254 402.112 452.457 394.003 455.533 389.904C463.689 379.033 471.456 368.611 471.456 368.611C471.456 368.611 474.306 381.071 474.064 399.07Z" fill="#002822"/>
<path d="M464.033 415.575C464.033 415.575 456.527 418.554 441.268 416.94C442.227 414.845 443.215 412.719 444.209 410.621L464.033 415.575Z" fill="#9DB0F4"/>
<path d="M474.064 399.071C474.029 401.703 473.925 404.453 473.75 407.299C468.83 407.032 451.24 406.063 451.325 405.815C451.41 405.566 452.951 398.825 452.951 398.825C452.951 398.825 467.735 402.414 474.045 398.825L474.064 399.071Z" fill="#9DB0F4"/>
<path d="M467.178 406.978C467.178 406.978 472.418 403.867 474.846 404.015C477.275 404.163 481.156 404.94 481.739 406.978C482.321 409.016 480.867 408.022 477.615 408.655C475.696 409.029 474.522 411.785 472.031 412.027C471.059 412.121 467.178 411.347 467.178 411.347V406.978Z" fill="#FFB27D"/>
<path d="M471.45 368.599C471.45 368.599 458.031 370.172 454.536 373.484C448.629 379.068 433.083 400.174 434.618 409.432C435.638 415.575 464.033 415.575 464.033 415.575C464.033 415.575 467.537 413.304 468.83 411.25C471.45 407.076 470.544 404.015 470.544 404.015L452.982 398.039C452.982 398.039 461.548 389.731 468.15 389.3C472.979 388.995 471.45 368.599 471.45 368.599Z" fill="#002822"/>
<rect x="523.516" y="363.978" width="70.6628" height="1.41867" fill="#002822"/>
<rect x="523.516" y="370.596" width="70.6628" height="1.41867" fill="#002822"/>
<rect x="523.516" y="377.29" width="70.6628" height="1.41867" fill="#002822"/>
<rect x="523.516" y="325.127" width="21.6229" height="21.6197" fill="white"/>
<rect x="566.777" y="342.015" width="27.4045" height="2.49446" fill="#002822"/>
<rect x="560.807" y="347.857" width="33.3717" height="2.49446" fill="#002822"/>
<rect x="452.202" y="489.547" width="56.3912" height="56.3912" fill="white"/>
<path d="M463.57 530.663L470.71 528.807L477.65 526.351C477.65 526.351 481.673 528.276 484.545 528.807C487.668 529.389 498.096 546.81 498.096 547.539C498.096 548.269 498.385 600.483 498.385 600.483L450.573 600.128L463.57 530.663Z" fill="#01644C"/>
<path d="M483.115 531.629C479.582 532.239 474.432 531.383 470.705 528.798C472.51 524.759 473.285 521.563 473.583 519.474C473.599 519.364 473.612 519.257 473.627 519.159C473.738 518.449 473.769 517.728 473.719 517.011L482.812 517.222C482.812 517.222 485.273 518.417 485.254 519.204C485.254 519.622 485.238 520.025 485.238 520.408C485.238 521.456 485.238 522.368 485.288 523.155C485.401 525.709 485.763 528.816 485.763 528.816C485.763 528.816 486.681 531.015 483.115 531.629Z" fill="#F5C99D"/>
<path d="M485.287 523.152C478.367 524.322 474.454 520.465 473.583 519.478C473.457 519.336 473.394 519.255 473.394 519.255C473.466 519.22 473.545 519.188 473.626 519.157C476.212 518.179 482.12 518.701 485.338 519.968C485.331 521.013 485.25 522.365 485.287 523.152Z" fill="#D8A982"/>
<path d="M471.035 516.357C473.379 522.68 481.768 521.006 485.338 519.968C486.342 519.676 486.964 519.434 486.964 519.434C488.068 518.924 488.396 516.992 488.286 514.558C488.062 509.735 486.115 502.941 485.011 501.305C483.35 498.849 480.592 496.358 472.467 499.905C464.341 503.454 468.031 508.26 471.035 516.357Z" fill="#F5C99D"/>
<path d="M484.243 495.706C481.362 493.583 478.795 493.118 476.923 493.092C471.388 493.02 467.093 495.819 467.068 495.835C460.664 500.082 459.771 505.697 464.866 513.321C470.261 521.387 473.552 519.613 473.552 519.613C473.552 519.613 472.923 519.408 472.523 516.675C472.501 516.521 472.485 516.389 472.472 516.275C472.42 515.71 472.112 515.198 471.636 514.888C470.642 514.259 469.821 512.016 470.431 511.246C471.164 510.302 472.551 511.05 473.067 511.711C473.261 511.938 473.54 512.074 473.838 512.088C474.136 512.102 474.426 511.991 474.64 511.783C476.562 510.047 474.687 507.562 476.461 505.536C478.235 503.51 488.864 504.422 489.563 498.446C487.656 497.82 485.86 496.895 484.243 495.706Z" fill="#E65924"/>
<path d="M485.762 528.801C485.762 528.801 496.929 551.846 498.386 569.637C499.842 587.429 498.386 600.464 498.386 600.464C498.386 600.464 505.649 583.1 506.338 562.525C506.653 553.381 505.177 536.825 502.073 533.9C500.556 532.478 496.007 531.113 485.762 528.801Z" fill="#01644C"/>
<path d="M470.711 528.801C470.711 528.801 457.295 530.39 453.797 533.69C447.889 539.273 432.344 560.38 433.879 569.637C434.219 571.692 442.177 577.964 446.553 578.873C447.663 587.583 444.917 600.477 444.917 600.477L467.081 600.121C470.326 589.519 472.314 578.571 473.001 567.505C473.186 564.674 473.29 561.905 473.315 559.276C473.57 541.273 470.711 528.801 470.711 528.801Z" fill="#01644C"/>
<path d="M472.46 526.426C472.46 526.426 478.075 531.015 481.403 531.818C481.403 531.818 478.314 533.45 468.613 529.094C468.613 529.09 470.013 526.731 472.46 526.426Z" fill="#FD9C28"/>
<path d="M485.479 525.945C485.862 527.067 486.408 528.126 487.099 529.09C487.099 529.09 486.234 532.148 481.403 531.802C481.39 531.818 485.668 528.754 485.479 525.945Z" fill="#FD9C28"/>
<path d="M477.587 530.034L484.25 529.223C484.25 529.223 484.042 533.13 482.048 534.687C481.306 535.243 477.505 530.717 477.587 530.034Z" fill="#FD9C28"/>
<path d="M480.557 532.406C480.557 532.406 482.089 560.285 481.365 572.616C480.965 579.429 479.978 589.247 480.135 590.197C480.292 591.147 484.819 595.585 484.819 595.585C484.819 595.585 489.27 591.439 489.377 589.643C489.484 587.847 490.748 561.764 482.85 532.117C482.579 531.101 480.557 532.406 480.557 532.406Z" fill="#FD9C28"/>
<path d="M471.865 525.945C471.865 525.945 470.157 526.061 467.147 529.547C467.147 529.547 472.004 533.718 476.439 534.775C476.439 534.775 476.257 531.541 477.587 530.015L471.865 525.945Z" fill="#4AC195"/>
<path d="M485.479 525.945L483.145 529.405C483.145 529.405 485.52 531.185 486.313 533.324C486.313 533.324 487.945 530.663 487.801 529.26C487.801 529.267 486.703 526.376 485.479 525.945Z" fill="#4AC195"/>
<rect x="523.516" y="529.805" width="74.708" height="1.41867" fill="#002822"/>
<rect x="523.516" y="536.42" width="74.708" height="1.41867" fill="#002822"/>
<rect x="523.516" y="543.117" width="74.708" height="1.41867" fill="#002822"/>
<rect x="523.516" y="490.95" width="21.6229" height="21.6197" fill="white"/>
<rect x="569.253" y="507.842" width="28.971" height="2.49446" fill="#002822"/>
<rect x="562.943" y="513.683" width="35.281" height="2.49446" fill="#002822"/>
<rect x="452.202" y="408.104" width="56.3912" height="56.3912" fill="white"/>
<path d="M486.256 412.923C482.796 411.961 478.03 412.763 477.24 412.826C467.804 413.578 465.155 428.117 465.703 432.228C466.716 439.806 463.019 441.797 458.468 447.663C453.517 454.058 452.919 459.985 454.526 464.496H478.512C483.654 459.972 490.682 453.769 495.091 449.928C495.683 449.714 496.243 449.424 496.759 449.066C506.419 442.42 494.632 415.245 486.256 412.923Z" fill="#070707"/>
<path d="M487.005 447.45C487.045 447.45 483.082 449.853 479.943 449.205C476.993 448.598 473.991 444.606 474.033 444.593C475.244 444.279 476.357 442.911 475.873 435.657L476.436 435.732L485.894 436.991C485.894 436.991 485.866 439.944 486.036 442.712C486.174 445.037 486.457 447.232 487.005 447.45Z" fill="#F5C99D"/>
<path d="M485.894 436.991C485.894 436.991 485.866 439.944 486.036 442.712C480.799 442.895 477.734 438.309 476.436 435.732L485.894 436.991Z" fill="#D8A982"/>
<path d="M487.804 439.501C487.804 439.501 475.45 440.489 474.954 432.785C474.457 425.081 472.531 420.02 480.399 419.067C488.266 418.114 489.987 420.954 490.779 423.471C491.572 425.987 491.006 439.048 487.804 439.501Z" fill="#F5C99D"/>
<path d="M489.458 419.488C489.458 419.488 483.205 427.774 478.093 429.438C472.982 431.102 470.638 429.853 470.638 429.853C472.321 427.535 473.509 424.896 474.127 422.099C474.401 420.759 475.384 419.674 476.69 419.268C480.352 418.145 487.395 416.478 489.458 419.488Z" fill="#070707"/>
<path d="M484.536 419.938C484.536 419.938 487.643 421.867 488.852 423.537C490.019 425.147 491.172 429.35 490.915 431.174C490.915 431.174 493.236 422.521 490.151 419.221C486.867 415.729 484.536 419.938 484.536 419.938Z" fill="#070707"/>
<path d="M498.181 451.218C497.923 450.384 497.436 449.638 496.775 449.067C493.532 446.041 486.24 444.808 486.24 444.808C486.237 444.834 486.232 444.86 486.225 444.886C486.121 445.276 485.567 446.837 483.107 446.837C481.447 446.837 478.921 446.122 475.077 443.851L475.02 443.817C475.02 443.817 464.92 444.446 461.425 449.315C459.538 451.961 456.914 457.928 454.734 464.492H501.808C500.191 458.585 498.691 453.074 498.181 451.218Z" fill="#45391D"/>
<rect x="523.516" y="447.789" width="73.3271" height="1.41867" fill="#002822"/>
<rect x="523.516" y="454.408" width="73.3271" height="1.41867" fill="#002822"/>
<rect x="523.516" y="461.105" width="73.3271" height="1.41867" fill="#002822"/>
<rect x="523.516" y="408.938" width="21.6229" height="21.6197" fill="white"/>
<rect x="563.613" y="425.83" width="30.5689" height="2.49446" fill="#002822"/>
<rect x="556.954" y="431.671" width="37.2282" height="2.49446" fill="#002822"/>
<path d="M527.605 417.887L534.327 427.154L542.336 412.345L533.041 420.791L527.605 417.887Z" fill="#E65924"/>
<rect x="490.503" y="575.425" width="74.1984" height="1.24566" fill="#002822"/>
<rect x="490.503" y="581.374" width="74.1984" height="1.24566" fill="#002822"/>
<rect x="490.503" y="588.564" width="74.1984" height="1.24566" fill="#002822"/>
<path d="M459.632 578.08C460.63 576.674 461.674 574.208 460.891 572.472C460.163 570.874 458.732 571.613 457.745 572.538C456.289 573.915 455.464 575.809 454.841 577.678C454.047 579.963 453.504 582.327 453.221 584.73C453.023 586.655 452.907 589.625 454.134 591.27C455.187 592.666 456.883 591.521 458.05 590.864C461.74 588.797 464.813 585.491 465.665 581.257C465.776 580.713 465.103 580.213 464.672 580.678C463.8 581.571 463.286 582.752 463.224 583.997C463.202 584.695 463.269 585.803 464.108 586.004C465.1 586.24 465.867 584.868 466.311 584.211C467.149 582.892 467.705 581.414 467.946 579.87L466.801 579.556C466.638 580.678 466.839 582.682 468.506 582.336C470.079 582.021 470.214 579.294 470.265 578.077C470.293 577.42 469.23 577.256 469.097 577.92C468.861 578.997 468.91 580.117 469.239 581.169C469.429 581.694 469.662 582.204 469.934 582.692C470.179 583.092 470.39 583.513 470.563 583.95C470.934 584.862 470.613 585.246 469.601 585.111C469.484 585.403 469.365 585.692 469.245 585.985C472.045 584.881 475.086 583.371 475.244 579.974C475.278 579.209 474.089 579.209 474.055 579.974C473.929 582.761 471.174 583.956 468.931 584.837C468.756 584.891 468.615 585.021 468.546 585.19C468.477 585.359 468.487 585.551 468.575 585.711C469.226 586.995 471.016 586.866 471.62 585.589C472.023 584.746 471.831 583.821 471.453 583.006C470.699 581.367 469.856 580.134 470.23 578.231L469.063 578.071C469.052 578.708 468.965 579.342 468.802 579.958C468.752 580.182 468.678 580.399 468.582 580.606C468.396 581.345 468.179 581.097 467.933 579.854C468.044 579.112 466.915 578.782 466.788 579.54C466.572 580.983 466.056 582.366 465.273 583.598C464.904 584.16 464.36 585.287 464.413 583.981C464.467 583.049 464.86 582.168 465.518 581.506L464.524 580.927C463.964 583.705 462.406 586.054 460.262 587.875C459.239 588.747 457.912 589.826 456.616 590.269C456.112 590.439 455.301 590.483 454.86 590.052C454.684 589.882 454.621 589.216 454.571 588.976C454.378 588.033 454.295 587.07 454.326 586.108C454.391 583.075 455.238 579.898 456.311 577.074C456.823 575.718 457.522 574.368 458.588 573.362C459.938 572.103 459.944 574.113 459.748 575.038C459.538 575.917 459.148 576.742 458.603 577.464C458.16 578.093 459.189 578.684 459.629 578.064L459.632 578.08Z" fill="#002822"/>
<path d="M593.713 612.065C593.499 614.975 589.394 615.006 584.736 614.469C580.077 613.931 581.316 615.098 574.792 615.195C568.268 615.293 566.019 613.131 565.704 612.201C565.425 611.373 568.564 610.675 571.926 609.857C572.348 609.756 572.773 609.649 573.185 609.542C576.959 608.58 579.475 605.743 582.725 603.251C585.799 600.905 589.759 592.411 589.759 592.411L598.67 592.012C598.67 592.012 594.918 599.621 593.509 602.902C592.678 604.833 593.031 607.205 593.392 609.023C593.634 610.018 593.742 611.042 593.713 612.065Z" fill="#F5C99D"/>
<path d="M584.736 614.469C580.077 613.928 581.316 615.098 574.792 615.195C568.268 615.292 566.019 613.132 565.704 612.201C565.425 611.374 568.564 610.675 571.926 609.857L571.964 609.92C574.942 611.344 578.249 611.936 581.536 611.634C585.915 611.194 590.385 609.366 593.405 609.039C593.643 610.03 593.749 611.047 593.719 612.065C593.499 614.966 589.394 615.006 584.736 614.469Z" fill="#002822"/>
<path d="M655.257 612.669C655.046 615.579 650.941 615.617 646.282 615.079C641.623 614.541 642.862 615.708 636.339 615.818C629.815 615.928 627.566 613.764 627.248 612.829C626.965 612.002 630.108 611.304 633.467 610.483C633.889 610.382 634.313 610.272 634.725 610.169C638.516 609.202 641.016 606.362 644.259 603.877C647.33 601.527 644.259 587.621 644.259 587.621L654.061 586.677C654.061 586.677 653.592 598.388 653.599 603.714C653.599 605.812 654.568 607.834 654.929 609.652C655.173 610.639 655.283 611.653 655.257 612.669Z" fill="#F5C99D"/>
<path d="M646.282 615.079C641.621 614.544 642.862 615.708 636.339 615.818C629.815 615.928 627.566 613.764 627.248 612.83C626.965 612.002 630.108 611.304 633.467 610.483L633.508 610.546C636.486 611.967 639.794 612.556 643.08 612.248C647.458 611.807 651.925 609.974 654.945 609.643C655.185 610.633 655.291 611.651 655.259 612.669C655.046 615.594 650.937 615.617 646.282 615.079Z" fill="#002822"/>
<path d="M626.654 372.298C624.964 365.359 627.412 362.125 629.617 360.405C630.665 357.85 631.86 356.001 633.077 355.315C635.304 354.057 637.975 353.912 639.841 354.022C639.43 353.68 638.939 353.447 638.415 353.346C639.573 353.173 642.159 354.321 642.159 354.321C658.264 348.115 660.792 371.829 660.456 377.341C660.12 382.852 660.164 389.335 668.544 393.676C684.53 401.958 663.231 433.169 663.231 433.169C663.637 428.718 643.099 405.223 632.379 398.187C629.768 394.346 628.84 387.561 628.771 387.029C629.224 392.408 630.142 395.425 630.972 397.123C626.088 392.628 625.361 381.833 626.654 372.298Z" fill="#070707"/>
<path d="M633.008 398.548C632.954 398.57 638.182 401.285 642.13 400.209C645.826 399.202 648.245 394.405 648.195 394.393C646.622 394.078 646.175 391.93 646.21 382.679L645.498 382.82L633.593 385.176C633.593 385.176 633.863 388.926 633.873 392.455C633.873 395.403 633.693 398.234 633.008 398.548Z" fill="#F5C99D"/>
<path d="M633.586 385.167C633.586 385.167 633.857 388.916 633.867 392.445C640.529 392.257 644.052 386.18 645.505 382.811L633.586 385.167Z" fill="#D8A982"/>
<path d="M585.139 597.145C584.863 598.011 585.005 598.956 585.524 599.702C586.043 600.447 586.879 600.909 587.787 600.951L592.439 601.169L597.359 601.32C598.59 601.359 599.768 600.821 600.545 599.866C604.474 595.047 616.569 578.982 623.905 555.642C624.115 554.988 624.333 554.325 624.559 553.654C629.403 539.528 639.448 521.799 644.738 505.747C645.581 503.193 646.336 500.786 647.016 498.512C647.232 497.782 647.447 497.065 647.644 496.36C651.545 482.809 652.677 473.91 653.712 464.404L615.496 464.719C615.496 464.719 607.454 527.241 585.139 597.145Z" fill="#BDA24D"/>
<path d="M620.851 442.747C620.945 460.932 618.183 468.736 618.183 468.736C618.183 468.736 634.54 477.047 653.993 470.938C654.222 470.866 667.909 466.99 667.909 466.99C667.594 466.254 664.88 454.093 664.562 453.41C660.454 444.603 659.337 440.891 658.849 438.18C657.947 433.118 657.925 427.884 658.375 422.945C659.147 414.832 660.727 406.816 663.093 399.017C657.793 397.812 652.832 395.692 647.315 393.625C646.057 395.198 642.169 396.856 638.803 396.771C634.93 396.686 633.672 395.028 633.874 393.216C629.746 395.516 626.453 397.683 626.453 397.683C622.943 403.779 615.828 409.696 615.311 419.048C615.185 421.344 620.848 442.237 620.851 442.747Z" fill="white"/>
<path d="M653.719 444.789C655.388 447.154 658.591 461.523 666.559 463.348C662.469 453.105 659.324 448.614 658.849 445.465C657.946 439.586 657.924 433.512 658.374 427.765C655.707 423.09 653.719 419.901 653.719 419.901C653.508 419.146 649.478 406.689 648.185 417.821C646.892 428.954 651.85 442.128 653.719 444.789Z" fill="#5F9AA8"/>
<path d="M631.363 388.511C631.363 388.511 647.126 388.772 647.138 378.951C647.15 369.13 649.189 362.55 639.126 361.965C629.063 361.38 627.1 365.129 626.298 368.407C625.496 371.685 627.261 388.19 631.363 388.511Z" fill="#F5C99D"/>
<path d="M631.945 361.745C631.945 361.745 636.261 373.264 642.885 374.956C649.51 376.649 652.385 374.884 652.385 374.884C652.385 374.884 647.301 370.848 646.248 363.802C646.248 363.799 635.21 356.243 631.945 361.745Z" fill="#070707"/>
<path d="M633.008 362.663C633.008 362.663 629.783 365.236 628.997 367.737C628.21 370.238 627.859 375.384 626.358 375.211C626.358 375.211 623.106 367.378 626.761 362.943C630.642 358.253 633.008 362.663 633.008 362.663Z" fill="#070707"/>
<path d="M606.557 455.367L599.108 478.072L603.357 479.774L615.669 459.717L606.557 455.367Z" fill="#F5C99D"/>
<path d="M626.632 396.346C626.632 396.346 617.853 399.832 615.308 405.264C612.763 410.697 608.919 447.132 607.387 450.875C605.855 454.618 604.701 457.582 604.701 457.582C604.701 457.582 609.127 461.309 613.581 461.583C618.035 461.856 626.632 396.346 626.632 396.346Z" fill="#FD9C28"/>
<path d="M633.873 393.216C633.873 393.216 624.75 415.752 624.484 420.313C624.216 424.874 623.411 494.886 623.411 494.886C623.411 494.886 623.949 498.104 617.78 496.773C611.612 495.442 609.998 494.09 609.998 494.09C609.998 494.09 615.902 450.9 614.292 435.896C612.681 420.892 626.632 396.346 626.632 396.346L633.873 393.216Z" fill="#FD9C28"/>
<path d="M592.43 601.169L597.777 601.333C598.731 601.364 599.646 600.951 600.253 600.216C603.845 595.865 616.374 579.581 623.898 555.643C624.108 554.988 624.326 554.326 624.553 553.655C629.397 539.528 639.441 521.799 644.732 505.747C645.575 503.193 646.33 500.787 647.009 498.512C647.227 497.783 647.44 497.065 647.638 496.361L642.011 492.089C642.011 492.089 625.113 519.456 619.881 545.199C615.346 567.565 597.148 594.478 592.43 601.169Z" fill="#847D3D"/>
<path d="M641.432 547.596C641.341 559.442 641.9 585.843 643.344 598.75C643.475 599.932 644.474 600.825 645.663 600.823H649.652C651.331 600.823 652.59 600.823 653.426 600.801C654.15 600.787 654.766 600.271 654.907 599.562C658.871 579.382 661.709 562.616 663.788 548.131C665.528 536.008 667.072 525.612 668.26 516.675C669.457 507.672 670.287 500.129 670.586 493.759C670.629 492.756 670.664 491.781 670.683 490.834C670.702 489.887 670.708 488.946 670.702 488.056L637.673 484.838C638.091 506.757 641.501 540.317 641.432 547.596Z" fill="#BDA24D"/>
<path d="M649.651 600.81C651.161 600.81 652.328 600.81 653.156 600.791C654.035 600.777 654.784 600.151 654.955 599.288C658.893 579.225 661.715 562.541 663.784 548.118C665.524 535.995 667.068 525.599 668.258 516.662C669.452 507.66 670.283 500.116 670.582 493.747L658.466 500.875C658.466 500.875 666.197 503.602 663.247 524.256C660.296 544.91 653.769 597.901 649.651 600.81Z" fill="#847D3D"/>
<path d="M648.106 493.545C648.106 493.545 650.431 501.95 658.487 500.878C666.543 499.805 677.99 494.977 677.99 494.977C677.99 494.977 674.552 484.108 670.274 469.834C665.096 452.548 658.688 430.268 655.668 416.217C654.819 412.278 654.24 408.982 654.026 406.632L647.348 393.679C647.348 393.679 637.396 416.012 636.858 421.656C636.32 427.299 648.106 493.545 648.106 493.545Z" fill="#FD9C28"/>
<path d="M656.125 420.813L647.317 393.676C647.343 393.676 658.447 396.982 664.033 399.803C664.033 399.803 667.525 404.305 669.695 414.691C669.695 414.691 671.979 439.624 666.864 448.746C666.864 448.746 650.771 451.964 625.027 443.112V437.211C625.027 437.211 653.194 438.686 658.962 439.356L656.125 420.813Z" fill="#F5C99D"/>
<path d="M648.447 433.464C648.808 442.586 650.963 460.29 670.088 469.768L670.24 469.84C665.062 452.555 658.654 430.275 655.634 416.223C652.121 421.464 648.251 428.431 648.447 433.464Z" fill="#E65924"/>
<path d="M647.314 393.676C647.314 393.676 663.65 394.827 667.584 403.591C671.519 412.354 672.768 441.501 667.764 450.086C667.764 450.086 660.869 452.052 648.676 449.771L648.226 449.683C648.226 449.683 644.335 440.161 647.823 438.283C647.823 438.283 658.107 438.821 657.031 435.424C655.955 432.027 647.314 393.676 647.314 393.676Z" fill="#FD9C28"/>
<path d="M606.362 440.856L606.84 442.404L633.644 434.065C633.857 433.8 633.925 433.447 633.826 433.121C633.758 432.799 633.49 432.558 633.162 432.524L606.362 440.856Z" fill="#002822"/>
<path d="M604.421 442.319L606.362 440.857L606.84 442.404L604.421 442.319Z" fill="#002822"/>
<path d="M600.167 477.449C600.167 477.449 593.366 481.224 592.474 484.071C591.58 486.917 592.193 492.928 593.272 492.838C594.351 492.746 595.962 486.395 596.855 485.948C597.749 485.502 599.004 484.162 599.004 485.143C599.004 486.125 598.11 487.918 598.557 488.185C599.004 488.453 600.444 485.669 601.42 485.143C602.395 484.618 602.817 480.183 603.772 478.997C604.729 477.811 600.167 477.449 600.167 477.449Z" fill="#F5C99D"/>
<path d="M625.021 437.211C625.021 437.211 618.941 433.464 616.39 434.043C613.839 434.622 607.336 439.328 610.463 440.334C613.59 441.341 616.125 440.284 617.327 441.023C618.529 441.762 619.416 443.118 625.021 443.099C630.626 443.08 625.021 437.211 625.021 437.211Z" fill="#F5C99D"/>
<rect x="295.375" y="475.663" width="107.815" height="128.558" fill="#01644C"/>
<rect x="381.162" y="568.444" width="26.1745" height="32.5192" transform="rotate(154.28 381.162 568.444)" fill="#B0C3F4"/>
<path d="M403.193 542.686V580.238L398.522 577.539L393.093 574.406L388.717 571.88L387.359 571.097L384.562 569.483L386.323 566.432L396.134 549.439L400.825 541.321L403.193 542.686Z" fill="#002822"/>
<rect x="388.822" y="567.401" width="26.1745" height="32.5192" transform="rotate(112.21 388.822 567.401)" fill="#002822"/>
<rect x="358.97" y="581.244" width="26.1745" height="32.5192" transform="rotate(144.21 358.97 581.244)" fill="#B0C3F4"/>
<path d="M403.193 560.358V593.811L398.051 597.907L383.75 579.939L383.156 579.197L381.838 577.539L381.75 577.426L386.229 573.862L386.232 573.859L388.717 571.88L401.894 561.393L403.193 560.358Z" fill="#002822"/>
<path d="M403.194 564.089V569.54L393.093 574.406L386.591 577.539L384.276 578.656L383.156 579.197L381.747 579.873L380.624 577.539L377.189 570.417L372.562 560.814L367.629 550.575L371.584 548.672L391.209 539.216L396.135 549.439L401.895 561.393L403.194 564.089Z" fill="#002822"/>
<rect x="318.725" y="577.539" width="84.4656" height="26.5268" fill="#002822"/>
<rect x="373.763" y="604.223" width="104.767" height="128.558" transform="rotate(180 373.763 604.223)" fill="url(#paint7_linear_3_3084)"/>
<rect x="331.433" y="568.448" width="26.1745" height="32.5192" transform="rotate(154.28 331.433 568.448)" fill="#01483F"/>
<rect x="349.691" y="585.176" width="26.1745" height="32.5192" transform="rotate(-141.06 349.691 585.176)" fill="#01483F"/>
<rect x="339.097" y="567.402" width="26.1745" height="32.5192" transform="rotate(112.21 339.097 567.402)" fill="#01483F"/>
<rect x="309.237" y="581.243" width="26.1745" height="32.5192" transform="rotate(144.21 309.237 581.243)" fill="#01483F"/>
<rect x="348.332" y="597.909" width="26.1745" height="32.5192" transform="rotate(-128.52 348.332 597.909)" fill="#01483F"/>
<rect x="355.618" y="568.446" width="26.1745" height="32.5192" transform="rotate(154.28 355.618 568.446)" fill="#01483F"/>
<rect x="373.763" y="604.066" width="104.767" height="26.5268" transform="rotate(180 373.763 604.066)" fill="#01483F"/>
<path d="M373.767 547.621L367.629 550.575L373.764 563.305L373.767 547.621Z" fill="#01483F"/>
<rect x="268.996" y="475.663" width="104.767" height="22.3117" fill="#FD9C28"/>
<rect x="373.763" y="475.663" width="29.8046" height="22.3117" fill="#E65924"/>
<path d="M298.436 481.976H300.788L303.321 488.799L305.837 481.976H308.136L304.217 491.727H302.33L298.436 481.976Z" fill="white"/>
<path d="M308.596 486.82C308.596 484.068 310.77 481.809 313.758 481.809C316.746 481.809 318.891 484.039 318.891 486.82C318.891 489.601 316.718 491.831 313.73 491.831C310.741 491.831 308.596 489.604 308.596 486.82ZM316.664 486.82C316.692 486.023 316.395 485.25 315.842 484.676C315.288 484.102 314.527 483.777 313.73 483.775C312.015 483.775 310.823 485.131 310.823 486.82C310.796 487.617 311.093 488.39 311.646 488.964C312.199 489.538 312.961 489.863 313.758 489.865C315.472 489.865 316.664 488.512 316.664 486.82Z" fill="white"/>
<path d="M322.632 483.942H319.681V481.976H327.709V483.942H324.761V491.658H322.632V483.942Z" fill="white"/>
<path d="M329.344 481.976H336.651V483.863H331.461V485.829H336.028V487.717H331.461V489.771H336.72V491.658H329.344V481.976Z" fill="white"/>
<rect x="368.45" y="604.066" width="5.31606" height="11.1291" fill="#070707"/>
<rect x="397.89" y="604.066" width="5.31606" height="11.1291" fill="#070707"/>
<rect x="269.002" y="604.066" width="5.31606" height="11.1291" fill="#070707"/>
<rect x="346.562" y="461.63" width="36.9199" height="48.5995" transform="rotate(175.29 346.562 461.63)" fill="#01483F"/>
<rect x="344.759" y="460.073" width="33.5447" height="45.2872" transform="rotate(175.29 344.759 460.073)" fill="url(#paint8_linear_3_3084)"/>
<rect x="329.582" y="437.619" width="17.4864" height="1" transform="rotate(175.29 329.582 437.619)" fill="#002822"/>
<rect x="329.69" y="438.954" width="17.4864" height="1" transform="rotate(175.29 329.69 438.954)" fill="#002822"/>
<rect x="329.788" y="440.323" width="17.4864" height="1" transform="rotate(175.29 329.788 440.323)" fill="#002822"/>
<rect x="321.569" y="433.89" width="9.41478" height="1" transform="rotate(175.29 321.569 433.89)" fill="#002822"/>
<rect x="323.611" y="435.367" width="11.4657" height="1" transform="rotate(175.29 323.611 435.367)" fill="#002822"/>
<rect x="341.178" y="439.405" width="8.0433" height="8.0433" transform="rotate(175.29 341.178 439.405)" fill="white"/>
<path d="M339.118 434.663L337.206 437.818L334.242 433.273L337.448 435.739L339.118 434.663Z" fill="#E65924"/>
<rect x="330.875" y="453.545" width="17.4864" height="1" transform="rotate(175.29 330.875 453.545)" fill="#002822"/>
<rect x="330.983" y="454.877" width="17.4864" height="1" transform="rotate(175.29 330.983 454.877)" fill="#002822"/>
<rect x="331.096" y="456.231" width="17.4864" height="1" transform="rotate(175.29 331.096 456.231)" fill="#002822"/>
<rect x="322.88" y="449.791" width="9.41478" height="1" transform="rotate(175.29 322.88 449.791)" fill="#002822"/>
<rect x="324.91" y="451.281" width="11.4657" height="1" transform="rotate(175.29 324.91 451.281)" fill="#002822"/>
<rect x="342.496" y="455.297" width="8.0433" height="8.0433" transform="rotate(175.29 342.496 455.297)" fill="white"/>
<path d="M340.42 450.576L338.505 453.731L335.541 449.186L338.75 451.655L340.42 450.576Z" fill="#E65924"/>
<rect x="327.952" y="424.706" width="17.4864" height="1" transform="rotate(175.29 327.952 424.706)" fill="#002822"/>
<rect x="328.063" y="426.041" width="17.4864" height="1" transform="rotate(175.29 328.063 426.041)" fill="#002822"/>
<rect x="328.176" y="427.391" width="17.4864" height="1" transform="rotate(175.29 328.176 427.391)" fill="#002822"/>
<rect x="319.951" y="420.967" width="9.41478" height="1" transform="rotate(175.29 319.951 420.967)" fill="#002822"/>
<rect x="322" y="422.432" width="11.4657" height="1" transform="rotate(175.29 322 422.432)" fill="#002822"/>
<rect x="339.557" y="426.48" width="8.0433" height="8.0433" transform="rotate(175.29 339.557 426.48)" fill="white"/>
<path d="M337.498 421.737L335.585 424.892L332.622 420.347L335.83 422.813L337.498 421.737Z" fill="#E65924"/>
<path d="M302.843 422.949C303.472 422.499 303.975 421.498 304.629 420.747C305.05 420.322 305.525 419.955 306.042 419.655C306.042 419.655 306.136 420.957 306.234 422.008C308.168 421.288 311.075 420.621 315.714 421.514C316.648 421.682 317.474 422.224 317.998 423.015C318.47 423.754 318.646 424.673 317.463 425.409C315.095 426.884 315.78 426 312.49 428.145C309.2 430.29 305.17 430.835 302.764 429.331L299.53 428.793L299.131 423.477C299.131 423.477 300.971 423.263 302.843 422.949Z" fill="#F5C99D"/>
<path d="M218.182 378.379C218.182 378.379 225.8 387.416 235.483 383.635C235.483 383.635 237.568 378.602 237.6 374.868C237.6 374.409 237.6 373.965 237.6 373.544C237.65 369.354 237.792 367.004 237.792 367.004C237.351 366.819 222.963 360.911 222.976 361.402C223.246 372.732 218.182 378.379 218.182 378.379Z" fill="#F5C99D"/>
<path d="M224.441 364.104C225.832 366.677 230.591 371.707 237.631 373.541C237.681 369.351 237.823 367.001 237.823 367.001C237.417 366.897 224.029 363.346 224.441 364.104Z" fill="#D8A982"/>
<path d="M240.836 366.57C240.836 366.57 224.659 370.373 222.444 360.26C220.23 350.147 216.653 343.83 226.889 340.974C237.124 338.118 239.984 341.537 241.541 344.749C243.098 347.96 244.988 365.318 240.836 366.57Z" fill="#F5C99D"/>
<path d="M222.998 363.003C222.778 363.145 219.295 364.214 212.702 351.081C211.667 349.021 210.963 344.56 213.375 340.619C215.788 336.678 224.341 333.579 231.45 332.233C238.559 330.886 240.257 334.881 241.934 338.901C243.693 343.12 248.766 346.593 248.766 346.593C242.639 350.018 235.241 345.12 232.699 345.925C230.157 346.731 229.239 350.76 229.047 352.053C228.855 353.346 228.559 354.419 225.344 353.264C222.129 352.11 223.891 357.822 224.401 358.927C224.394 358.914 224.841 361.836 222.998 363.003Z" fill="#E65924"/>
<path d="M181.322 615.176H171.526C169.472 615.176 167.188 613.122 166.619 609.357C166.05 605.592 161.825 603.538 160.913 600.455C160.001 597.372 164.688 593.034 164.688 593.034L165.471 592.028L166.286 590.98L174.046 592.805C174.046 592.805 174.238 594.654 174.361 597.007C174.442 598.706 174.489 600.672 174.392 602.396C174.162 606.504 175.543 610.93 179.192 611.729C182.841 612.528 181.322 615.176 181.322 615.176Z" fill="#002822"/>
<path d="M249.518 615.176H223.552C223.362 615.147 223.177 615.094 223.001 615.019C221.268 614.151 221.809 607.513 222.02 605.463C222.057 605.082 222.086 604.859 222.086 604.859C222.086 604.859 231.208 597.555 232.466 603.148C232.504 603.324 232.551 603.493 232.598 603.663C234.171 608.894 241.271 611.269 245.363 611.933C248.499 612.449 249.311 614.267 249.518 615.176Z" fill="#002822"/>
<path d="M244.284 465.433C244.284 465.433 242.9 482.734 241.271 503.533C239.053 531.784 236.389 566.486 236.128 573.051C235.672 584.466 233.841 602.726 233.841 602.726C233.841 602.726 229.506 607.064 220.83 605.243C220.83 605.243 213.099 579.175 210.891 551.594L210.787 550.232C208.733 522.155 205.54 463.033 205.54 463.033L244.284 465.433Z" fill="#FD9C28"/>
<path d="M244.284 465.433C244.284 465.433 242.9 482.734 241.271 503.532L210.891 551.597L210.787 550.235C208.733 522.158 205.54 463.036 205.54 463.036L244.284 465.433Z" fill="#ED7D2B"/>
<path d="M237.952 467.487C237.952 467.487 212.957 530.147 196.521 559.594C180.086 589.039 174.952 597.259 174.952 597.259C174.952 597.259 165.534 593.484 164.678 590.924C164.678 590.924 170.97 534.073 181.979 520.217C188.198 512.388 195.505 488.887 195.845 480.67C196.185 472.454 198.072 456.188 198.072 456.188L237.952 467.487Z" fill="#FD9C28"/>
<path d="M180.951 456.113L180.686 460.145C180.686 460.145 183.344 467.305 175.896 470.975C175.896 470.975 172.709 472.262 172.58 469.78C172.451 467.298 172.857 468.233 172.599 464.747C172.341 461.262 173.712 457.95 176.025 456.836L177.912 454.634L180.951 456.113Z" fill="#D8A982"/>
<path d="M178.041 459.035C180.809 459.925 181.252 459.724 181.252 459.724C181.252 459.724 194.715 435.207 196.081 432.964C197.446 430.721 224.671 405.472 224.671 405.472L217.675 379.363C217.675 379.363 186.707 419.463 183.363 425.217C177.836 434.726 174.599 456.811 174.599 456.811C175.537 457.835 176.722 458.601 178.041 459.035Z" fill="#002822"/>
<path d="M249.559 415.714C249.462 421.061 249.15 427.095 248.732 433.213C248.704 433.578 248.679 433.939 248.653 434.301C248.386 438.076 247.235 451.31 247.175 451.844C245.81 465.719 244.379 476.694 244.111 476.849C243.802 477.066 243.423 477.162 243.048 477.119C239.408 476.663 228.553 477.49 219.664 475.546C212.164 473.973 205.707 470.966 198.865 466.921C197.956 466.383 195.886 464.961 196.053 463.898C196.219 462.731 196.525 461.042 196.915 458.922C198.261 451.539 200.589 438.843 201.384 423.987C201.536 421.218 201.759 418.492 202.054 415.808C202.738 409.203 203.95 402.663 205.678 396.252C208.726 385.28 213.206 376.878 218.821 373.603C219.557 373.191 223.507 375.705 227.134 378.033C230.192 379.993 233.827 380.854 237.439 380.474L240.459 383.814C244.114 388.064 248.009 393.72 249.072 401.763C249.151 402.356 249.22 402.985 249.276 403.651C249.577 407.664 249.671 411.691 249.559 415.714Z" fill="#01483F"/>
<path d="M249.559 415.714C249.462 421.061 249.15 427.095 248.732 433.213C248.704 433.578 248.679 433.939 248.653 434.301C227.87 421.291 224.668 397.498 224.668 397.498C234.894 397.945 243.016 400.294 249.276 403.657C249.576 407.669 249.671 411.693 249.559 415.714Z" fill="#002822"/>
<path d="M302.091 425.962C302.305 422.879 300.71 422.367 300.71 422.367C300.71 422.367 269.374 416.704 266.71 415.849C264.045 414.993 241.268 391.313 241.268 391.313C241.268 391.313 232.536 381.465 225.386 383.641C219.173 385.529 216.745 390.376 215.917 394.994C214.953 400.502 217.458 406.04 222.234 408.951C232.929 415.509 254.338 428.434 259.38 429.913C270.601 433.203 300.751 430.177 300.751 430.177C301.516 428.894 301.975 427.452 302.091 425.962Z" fill="#01483F"/>
<path d="M307.728 383.339H279.899V355.513H307.728V383.339ZM281.056 382.185H306.57V356.671H281.056V382.185Z" fill="#002822"/>
<path d="M284.563 366.123L293.613 378.599L304.396 358.659L291.883 370.033L284.563 366.123Z" fill="#E65924"/>
<path d="M348.787 349.7H320.964V321.871H348.79L348.787 349.7ZM322.119 348.542H347.633V323.028H322.119V348.542Z" fill="#002822"/>
<path d="M325.626 332.481L334.676 344.957L345.456 325.017L332.946 336.391L325.626 332.481Z" fill="#E65924"/>
<path d="M777.011 439.158C777.011 439.158 776.382 432.81 779.691 433.03C783 433.251 783.887 434.77 783.515 435.987C783.145 437.205 779.917 441.243 779.917 441.243L777.011 439.158Z" fill="#D8A982"/>
<path d="M771.823 472.898C766.032 473.13 754.428 469.73 750.049 467.931C746.324 466.406 742.707 464.626 739.226 462.605C738.402 462.123 737.615 461.647 736.866 461.177C728.967 456.195 725.291 451.876 725.291 451.876C725.291 451.876 740.097 439.076 746.07 442.439C753.076 446.374 765.158 459.082 767.199 457.777C769.496 456.307 775.906 438.296 775.906 438.296C780.128 437.491 781.043 440.683 781.043 440.683C781.043 440.683 780.043 472.567 771.823 472.898Z" fill="#97C157"/>
<path d="M747.369 607.416C747.369 607.416 746.763 614.437 748.247 615.167L767.24 615.129C767.24 615.129 767.24 612.927 764.189 612.449C761.138 611.971 755.778 610.178 754.871 606.199C753.966 602.22 747.369 607.416 747.369 607.416Z" fill="#002822"/>
<path d="M761.313 522.431C761.219 527.024 760.999 531.758 760.565 536.014C758.514 556.208 757.794 580.609 757.498 585.315C756.989 593.494 755.375 606.526 755.375 606.526C755.375 606.526 752.176 609.564 745.938 608.099C745.938 608.099 740.77 589.307 739.615 569.524C739.615 569.21 739.581 568.873 739.565 568.546C739.43 565.932 739.288 562.94 739.146 559.713C738.203 538.112 737.165 506.021 737.165 506.021L760.999 500.425C760.999 500.425 761.546 510.988 761.313 522.431Z" fill="#01483F"/>
<path d="M761.313 522.431C755.271 532.852 743.758 552.053 739.146 559.729C738.203 538.128 737.165 506.036 737.165 506.036L760.999 500.44C760.999 500.44 761.546 510.988 761.313 522.431Z" fill="#002822"/>
<path d="M711.601 519.025C711.601 519.025 710.119 524.825 710.361 526.115C710.603 527.404 712.05 531.777 712.95 532.853C713.85 533.928 713.894 528.134 714.485 527.235C715.076 526.335 714.759 529.399 715.24 529.65C715.721 529.902 716.52 527.323 716.876 526.407C717.231 525.492 715.595 522.318 715.445 520.031C715.293 517.744 711.601 519.025 711.601 519.025Z" fill="#F5C99D"/>
<path d="M700.053 599.426C700.053 599.426 696.674 602.512 697.332 604.704C697.989 606.897 701.044 608.36 701.456 611.036C701.868 613.713 703.516 615.176 705.001 615.176H712.075C712.075 615.176 713.17 613.289 710.531 612.726C707.892 612.163 706.898 609.008 707.071 606.085C707.141 603.809 707.058 601.531 706.825 599.266L701.217 597.966L700.053 599.426Z" fill="#002822"/>
<path d="M757.258 506.524C757.258 506.524 734.924 554.256 723.056 575.208C711.188 596.161 707.473 602 707.473 602C707.473 602 700.672 599.319 700.053 597.495C700.053 597.495 704.595 557.058 712.543 547.2C717.038 541.629 722.314 524.913 722.562 519.069C722.811 513.224 728.023 499.27 728.023 499.27L757.258 506.524Z" fill="#01483F"/>
<path d="M761.398 504.042C761.398 504.042 754.136 511.859 741.789 514.221C736.372 515.259 725.375 516.26 722.645 512.403C722.015 511.497 722 510.157 722.141 508.062C722.509 502.62 723.877 492.101 717.7 470.944C717.151 469.092 716.754 467.198 716.511 465.282C715.161 454.467 719.722 446.792 725.079 443.366C738.14 435.012 744.522 440.781 744.522 440.781C744.522 440.781 751.999 444.276 755.415 454.461C762.248 474.857 761.398 504.042 761.398 504.042Z" fill="#97C157"/>
<path d="M728.968 441.209C728.968 441.209 736.445 443.634 743.264 440.832C743.264 440.832 744.582 440.143 743.503 438.661C743.582 437.883 743.619 437.1 743.614 436.318C743.67 435.06 743.658 433.799 743.576 432.543L738.543 429.271L733.778 426.126C735.02 436.038 728.968 441.209 728.968 441.209Z" fill="#F5C99D"/>
<path d="M734.042 429.938C734.042 429.938 737.618 435.285 743.613 436.317C743.695 433.898 743.538 431.426 743.538 431.426L738.549 429.271L734.042 429.938Z" fill="#D8A982"/>
<path d="M748.039 431.262C748.039 431.262 735.935 435.78 733.255 428.321C730.575 420.863 727.187 416.425 734.799 413.222C742.411 410.02 744.95 412.332 746.466 414.604C747.983 416.875 751.119 429.904 748.039 431.262Z" fill="#F5C99D"/>
<path d="M725.702 414.072C725.563 413.965 725.281 413.911 724.692 413.993C724.986 413.738 725.338 413.559 725.718 413.471C725.68 412.637 725.828 411.118 727.155 410.492C726.748 410.853 726.528 411.38 726.558 411.923C727.844 409.945 731.068 408.051 740.801 406.915C753.631 405.418 751.068 414.327 749.608 415.616C748.148 416.906 743.525 415.072 740.524 415.931C737.524 416.789 737.815 421.278 736.904 422.102C735.991 422.927 736.183 421.762 734.66 421.404C733.139 421.045 733.462 423.392 734.164 424.82C734.865 426.248 733.336 428.614 733.336 428.614L730.98 426.906C728.625 425.198 725.044 416.702 725.554 414.638C725.61 414.44 725.655 414.257 725.702 414.072Z" fill="#070707"/>
<path d="M722.142 508.062C722.51 502.62 723.878 492.101 717.7 470.944C717.152 469.092 716.754 467.198 716.511 465.282C721.103 463.766 729.468 467.135 729.468 467.135C729.468 467.135 731.434 495.118 722.142 508.062Z" fill="#679B40"/>
<path d="M725.627 443.049C725.627 443.049 716.15 448.419 712.906 460.394C710.252 470.208 706.143 484.804 705.65 489.368C705.155 493.932 710.66 520.657 710.66 520.657C710.66 520.657 711.437 521.224 713.34 520.843C714.393 520.65 715.34 520.084 716.008 519.248C716.008 519.248 717.322 501.435 716.983 493.026C716.842 489.532 733.161 467.434 741.966 464.587C745.425 463.47 725.627 443.049 725.627 443.049Z" fill="#97C157"/>
<path d="M732.192 436.692C732.192 436.692 730.619 437.465 727.54 441.549C727.54 441.549 733.255 448.714 741.503 447.78C741.503 447.78 740.487 444.065 740.54 441.706C740.54 441.706 733.642 440.938 732.192 436.692Z" fill="#679B40"/>
<path d="M740.541 441.706C740.541 441.706 744.944 442.857 746.004 446.025C746.004 446.025 746.948 443.301 746.114 441.762C745.281 440.224 743.503 438.661 743.503 438.661C743.503 438.661 744.104 440.605 740.541 441.706Z" fill="#679B40"/>
<path d="M801.181 424.028C789.389 423.923 777.613 424.928 766.01 427.032L764.041 422.071L761.883 416.636C761.883 416.636 780.797 408.492 792.168 397.152L801.181 424.028Z" fill="#847D3D"/>
<path d="M791.911 396.881L801.285 424.562C801.942 424.368 802.49 423.912 802.8 423.302C803.11 422.691 803.156 421.98 802.927 421.335L794.692 398.076C794.502 397.537 794.095 397.102 793.57 396.875C793.046 396.649 792.45 396.651 791.927 396.881H791.911Z" fill="#FD9C28"/>
<path d="M801.181 424.027C789.389 423.923 777.614 424.928 766.01 427.032L764.041 422.071C781.745 418.447 801.181 424.027 801.181 424.027Z" fill="#45391D"/>
<path d="M771.219 426.028L766.117 426.924C766.192 426.924 761.376 427.869 759.798 423.593C759.65 423.302 759.545 422.992 759.483 422.672C758.256 417.349 761.178 416.381 761.178 416.381L767.744 413.823L769.841 421.196V421.222L771.219 426.028Z" fill="#FD9C28"/>
<path d="M771.219 426.028L766.117 426.925C766.193 426.925 761.377 427.868 759.798 423.594C762.685 421.492 769.842 421.193 769.842 421.193V421.219L771.219 426.028Z" fill="#E65924"/>
<path d="M782.963 444.619C781.133 444.979 779.356 443.794 778.986 441.967L775.759 425.814C775.398 423.985 776.583 422.208 778.411 421.838C780.239 421.479 782.015 422.663 782.386 424.49L785.614 440.642C785.973 442.471 784.788 444.247 782.963 444.619Z" fill="#45391D"/>
<path d="M782.525 428.979C782.525 428.979 780.031 429.973 780.486 431.071C780.942 432.168 784.12 433.681 784.62 432.816C785.12 431.951 784.098 428.051 782.525 428.979Z" fill="#D8A982"/>
<path d="M776.96 438.158C776.726 436.926 776.56 435.683 776.46 434.433C776.432 433.26 776.092 432.373 776.369 432.338C776.646 432.304 776.797 432.511 776.91 432.889L777.703 435.544L777.485 437.802L776.96 438.158Z" fill="#D8A982"/>
<rect y="615.233" width="882.026" height="1.88736" fill="#070707"/>
<defs>
<linearGradient id="paint0_linear_3_3084" x1="670.283" y1="298.421" x2="606.692" y2="298.421" gradientUnits="userSpaceOnUse">
<stop offset="1" stop-color="#022B1D"/>
<stop stop-color="#214A35"/>
</linearGradient>
<linearGradient id="paint1_linear_3_3084" x1="721.792" y1="312.941" x2="603.414" y2="312.941" gradientUnits="userSpaceOnUse">
<stop offset="1" stop-color="#022B1D"/>
<stop stop-color="#214A35"/>
</linearGradient>
<linearGradient id="paint2_linear_3_3084" x1="618.61" y1="297.889" x2="599.271" y2="297.889" gradientUnits="userSpaceOnUse">
<stop offset="1" stop-color="#022B1D"/>
<stop stop-color="#214A35"/>
</linearGradient>
<linearGradient id="paint3_linear_3_3084" x1="452.973" y1="432.917" x2="361.039" y2="432.917" gradientUnits="userSpaceOnUse">
<stop offset="1" stop-color="#022B1D"/>
<stop stop-color="#214A35"/>
</linearGradient>
<linearGradient id="paint4_linear_3_3084" x1="714.504" y1="447.11" x2="639.783" y2="447.11" gradientUnits="userSpaceOnUse">
<stop offset="1" stop-color="#022B1D"/>
<stop stop-color="#214A35"/>
</linearGradient>
<linearGradient id="paint5_linear_3_3084" x1="515.796" y1="339.845" x2="369.699" y2="339.845" gradientUnits="userSpaceOnUse">
<stop offset="1" stop-color="#022B1D"/>
<stop stop-color="#214A35"/>
</linearGradient>
<linearGradient id="paint6_linear_3_3084" x1="652.769" y1="458.661" x2="437.506" y2="458.661" gradientUnits="userSpaceOnUse">
<stop offset="1" stop-color="#217B4F"/>
<stop stop-color="#CBCE55"/>
</linearGradient>
<linearGradient id="paint7_linear_3_3084" x1="478.53" y1="668.504" x2="373.763" y2="668.504" gradientUnits="userSpaceOnUse">
<stop offset="1" stop-color="#277455"/>
<stop stop-color="#3E815B"/>
</linearGradient>
<linearGradient id="paint8_linear_3_3084" x1="380.11" y1="482.715" x2="342.957" y2="482.715" gradientUnits="userSpaceOnUse">
<stop offset="1" stop-color="#217B4F"/>
<stop stop-color="#CBCE55"/>
</linearGradient>
</defs>
</svg>
