<svg width="471" height="202" viewBox="0 0 471 202" fill="none" xmlns="http://www.w3.org/2000/svg">
<path d="M470.156 67.2346L426.716 191.291L423.716 199.869C423.313 201.009 422.242 201.777 421.033 201.793H212.608C211.692 201.775 210.84 201.323 210.31 200.575C209.781 199.828 209.638 198.873 209.925 198.004L256.355 65.3497C256.759 64.2064 257.835 63.4379 259.048 63.4264L467.472 63.4263C468.393 63.4423 469.25 63.8967 469.781 64.6493C470.311 65.4019 470.45 66.3623 470.156 67.2346Z" fill="#004600"/>
<path d="M414.378 201.764H205.953C205.036 201.749 204.18 201.299 203.649 200.551C203.117 199.803 202.973 198.846 203.261 197.975L249.7 65.3209C250.089 64.1699 251.169 63.3957 252.383 63.3975L460.808 63.3976C461.722 63.4165 462.572 63.8668 463.101 64.6119C463.63 65.3569 463.775 66.3084 463.492 67.1769L417.062 199.841C416.658 200.981 415.587 201.748 414.378 201.764Z" fill="#E4FFD2"/>
<path d="M212.454 188.127L254.143 68.783H457.307L415.609 188.127H212.454Z" fill="#94C358"/>
<path d="M426.736 191.32L423.735 199.898C423.333 201.038 422.261 201.806 421.052 201.822H374.469V191.339L426.736 191.32Z" fill="#004600"/>
<path d="M130.769 191.32H378.325C379.053 191.32 379.642 191.91 379.642 192.638V200.495C379.642 201.222 379.053 201.812 378.325 201.812H126.029C125.301 201.812 124.711 201.222 124.711 200.495V197.379C124.708 195.771 125.346 194.229 126.482 193.092C127.619 191.955 129.162 191.318 130.769 191.32Z" fill="#E4FFD2"/>
<path d="M155.302 190.397V191.358H150.965V190.397C150.965 190.105 150.728 189.868 150.436 189.868H154.773C155.065 189.868 155.302 190.105 155.302 190.397Z" fill="#E7F6F6"/>
<path d="M150.964 190.397V191.358H142.685V190.397C142.685 190.105 142.921 189.868 143.213 189.868H150.436C150.728 189.868 150.964 190.105 150.964 190.397Z" fill="#004600"/>
<path d="M169.265 190.397V191.358H164.928V190.397C164.928 190.105 164.691 189.868 164.399 189.868H168.746C169.034 189.873 169.265 190.108 169.265 190.397Z" fill="#E7F6F6"/>
<path d="M164.928 190.397V191.358H156.658V190.397C156.658 190.105 156.895 189.868 157.187 189.868H164.399C164.692 189.868 164.928 190.105 164.928 190.397Z" fill="#004600"/>
<path d="M183.239 190.397V191.358H178.892V190.397C178.892 190.105 178.655 189.868 178.363 189.868H182.71C183.002 189.868 183.239 190.105 183.239 190.397Z" fill="#E7F6F6"/>
<path d="M178.892 190.397V191.358H170.621V190.397C170.621 190.105 170.858 189.868 171.15 189.868H178.363C178.655 189.868 178.892 190.105 178.892 190.397Z" fill="#004600"/>
<path d="M197.202 190.397V191.358H192.855V190.397C192.855 190.108 192.624 189.873 192.336 189.868H196.673C196.965 189.868 197.202 190.105 197.202 190.397Z" fill="#E7F6F6"/>
<path d="M192.855 190.397V191.358H184.585V190.397C184.585 190.105 184.822 189.868 185.114 189.868H192.336C192.624 189.873 192.855 190.108 192.855 190.397Z" fill="#004600"/>
<path d="M322.374 189.868H199.087C198.793 189.868 198.554 190.103 198.548 190.397L198.548 191.358H322.874V190.397C322.875 190.116 322.655 189.883 322.374 189.868Z" fill="#004600"/>
<path d="M322.874 190.397V191.358H318.527V190.397C318.527 190.108 318.297 189.873 318.008 189.868H322.345C322.637 189.868 322.874 190.105 322.874 190.397Z" fill="#E7F6F6"/>
<path d="M336.867 190.397V191.358H332.491V190.397C332.491 190.105 332.254 189.868 331.962 189.868H336.338C336.63 189.868 336.867 190.105 336.867 190.397Z" fill="#E7F6F6"/>
<path d="M332.491 190.397V191.358H324.211V190.397C324.211 190.105 324.448 189.868 324.74 189.868H331.962C332.254 189.868 332.491 190.105 332.491 190.397Z" fill="#004600"/>
<path d="M350.831 190.397V191.358H346.493V190.397C346.493 190.105 346.257 189.868 345.964 189.868H350.311C350.6 189.873 350.831 190.108 350.831 190.397Z" fill="#E7F6F6"/>
<path d="M346.493 190.397V191.358H338.261V190.397C338.261 190.105 338.498 189.868 338.79 189.868H346.003C346.28 189.888 346.494 190.119 346.493 190.397Z" fill="#004600"/>
<path d="M364.804 190.397V191.358H360.457V190.397C360.457 190.108 360.226 189.873 359.937 189.868H364.275C364.567 189.868 364.804 190.105 364.804 190.397Z" fill="#E7F6F6"/>
<path d="M360.457 190.397V191.358H352.186V190.397C352.186 190.105 352.423 189.868 352.715 189.868H359.938C360.226 189.873 360.457 190.108 360.457 190.397Z" fill="#004600"/>
<path d="M378.767 190.397V191.358H374.43V190.397C374.43 190.105 374.193 189.868 373.901 189.868H378.238C378.53 189.868 378.767 190.105 378.767 190.397Z" fill="#E7F6F6"/>
<path d="M374.43 190.397V191.358H366.15V190.397C366.15 190.105 366.387 189.868 366.679 189.868H373.901C374.193 189.868 374.43 190.105 374.43 190.397Z" fill="#004600"/>
<path d="M359.745 156.959C358.218 156.976 356.711 156.602 355.369 155.872L355.235 155.805L355.1 155.719C354.831 155.555 354.552 155.363 354.283 155.161C346.589 149.198 350.888 132.879 358.13 120.233C361.297 114.642 365.299 109.567 369.997 105.182C373.228 102.249 378.094 98.7584 382.97 98.7584C384.56 98.7403 386.126 99.1451 387.509 99.9316C389.884 101.307 393.654 105.105 392.192 115.097C391.288 121.262 388.576 128.484 384.566 135.447C381.419 141.039 377.441 146.12 372.766 150.516C369.496 153.459 364.621 156.959 359.745 156.959Z" fill="#E7F6F6"/>
<path d="M9.71326 3.68652C9.71326 2.02967 11.0564 0.686523 12.7133 0.686523H113.229C114.886 0.686523 116.229 2.02967 116.229 3.68652V175.03C116.229 176.687 114.886 178.03 113.229 178.03H12.7133C11.0564 178.03 9.71326 176.687 9.71326 175.03V3.68652Z" fill="#94C358"/>
<path d="M110.536 7.93762V5.49487H91.6195V15.3713H110.536V12.9287H112.815V7.93762H110.536Z" fill="#E4FFD2"/>
<rect x="92.4558" y="6.13916" width="14.0408" height="8.58779" fill="#004600"/>
<rect x="27.1678" y="5.49487" width="3.69285" height="9.87644" fill="#E7F6F6"/>
<rect x="21.8978" y="8.12012" width="3.69285" height="7.25106" fill="#E7F6F6"/>
<rect x="16.6278" y="10.8418" width="3.69285" height="4.52951" fill="#E7F6F6"/>
<circle cx="73.3377" cy="189.091" r="7.49148" transform="rotate(-80.7798 73.3377 189.091)" fill="#004600"/>
<path d="M0.0965576 19.7844C0.0965576 19.1051 0.647247 18.5544 1.32656 18.5544H3.15565C3.83496 18.5544 4.38565 19.1051 4.38565 19.7844V37.9428C4.38565 38.6221 3.83496 39.1728 3.15565 39.1728H1.32656C0.647248 39.1728 0.0965576 38.6221 0.0965576 37.9428V19.7844Z" fill="#E4FFD2"/>
<path d="M0.0965576 43.0957C0.0965576 42.4164 0.647247 41.8657 1.32656 41.8657H3.15565C3.83496 41.8657 4.38565 42.4164 4.38565 43.0957V61.2541C4.38565 61.9334 3.83496 62.4841 3.15565 62.4841H1.32656C0.647248 62.4841 0.0965576 61.9334 0.0965576 61.2541V43.0957Z" fill="#E4FFD2"/>
<path d="M77.4445 129.273C83.307 127.948 89.0151 126.014 94.4757 123.503L95.2068 123.137C98.4282 121.493 102.65 117.838 106.449 114.146C113.615 107.216 122.397 102.185 132 99.5089L165.245 92.3635C166.051 92.1868 166.773 91.7428 167.294 91.1039C167.663 90.6522 167.917 90.1174 168.034 89.5458C169.102 84.2181 165.207 81.8524 159.86 80.8138L134.433 77.0345C127.721 76.0342 120.989 75.3419 114.238 74.9573C114.238 74.8418 114.238 74.7264 114.238 74.611C114.819 66.1262 120.374 58.7925 128.385 55.9352L155.09 44.5392L172.497 53.5215L179.065 59.984C180.589 61.4817 182.646 62.3112 184.782 62.2896C186.918 62.2679 188.958 61.3968 190.451 59.8685C191.191 59.0862 191.237 57.8764 190.557 57.0413L179.863 44.4337L164.39 30.9702C161.568 28.682 158.03 27.4598 154.398 27.5176C147.339 27.6331 134.376 28.0946 119.277 29.816C103.967 31.5664 91.9272 33.5474 79.079 49.2035C64.798 66.6003 46.478 91.1807 41.3716 97.8163L77.4445 129.273Z" fill="#FC9B78"/>
<path d="M86.1378 47.8952C96.2258 35.3261 123.701 30.3639 133.635 29.9505C140.367 29.6619 154.706 34.7589 163.188 38.0189C167.398 39.6399 170.676 43.041 172.141 47.3088L176.382 59.6374C176.681 60.511 176.572 61.4728 176.083 62.2563C175.594 63.0397 174.779 63.5615 173.862 63.6765C169.731 64.2003 165.719 62.0611 163.851 58.3391L160.005 50.7324L132.462 49.6263L108.17 70.0139L86.1378 47.8952Z" fill="#FEC2A0"/>
<path d="M80.6371 47.2702C90.7251 34.7109 118.2 29.7486 128.135 29.3255C134.866 29.0465 149.205 34.1338 157.687 37.3939C161.899 39.018 165.177 42.4226 166.64 46.6933L170.881 59.0124C171.181 59.8856 171.072 60.8469 170.586 61.6315C170.099 62.416 169.286 62.9408 168.371 63.0612C164.236 63.5789 160.223 61.4373 158.35 57.7141L154.504 50.1073L126.884 49.0014L102.65 69.3986L80.6371 47.2702Z" fill="#FEC2A0"/>
<path d="M169.006 53.8096C168.894 53.812 168.793 53.7421 168.756 53.6365L166.39 46.7797C164.951 42.584 161.729 39.2395 157.591 37.6439C149.503 34.5088 134.924 29.306 128.144 29.5945C127.999 29.5945 127.88 29.4798 127.875 29.3348C127.869 29.2652 127.893 29.1966 127.941 29.1454C127.988 29.0944 128.055 29.0654 128.125 29.0657C134.991 28.7771 149.657 33.9991 157.783 37.1437C162.071 38.7961 165.408 42.2602 166.9 46.6068L169.256 53.4634C169.3 53.6013 169.228 53.7502 169.092 53.8L169.006 53.8096Z" fill="#FC9B78"/>
<path d="M80.1273 47.9721C92.8889 36.0185 112.507 38.2111 121.479 37.8265C127.567 37.5764 140.482 42.1444 148.118 45.1065C151.917 46.5666 154.874 49.6334 156.196 53.4826L160.043 64.5996C160.313 65.3872 160.214 66.2544 159.774 66.961C159.334 67.6678 158.599 68.139 157.773 68.2444C154.048 68.7177 150.43 66.7909 148.743 63.4359L145.3 56.5792L120.393 55.6175L98.5436 74.0145C98.5436 74.0145 72.6552 54.9732 80.1273 47.9721Z" fill="#FEC2A0"/>
<path d="M112.267 62.3202C101.313 79.4574 106.872 90.286 99.6783 102.365C92.485 114.443 77.4154 129.234 77.4154 129.234L41.3333 97.8063L79.0406 49.1935C82.7325 44.3725 88.3619 41.424 94.4271 41.1347C98.5275 40.8832 102.572 42.1843 105.756 44.7793C109.487 47.8181 114.854 58.3485 112.267 62.3202Z" fill="#FEC2A0"/>
<path d="M158.11 59.3488C157.996 59.3522 157.891 59.2826 157.85 59.1757L155.927 53.569C154.631 49.7918 151.729 46.7817 148.003 45.3467C140.713 42.5291 127.567 37.836 121.47 38.0957C120.095 38.1534 118.508 38.1534 116.662 38.1534C109.805 38.1534 100.419 38.1534 91.6579 41.3077C91.5204 41.3528 91.3713 41.2805 91.3216 41.1442C91.297 41.0793 91.2993 41.0071 91.3282 40.9438C91.357 40.8805 91.4102 40.8314 91.4754 40.8077C100.284 37.5957 109.747 37.6053 116.623 37.615C118.45 37.615 120.037 37.615 121.432 37.615C127.625 37.3457 140.848 42.0675 148.176 44.9044C152.048 46.3932 155.063 49.52 156.408 53.4441L158.331 59.0508C158.376 59.1888 158.304 59.3376 158.168 59.3874L158.11 59.3488Z" fill="#FC9B78"/>
<path d="M51.883 167.009C44.8146 167.009 35.2169 161.797 26.8792 153.411C16.9452 143.476 12.9829 133.437 16.3008 126.551C16.8059 125.482 17.4887 124.506 18.3205 123.666C20.5692 121.487 23.6046 120.311 26.7346 120.406C33.2262 120.406 40.9003 124.512 48.3438 131.946C52.9478 136.444 56.7525 141.693 59.5954 147.467C62.3266 153.382 62.7594 158.431 60.865 162.075C60.5935 162.593 60.2713 163.083 59.9033 163.537C59.6984 163.792 59.4801 164.036 59.2489 164.268C57.2681 166.145 54.6085 167.134 51.883 167.009Z" fill="#E7F6F6"/>
<path d="M41.362 97.845L21.167 126.455C20.6368 126.983 20.2012 127.598 19.8782 128.273C17.5412 133.148 20.6572 141.534 29.697 150.583C40.0061 160.883 52.1041 165.788 56.4797 161.412C56.6048 161.287 56.7201 161.152 56.8356 161.018C57.035 160.761 57.2123 160.487 57.3645 160.2L77.4924 129.263L41.362 97.845Z" fill="#FEC2A0"/>
<path d="M258.807 100.451C258.807 100.451 253.037 98.2394 245.873 95.4023C242.293 93.9714 240.223 90.2103 240.93 86.4202C241.353 84.1121 241.488 83.5352 241.488 83.5352C241.488 83.5352 254.191 86.8049 262.221 86.0259C266.395 93.5272 258.807 100.451 258.807 100.451Z" fill="#FC9B78"/>
<path d="M234.64 90.5841C237.832 91.8102 241.414 90.2174 242.641 87.0259L246.392 77.2744L275.242 85.8334L282.772 67.5615L242.324 57.6562L232.476 86.0258C231.838 87.8809 232.799 89.9062 234.64 90.5841Z" fill="#FC9B78"/>
<path d="M281.147 53.1843C281.147 53.1843 248.2 45.3853 240.824 48.3183C237.727 49.5493 225.822 67.3594 221.59 73.8605C221.19 74.4711 221.062 75.2203 221.235 75.9294C221.408 76.6384 221.868 77.2438 222.504 77.6014C225.801 79.4384 229.918 78.8613 232.582 76.1878C236.112 72.6296 241.237 67.6 246.046 63.3494C249.892 65.0805 264.962 70.6293 264.962 70.6293L281.147 53.1843Z" fill="#FC9B78"/>
<path d="M290.735 47.1933C290.735 47.1933 255.624 36.961 248.248 39.9037C245.151 41.1346 233.246 58.9354 229.014 65.446C228.619 66.0611 228.498 66.8135 228.68 67.5218C228.863 68.2301 229.332 68.8301 229.976 69.1772C233.271 71.0248 237.394 70.4463 240.055 67.7637C243.584 64.2151 248.709 59.1855 253.518 54.9347C263.385 59.5797 273.828 64.5516 273.828 64.5516L290.735 47.1933Z" fill="#FEC2A0"/>
<path d="M243.488 96.3064L249.008 101.269C249.724 101.916 250.687 102.218 251.644 102.096C252.602 101.974 253.459 101.44 253.989 100.634C255.545 98.285 255.328 95.1846 253.46 93.0751L244.286 82.7371C243.351 83.7112 242.534 84.7927 241.853 85.9589C239.869 89.3581 240.553 93.684 243.488 96.3064Z" fill="#FC9B78"/>
<path d="M258.807 100.451L263.529 67.0713C263.529 67.0713 283.647 47.8377 290.735 47.1934C317.749 59.9164 351.821 84.6989 351.821 84.6989L325.692 131.34C282.147 125.426 283.003 109.443 258.807 100.451Z" fill="#FEC2A0"/>
<path d="M161.499 131.2C160.935 128.661 162.537 126.145 165.076 125.581L252.474 106.174C255.014 105.61 257.529 107.211 258.093 109.751L270.886 167.36C271.45 169.9 269.849 172.415 267.309 172.979L179.911 192.387C177.372 192.951 174.856 191.349 174.292 188.81L161.499 131.2Z" fill="#D98977"/>
<path d="M260.529 61.5611L273.396 119.521C273.938 121.965 272.397 124.385 269.953 124.926L265.145 126.003C267.585 125.458 269.125 123.041 268.588 120.599L255.72 62.6381C255.175 60.1976 252.758 58.6582 250.316 59.1952L255.124 58.1181C257.567 57.5752 259.988 59.1171 260.529 61.5611Z" fill="#D85E5B"/>
<path d="M211.858 89.8728C217.513 88.6129 220.359 84.4006 219.302 79.7077C218.34 75.284 214.012 72.976 208.367 74.2261C202.722 75.4763 199.876 79.6981 200.856 84.1218C201.837 88.5455 206.213 91.171 211.858 89.8728Z" fill="#F7E7E4"/>
<path d="M227.139 122.089L221.619 97.4315L220.225 91.1516L204.847 94.5847L200.02 95.6619L201.424 101.942L206.242 100.865L211.762 125.532L208.54 126.243L209.944 132.523L213.166 131.802L228.543 128.369L231.765 127.647L230.361 121.368L227.139 122.089Z" fill="#F7E7E4"/>
<path d="M237.458 76.1688C237.301 74.8021 238.182 73.5309 239.516 73.197L273.714 64.5901C273.714 64.5901 296.524 66.2251 313.691 69.9082C323.307 71.976 351.821 84.6893 351.821 84.6893L330.818 122.195C330.818 122.195 312.267 116.223 295.14 95.7871L273.608 84.9969L248.287 85.6317C242.767 85.7697 238.061 81.6573 237.458 76.1688Z" fill="#FEC2A0"/>
<path d="M378.834 132.061C371.045 145.525 360.351 154.026 354.985 150.949L354.485 150.612L325.711 131.379L351.83 84.7373L383.258 102.047C388.605 105.105 386.634 118.559 378.834 132.061Z" fill="#FEC2A0"/>
<path d="M322.875 118.886C322.834 118.9 322.79 118.9 322.75 118.886C312.119 113.091 302.695 105.315 294.986 95.9792L273.56 85.2372L248.316 85.872C242.649 86.0396 237.809 81.8156 237.208 76.1782C237.046 74.6807 238.009 73.2917 239.468 72.9181L273.665 64.311H273.752C273.915 64.311 290.158 65.5035 305.372 68.052C305.506 68.0877 305.591 68.2192 305.568 68.3558C305.546 68.4924 305.423 68.5898 305.285 68.581C290.476 66.0998 274.694 64.917 273.752 64.8496L239.603 73.4373C238.4 73.7496 237.607 74.8946 237.737 76.1302C238.304 81.4989 242.92 85.5191 248.316 85.343L273.637 84.7178C273.677 84.7046 273.721 84.7046 273.762 84.7177L295.294 95.5079C295.327 95.5242 295.356 95.547 295.38 95.5751C303.074 104.861 312.471 112.591 323.067 118.348C323.169 118.409 323.219 118.529 323.19 118.644C323.161 118.759 323.06 118.842 322.942 118.848L322.875 118.886Z" fill="#FC9B78"/>
</svg>
