<svg width="766" height="481" viewBox="0 0 766 481" fill="none" xmlns="http://www.w3.org/2000/svg">
<path opacity="0.3" d="M0.907959 179.152C30.2045 206.193 139.702 229.445 156.584 229.445C243.762 229.445 301.778 108.809 425.484 108.809C533.842 108.809 562.389 189.08 570.217 202.433C578.044 215.786 608.434 300.16 629.154 318.523C649.874 336.886 723.324 385.91 755.776 451.993C764.094 468.941 688.478 459.604 688.478 474.031L0.907959 451.993V179.152Z" fill="#94C358"/>
<path opacity="0.8" d="M747.083 86.6986C746.271 83.2001 744.081 80.1775 741.009 78.3171C737.937 76.4566 734.244 75.9158 730.767 76.8175C726.618 67.9543 716.564 63.5131 707.218 66.4145C702.418 58.4525 693.472 53.9561 684.219 54.8559C674.966 55.7557 667.053 61.8916 663.878 70.6291C658.751 67.7782 652.498 67.8533 647.441 70.8265C642.384 73.7997 639.279 79.2271 639.277 85.0932C639.277 85.6365 639.308 86.1706 639.357 86.6986H747.083Z" fill="#C1D7F2"/>
<path opacity="0.8" d="M724.518 207.498C723.599 203.543 720.074 200.744 716.015 200.744C715.274 200.744 714.535 200.838 713.815 201.023C711.094 195.205 704.494 192.291 698.361 194.2C695.213 188.975 689.343 186.024 683.272 186.614C677.2 187.204 672.008 191.23 669.924 196.963C666.562 195.09 662.46 195.137 659.142 197.087C655.824 199.036 653.785 202.596 653.784 206.445C653.784 206.801 653.806 207.154 653.836 207.501L724.518 207.498Z" fill="#C1D7F2"/>
<path opacity="0.8" d="M227.548 77.99C227.019 75.6927 225.583 73.7075 223.566 72.4862C221.55 71.265 219.125 70.9117 216.844 71.5069C214.125 65.6873 207.525 62.7713 201.392 64.68C198.242 59.4574 192.373 56.5082 186.303 57.0979C180.232 57.6876 175.04 61.7115 172.955 67.4427C169.591 65.5729 165.489 65.6228 162.172 67.5738C158.855 69.5248 156.818 73.0856 156.818 76.934C156.818 77.287 156.836 77.64 156.867 77.9869L227.548 77.99Z" fill="#C1D7F2"/>
<path opacity="0.8" d="M430.493 29.7232C429.76 26.5539 427.778 23.8154 424.995 22.1298C422.213 20.4442 418.868 19.9546 415.719 20.7722C411.961 12.7402 402.85 8.71621 394.382 11.3484C390.033 4.14284 381.932 0.0751495 373.555 0.890182C365.178 1.70522 358.013 7.25815 355.134 15.167C350.491 12.5844 344.827 12.6523 340.247 15.3456C335.667 18.0388 332.855 22.955 332.855 28.2682C332.855 28.7593 332.879 29.2443 332.925 29.7232H430.493Z" fill="#C1D7F2"/>
<path d="M639.339 429.079C638.228 430.159 637.295 432.296 636.309 434.558C635.491 436.532 634.552 438.453 633.497 440.31H604.336C605.128 439.813 605.935 439.347 606.77 438.923C608.559 438.042 610.39 437.252 612.258 436.556C614.751 435.583 617.106 434.665 618.312 433.459C619.411 432.36 620.335 430.245 621.311 428.008C622.741 424.729 624.522 420.64 627.948 417.325C632.576 412.834 638.461 411.336 643.191 410.13C646.5 409.286 649.637 408.491 651.086 407.023C651.872 406.232 652.664 404.752 653.505 403.183C654.036 402.198 654.583 401.176 655.234 400.114C660.704 391.251 669.776 385.223 680.067 383.615C680.644 383.529 681.184 383.461 681.706 383.394C682.544 383.289 690.261 381.717 692.833 383.486C697.668 386.807 697.496 394.067 692.446 397.056C691.852 397.407 691.237 397.722 690.605 397.999C688.069 399.104 685.663 399.404 683.732 399.647C683.296 399.7 682.881 399.752 682.504 399.807C677.006 400.704 672.16 403.923 669.203 408.644C668.792 409.32 668.372 410.102 667.929 410.928L667.496 411.732L660.286 411.972L665.504 415.106C664.683 416.349 663.743 417.511 662.699 418.575C658.051 423.247 652.056 424.775 647.24 426.003C643.943 426.844 640.843 427.627 639.339 429.079Z" fill="#C59ED1"/>
<path d="M635.259 403.822C634.126 405.491 633.5 408.46 632.84 411.603C631.852 416.287 630.734 421.595 627.413 426.644C623.729 432.24 618.511 435.635 614.303 438.361C613.277 439.027 612.289 439.669 611.374 440.307H584.282C587.079 434.341 591.201 429.092 596.333 424.959C598.38 423.365 600.505 421.875 602.703 420.496C605.625 418.602 608.381 416.812 609.603 414.971C610.711 413.282 611.331 410.344 611.985 407.235C612.943 402.68 614.134 397.013 617.63 391.887C622.342 384.946 629.448 381.484 635.158 378.687C639.148 376.741 642.921 374.903 644.397 372.646C645.192 371.418 645.813 369.337 646.472 367.121C646.887 365.724 647.314 364.278 647.863 362.75C650.411 355.731 654.624 349.437 660.141 344.406L665.022 352.111L662.873 342.088C666.592 339.16 670.744 336.829 675.18 335.178C675.892 334.917 676.561 334.687 677.208 334.469C678.249 334.113 687.67 330.074 691.415 331.649C696.32 333.715 698.922 339.108 697.486 344.234L687.79 345.053L695.157 348.393C694.951 348.617 694.736 348.835 694.506 349.044C693.842 349.65 693.141 350.214 692.406 350.732C689.469 352.81 686.482 353.826 684.085 354.643C683.541 354.827 683.029 355.002 682.574 355.171C675.802 357.76 670.473 363.142 667.951 369.939C667.604 370.909 667.275 372.014 666.929 373.184C666.354 375.228 665.677 377.242 664.899 379.218L653.922 381.33L663.092 382.951C662.833 383.405 662.557 383.872 662.263 384.308C657.572 391.488 650.334 395.015 644.52 397.848C640.53 399.751 636.781 401.574 635.259 403.822Z" fill="#B786C6"/>
<path d="M643.467 341.441C643.676 344.934 643.931 349.179 643.16 353.719C637.518 356.893 626.505 363.097 627.76 362.431C628.939 361.817 637.058 359.92 641.816 358.849C638.982 366.848 633.35 372.662 628.718 377.463C625.136 381.165 621.753 384.661 620.973 387.731C620.396 390.015 620.893 393.523 621.421 397.247C622.204 402.772 623.094 409.049 621.461 415.925C619.656 423.532 615.27 429.343 611.746 434.009C610.309 435.912 608.952 437.692 607.927 439.39C607.74 439.697 607.562 440.004 607.387 440.335H580.893C582.109 435.442 584.058 430.761 586.673 426.451C588.285 423.885 590.027 421.402 591.892 419.013C594.347 415.769 596.655 412.702 597.254 410.182C597.8 407.883 597.306 404.414 596.787 400.74C596.023 395.359 595.075 388.661 596.858 381.628C599.265 372.131 605.68 365.498 610.837 360.169C614.444 356.439 617.851 352.918 618.573 349.852C618.959 348.2 618.806 345.655 618.643 342.96C618.542 341.26 618.438 339.501 618.428 337.607C618.364 322.974 624.568 308.58 635.127 298.506L639.99 300.655L637.589 296.308C638.203 295.795 638.78 295.329 639.345 294.875C640.345 294.073 649.072 285.884 653.812 286.12C662.714 286.562 668.282 296.093 664.129 303.982C663.643 304.912 663.098 305.81 662.499 306.671C660.101 310.124 657.228 312.43 654.923 314.281C654.401 314.701 653.91 315.097 653.477 315.463C647.172 320.798 643.277 329.242 643.314 337.499C643.302 338.675 643.381 340.019 643.467 341.441Z" fill="#9E5DB2"/>
<path d="M256.295 435.485C257.523 436.406 258.723 438.426 259.979 440.547C261.033 442.405 262.201 444.196 263.478 445.91L292.428 442.309C291.58 441.916 290.721 441.554 289.84 441.235C287.957 440.581 286.042 440.023 284.103 439.561C281.509 438.905 279.059 438.285 277.712 437.238C276.484 436.28 275.312 434.297 274.065 432.198C272.242 429.128 269.97 425.291 266.161 422.415C261.013 418.528 254.987 417.767 250.147 417.153C246.77 416.726 243.562 416.321 241.929 415.045C241.051 414.354 240.088 412.985 239.053 411.533C238.405 410.612 237.736 409.673 236.959 408.697C230.438 400.576 220.691 395.714 210.281 395.387C209.695 395.387 209.155 395.387 208.627 395.387C207.783 395.387 199.931 394.773 197.598 396.848C193.205 400.74 194.273 407.926 199.654 410.268C200.288 410.543 200.938 410.78 201.6 410.977C204.253 411.76 206.675 411.763 208.621 411.763C209.063 411.763 209.477 411.763 209.849 411.763C215.416 411.975 220.624 414.573 224.141 418.894C224.632 419.508 225.145 420.235 225.676 421.003L226.204 421.745L233.387 421.095L228.622 424.843C229.591 425.975 230.668 427.012 231.836 427.937C237.024 432.001 243.163 432.778 248.105 433.401C251.457 433.828 254.631 434.23 256.295 435.485Z" fill="#C59ED1"/>
<path d="M257.237 409.915C258.567 411.431 259.552 414.298 260.599 417.337C262.155 421.862 263.917 426.991 267.84 431.602C272.177 436.7 277.786 439.423 282.292 441.609C283.391 442.143 284.441 442.662 285.438 443.177L312.325 439.837C308.815 434.257 304.077 429.553 298.472 426.082C296.244 424.752 293.95 423.536 291.599 422.439C288.468 420.904 285.509 419.483 284.069 417.791C282.758 416.256 281.782 413.411 280.751 410.406C279.238 406.007 277.353 400.528 273.255 395.859C267.73 389.551 260.243 386.991 254.223 384.934C250.018 383.497 246.049 382.138 244.308 380.078C243.369 378.97 242.494 376.968 241.567 374.86C240.984 373.524 240.379 372.14 239.649 370.694C236.261 364.045 231.31 358.316 225.221 354.001L221.329 362.25L222.225 352.037C218.174 349.59 213.767 347.789 209.161 346.699C208.421 346.527 207.731 346.392 207.061 346.244C205.984 346.02 196.137 343.175 192.616 345.198C188.002 347.853 186.085 353.528 188.143 358.437L197.865 358.053L190.977 362.277C191.21 362.471 191.449 362.661 191.701 362.842C192.435 363.36 193.201 363.833 193.994 364.257C197.168 365.958 200.256 366.596 202.736 367.112C203.295 367.228 203.826 367.336 204.299 367.447C211.34 369.177 217.295 373.857 220.641 380.29C221.105 381.211 221.562 382.266 222.057 383.384C222.879 385.343 223.801 387.259 224.819 389.124L235.971 389.864L227.069 392.605C227.376 393.023 227.714 393.44 228.061 393.833C233.601 400.38 241.217 402.987 247.338 405.083C251.506 406.526 255.448 407.877 257.237 409.915Z" fill="#B786C6"/>
<path d="M241.395 349.026C241.619 352.516 241.893 356.761 243.237 361.154C249.226 363.609 260.921 368.407 259.595 367.907C258.349 367.431 250.058 366.565 245.205 366.087C249.002 373.678 255.31 378.761 260.501 382.945C264.513 386.174 268.3 389.228 269.452 392.178C270.305 394.373 270.247 397.916 270.179 401.666C270.084 407.253 269.976 413.586 272.444 420.207C275.17 427.534 280.241 432.759 284.315 436.955C285.975 438.665 287.544 440.283 288.769 441.823C288.993 442.109 289.208 442.401 289.419 442.695L315.702 439.429C313.891 434.725 311.38 430.32 308.255 426.365C306.339 424.013 304.305 421.759 302.162 419.612C299.331 416.695 296.655 413.939 295.749 411.511C294.926 409.298 294.988 405.792 295.049 402.081C295.144 396.648 295.261 389.885 292.624 383.126C289.063 373.997 281.881 368.205 276.1 363.554C272.061 360.297 268.245 357.225 267.155 354.272C266.566 352.679 266.403 350.134 266.235 347.439C266.127 345.741 266.014 343.982 265.789 342.101C264.049 327.572 256.126 314.053 244.394 305.36L239.833 308.089L241.675 303.484C241.008 303.052 240.373 302.659 239.759 302.278C238.666 301.603 228.994 294.543 224.325 295.372C215.543 296.906 211.196 307.036 216.289 314.373C216.889 315.229 217.54 316.049 218.238 316.828C221.044 319.956 224.178 321.89 226.695 323.443C227.266 323.793 227.803 324.128 228.276 324.435C235.191 328.953 240.097 336.851 241.079 345.054C241.208 346.26 241.306 347.604 241.395 349.026Z" fill="#9E5DB2"/>
<rect x="258.604" y="371.229" width="223.951" height="311.853" transform="rotate(-11.6498 258.604 371.229)" fill="#E1EBF2"/>
<rect x="237.826" y="396.313" width="223.951" height="311.853" transform="rotate(-14.1399 237.826 396.313)" fill="#F3F8FF"/>
<path d="M328.078 236.177L278.777 248.594L266.36 199.308L315.646 186.891L328.078 236.177ZM281.991 243.216L322.685 232.963L312.423 192.269L271.729 202.522L281.991 243.216Z" fill="#577AAE"/>
<path d="M346.911 309.784L297.054 322.345L284.49 272.487L334.347 259.927L346.911 309.784ZM300.694 316.251L340.817 306.143L330.709 266.02L290.586 276.125L300.694 316.251Z" fill="#577AAE"/>
<path d="M365.402 383.178L315.542 395.739L302.981 345.88L352.841 333.319L365.402 383.178ZM319.176 389.643L359.299 379.535L349.191 339.415L309.077 349.52L319.176 389.643Z" fill="#577AAE"/>
<rect x="337.581" y="173.512" width="117.732" height="4.72416" transform="rotate(-14.1399 337.581 173.512)" fill="#D7E5F7"/>
<rect x="341.603" y="189.469" width="117.732" height="4.72416" transform="rotate(-14.1399 341.603 189.469)" fill="#D7E5F7"/>
<rect x="356.071" y="246.907" width="117.732" height="4.72416" transform="rotate(-14.1399 356.071 246.907)" fill="#D7E5F7"/>
<rect x="360.089" y="262.862" width="117.732" height="4.72416" transform="rotate(-14.1399 360.089 262.862)" fill="#D7E5F7"/>
<rect x="374.56" y="320.299" width="117.732" height="4.72416" transform="rotate(-14.1399 374.56 320.299)" fill="#D7E5F7"/>
<rect x="378.582" y="336.256" width="117.732" height="4.72416" transform="rotate(-14.1399 378.582 336.256)" fill="#D7E5F7"/>
<path d="M315.76 169.99L300.759 150.39L304.749 149.384L312.356 159.618C315.18 163.427 316.395 165.269 317.123 166.441H317.184C317.246 165.238 317.571 163.022 318.142 158.485L320.11 145.528L323.996 144.549L319.925 168.952L315.76 169.99Z" fill="#731490"/>
<path d="M351.408 149.248C352.967 155.43 350.143 161.834 342.622 163.715C335.455 165.523 329.785 161.539 328.161 155.099C326.626 149.015 329.825 142.575 336.977 140.773C344.129 138.971 349.873 143.173 351.408 149.248ZM331.986 154.052C333.143 158.657 336.86 162.003 342.027 160.701C347.193 159.399 348.709 154.764 347.58 150.264C346.472 145.869 342.806 142.458 337.554 143.781C332.637 145.034 330.878 149.632 331.992 154.052H331.986Z" fill="#731490"/>
<path d="M359.444 138.818L351.217 140.89L350.456 137.872L370.55 132.811L371.308 135.828L363.097 137.897L367.873 156.864L364.22 157.785L359.444 138.818Z" fill="#731490"/>
<path d="M393.768 139.696L380.805 142.965L382.567 149.964L396.897 146.354L397.203 149.485L379.706 153.896L374.181 131.911L391.439 127.555L392.2 130.57L378.549 134.001L380.047 139.947L393.013 136.681L393.768 139.696Z" fill="#731490"/>
<path d="M298.291 234.381L283.391 226.161L285.674 222.023L295.924 227.68L307.978 198.154L312.353 199.94L298.291 234.381Z" fill="#731490"/>
<path d="M327.102 275.539L322.283 272.66L314.099 286.356L300.403 278.173L297.526 282.989L311.223 291.173L303.039 304.869L307.856 307.746L316.039 294.049L329.736 302.232L332.612 297.416L318.916 289.233L327.102 275.539Z" fill="#731490"/>
<path d="M495.941 88.1228C495.941 88.1228 501.853 141.482 503.615 153.813C505.377 166.144 504.37 227.306 509.656 240.395C514.942 253.484 523.248 270.093 522.242 287.458C521.235 304.823 520.983 367.748 520.983 367.748L607.814 365.734C607.814 365.734 604.437 273.498 603.676 264.943C603.676 264.943 623.168 251.467 630.464 231.082C637.761 210.696 656.139 175.712 660.166 172.452C664.193 169.192 676.524 163.39 675.514 159.111C674.504 154.832 663.432 147.032 642.055 163.39C620.678 179.748 623.432 188.561 617.643 185.034C611.853 181.507 625.823 40.5682 607.7 40.5682C589.577 40.5682 591.904 143.256 585.771 142.584C579.637 141.912 579.889 24.9622 566.045 27.2276C552.938 29.3763 560.259 141.494 555.225 141.998C550.19 142.501 549.699 40.8199 537.857 42.0784C521.087 43.8619 532.822 146.025 528.798 146.529C524.774 147.032 507.655 76.6854 500.865 77.063C493.989 77.4314 495.941 88.1228 495.941 88.1228Z" fill="#F6C19D"/>
<path d="M444.893 154.077L444.694 146.351L433.698 148.616L433.054 153.712C433.889 154.55 438.364 158.513 444.893 154.077Z" fill="#F4AC7B"/>
<path d="M444.865 153.033L444.693 146.341L433.542 149.81L433.234 152.318C435.703 153.227 440.405 154.316 444.865 153.033Z" fill="#CF8451"/>
<path d="M452.294 132.39C451.661 134.321 452.438 136.285 454.034 136.776C455.631 137.268 457.436 136.101 458.068 134.17C458.7 132.24 457.923 130.275 456.33 129.784C454.737 129.293 452.929 130.459 452.294 132.39Z" fill="#D98B55"/>
<path d="M452.638 143.376C453.054 142.526 453.39 141.638 453.638 140.724C454.3 138.342 454.645 135.884 454.664 133.412C454.664 132.93 454.713 132.448 454.759 131.969C454.958 129.945 454.749 127.901 454.145 125.959C452.107 119.369 445.719 114.776 438.619 114.81C429.054 114.853 421.788 122.727 422.525 131.721C421.528 131.233 420.362 131.233 419.366 131.721C417.524 132.694 417.045 135.297 418.304 137.535C419.563 139.772 422.08 140.792 423.924 139.818C424.175 139.685 424.407 139.517 424.612 139.321C426.043 146.909 432.998 152.321 440.749 151.6C444.392 151.272 447.781 149.594 450.249 146.894C450.428 146.724 450.597 146.545 450.756 146.357C451.51 145.449 452.143 144.447 452.638 143.376Z" fill="#F4AC7B"/>
<path d="M438.177 132.16C438.208 132.527 438.091 132.891 437.853 133.171C437.614 133.451 437.273 133.624 436.906 133.652C436.145 133.731 435.461 133.184 435.371 132.424C435.34 132.057 435.456 131.693 435.695 131.413C435.934 131.132 436.275 130.959 436.642 130.932C437.403 130.853 438.087 131.4 438.177 132.16Z" fill="#171717"/>
<path d="M449.264 131.613C449.295 131.98 449.179 132.344 448.94 132.624C448.701 132.905 448.36 133.078 447.993 133.105C447.232 133.184 446.548 132.637 446.459 131.877C446.427 131.51 446.544 131.146 446.782 130.866C447.021 130.586 447.362 130.413 447.729 130.385C448.49 130.308 449.173 130.854 449.264 131.613Z" fill="#171717"/>
<path d="M439.604 129.296C438.927 129.088 438.236 128.934 437.535 128.835C436.88 128.745 436.214 128.745 435.558 128.835C434.905 128.927 434.27 129.116 433.673 129.397L433.437 129.492C433.36 129.526 433.29 129.575 433.213 129.612L432.75 129.851C432.443 130.02 432.154 130.226 431.81 130.392C431.986 130.067 432.192 129.758 432.424 129.471C432.675 129.189 432.956 128.936 433.262 128.716C433.896 128.255 434.635 127.961 435.411 127.859C436.189 127.75 436.981 127.828 437.722 128.086C438.443 128.322 439.09 128.739 439.604 129.296Z" fill="#171717"/>
<path d="M444.227 128.863C444.684 128.263 445.289 127.792 445.982 127.494C446.699 127.17 447.482 127.024 448.266 127.067C449.052 127.099 449.817 127.329 450.489 127.736C450.82 127.927 451.129 128.155 451.41 128.415C451.667 128.679 451.9 128.965 452.106 129.271C451.747 129.133 451.443 128.964 451.121 128.814L450.636 128.614C450.557 128.584 450.483 128.541 450.4 128.513L450.157 128.439C449.537 128.218 448.888 128.088 448.23 128.056C447.569 128.022 446.907 128.08 446.262 128.228C445.568 128.387 444.888 128.599 444.227 128.863Z" fill="#171717"/>
<path d="M447.729 140.693C447.257 142.369 445.188 143.61 442.732 143.567C440.276 143.524 438.257 142.213 437.845 140.521L447.729 140.693Z" fill="white"/>
<path d="M403.625 249.831L394.223 442.8L414.264 444.838L448.899 246.773L403.625 249.831Z" fill="#454545"/>
<path d="M429.029 157.103C429.029 157.103 426.782 255.945 427.467 255.927C428.151 255.909 447.195 259.512 447.195 259.512L453.126 251.359L452.082 160.498L442.299 157.103L438.923 156.143L434.545 156.176L429.029 157.103Z" fill="white"/>
<path d="M445.814 234.145L439.69 161.057H437.695L431.81 234.145L438.812 242.249L445.814 234.145Z" fill="#0A0A0A"/>
<path d="M436.713 160.563L437.191 160.971C438.098 161.744 439.425 161.769 440.359 161.03L441.191 160.373L438.972 156.741L437.412 157.103L436.713 160.563Z" fill="#2B2B2B"/>
<path d="M526.932 112.965C526.96 113.106 527.063 113.22 527.201 113.261C527.338 113.303 527.487 113.266 527.589 113.165C529.286 111.474 534.649 106.188 535.193 106.522C535.806 106.918 531.131 111.762 531.438 112.379C531.745 112.996 536.199 108.158 536.804 108.696C537.409 109.233 533.197 113.506 533.372 113.819C533.547 114.132 538.02 110.467 538.563 110.568C539.106 110.669 534.809 115.173 534.913 115.602C535.017 116.032 539.017 113.929 539.238 114.252C539.459 114.574 539.659 114.752 532.024 122.088L528.893 124.851L525.124 125.714L522.459 121.895C522.459 121.895 524.63 108.438 525.139 108.205C525.649 107.971 525.974 108.3 526.932 112.965Z" fill="#F19A5E"/>
<path d="M444.89 153.595C444.89 153.595 441.765 155.403 438.923 156.14C436.08 155.403 432.955 153.595 432.955 153.595L429.029 157.104C429.622 160.318 436.034 162.666 436.034 162.666L438.852 157.085L441.087 162.666C441.087 162.666 445.922 161.321 448.899 158.221L444.89 153.595Z" fill="#E9F1FA"/>
<path d="M530.886 125.713C530.886 125.713 528.507 119.642 520.357 119.006C520.357 119.006 504.49 159.808 447.195 156.241C447.539 170.113 449.175 234.406 450.182 254.101C460.25 252.974 468.953 251.746 468.953 251.746C468.953 251.746 464.425 197.521 467.593 182.809C467.593 182.809 517.978 183.334 530.886 125.713Z" fill="#6B6B6B"/>
<path d="M429.833 156.367C422.439 158.058 376.566 169.139 367.618 186.2C357.881 204.769 383.697 239.64 394.794 241.454C394.794 241.454 399.208 237.156 401.473 226.508C401.473 226.508 390.149 214.054 388.679 197.408C388.679 197.408 400.113 192.189 405.095 190.728L400.991 258.997C400.991 258.997 412.963 263.979 423.605 264.884C425.886 265.026 428.172 265.035 430.454 264.909L429.833 156.367Z" fill="#6B6B6B"/>
<path d="M429.833 156.37L414.381 170.349L422.107 175.785L414.381 184.389L429.833 255.853V156.37Z" fill="#2B2B2B"/>
<path d="M447.195 156.25L462.648 170.122L454.922 175.558L462.648 184.162L450.182 254.11L447.195 156.25Z" fill="#2B2B2B"/>
<path opacity="0.5" d="M521.099 160.575C521.099 160.575 568.203 145.82 603.673 158.589C603.676 158.589 560.827 155.182 521.099 160.575Z" fill="#D98B55"/>
<rect x="516.424" y="398.913" width="90.8548" height="42.0938" fill="#85C648"/>
<path opacity="0.5" d="M521.099 194.326C521.099 194.326 561.962 229.891 570.097 247.486C570.097 247.486 592.042 207.378 609.824 193C609.824 193 582.771 204.729 570.665 226.674C570.665 226.674 547.771 202.454 521.099 194.326Z" fill="#D98B55"/>
<path opacity="0.5" d="M522.613 245.518C522.613 245.518 526.017 267.84 559.313 264.627C559.313 264.627 532.233 259.945 522.613 245.518Z" fill="#D98B55"/>
<path d="M519.675 359.981C532.568 360.208 567.328 360.672 608.151 359.981C611.059 359.936 613.49 362.181 613.676 365.083L615.988 400.961C616.086 402.466 615.556 403.945 614.524 405.045C613.492 406.145 612.051 406.769 610.542 406.769H518.325C516.844 406.768 515.428 406.166 514.401 405.101C513.373 404.036 512.821 402.6 512.873 401.12L514.125 365.255C514.225 362.277 516.696 359.929 519.675 359.981Z" fill="#6CBB23"/>
<path d="M604.376 383.363C604.377 387.395 601.11 390.664 597.078 390.665C593.046 390.666 589.777 387.398 589.776 383.367C589.776 379.334 593.045 376.065 597.077 376.066C601.106 376.066 604.373 379.332 604.376 383.361V383.363Z" fill="#FBF9FC"/>
<rect x="434.61" y="259.887" width="89.6853" height="181.065" fill="#577AAE"/>
<path d="M410.071 440.952H434.61V259.89L410.071 272.298V440.952Z" fill="#1F4D93"/>
<path d="M404.242 275.213H410.071V272.297L407.158 271.828L404.242 275.213Z" fill="#053987"/>
<path d="M500.699 243.437H497.983V234.228C499.03 233.696 499.467 232.428 498.968 231.364L496.371 225.838C495.333 226.926 493.923 227.583 492.423 227.68L495.017 233.206C495.337 233.877 495.977 234.34 496.715 234.433V243.418H477.959V233.15C479.51 232.399 480.168 230.541 479.436 228.982L475.688 221.001C474.192 222.578 472.156 223.534 469.987 223.677L473.732 231.658C474.268 232.798 475.43 233.51 476.689 233.469V243.43H460.908V239.133C461.739 238.709 462.085 237.704 461.69 236.858L459.627 232.466C459.22 232.895 458.736 233.245 458.2 233.497C457.663 233.75 457.083 233.899 456.49 233.936L458.553 238.329C458.766 238.778 459.162 239.113 459.64 239.25V243.43H456.137C454.388 243.43 452.711 244.127 451.476 245.366C450.241 246.604 449.55 248.284 449.556 250.033L485.32 248.904L507.277 250.033C507.282 248.285 506.591 246.607 505.357 245.37C504.123 244.132 502.447 243.437 500.699 243.437Z" fill="#6E0D8C"/>
<rect x="434.61" y="248.044" width="95.889" height="11.8457" fill="#1F4D93"/>
<path d="M404.242 275.214L434.61 259.89V248.044L404.242 264.179V275.214Z" fill="#053987"/>
<path d="M478.183 210.939C480.45 215.779 478.365 221.539 473.527 223.809C468.689 226.079 462.926 223.999 460.653 219.162C458.38 214.326 460.456 208.562 465.291 206.285C467.617 205.19 470.284 205.065 472.702 205.938C475.121 206.811 477.093 208.61 478.183 210.939Z" fill="#85C648"/>
<path d="M460.993 226.928C462.242 229.591 461.096 232.762 458.433 234.011C455.77 235.26 452.599 234.114 451.35 231.452C450.1 228.789 451.246 225.618 453.908 224.368C456.572 223.118 459.744 224.264 460.993 226.928Z" fill="#85C648"/>
<path d="M498.099 218.861C499.672 222.215 498.23 226.209 494.876 227.783C491.522 229.356 487.528 227.913 485.955 224.559C484.381 221.205 485.825 217.211 489.179 215.638C492.532 214.065 496.526 215.508 498.099 218.861Z" fill="#85C648"/>
<path d="M351.478 435.731V431.706L346.87 430.429L345.845 430.881L345.67 435.731L347.122 439.961L351.478 435.731Z" fill="#F4AC7B"/>
<path d="M347.417 304.931C347.417 304.931 341.373 312.11 327.157 313.375C312.942 314.64 323.578 322.17 323.578 322.17C323.578 322.17 340.728 324.625 346.72 320.617C352.712 316.607 347.417 304.931 347.417 304.931Z" fill="#2E599B"/>
<path d="M341.462 353.163L344.728 432.817H352.338L359.045 372.613L350.253 345.64L341.462 353.163Z" fill="black"/>
<path d="M380.91 435.731V431.706L376.302 430.429L375.277 430.881L375.102 435.731L376.554 439.961L380.91 435.731Z" fill="#F4AC7B"/>
<path d="M320.067 301.008L283.876 309.529C282.455 309.865 281.574 311.288 281.908 312.709L294.312 365.384C294.648 366.805 296.071 367.686 297.492 367.352L333.677 358.83C335.098 358.495 335.979 357.072 335.645 355.65L323.241 302.975C322.905 301.557 321.486 300.678 320.067 301.008Z" fill="#0A0A0A"/>
<rect x="331.87" y="353.179" width="36.2093" height="50.655" transform="rotate(166.75 331.87 353.179)" fill="white"/>
<path d="M294.131 311.374L313.215 306.877L312.945 305.735C312.336 303.148 309.745 301.546 307.159 302.156L297.443 304.442C294.857 305.052 293.253 307.642 293.861 310.229L294.131 311.374Z" fill="#9D5AB1"/>
<rect x="318.289" y="311.775" width="16.0327" height="1.4151" transform="rotate(166.75 318.289 311.775)" fill="#D7E5F7"/>
<rect x="319.474" y="316.827" width="16.0327" height="1.4151" transform="rotate(166.75 319.474 316.827)" fill="#D7E5F7"/>
<rect x="320.668" y="321.878" width="16.0327" height="1.4151" transform="rotate(166.75 320.668 321.878)" fill="#D7E5F7"/>
<rect x="321.851" y="326.936" width="16.0327" height="1.4151" transform="rotate(166.75 321.851 326.936)" fill="#D7E5F7"/>
<rect x="323.042" y="331.988" width="16.0327" height="1.4151" transform="rotate(166.75 323.042 331.988)" fill="#D7E5F7"/>
<rect x="324.23" y="337.039" width="16.0327" height="1.4151" transform="rotate(166.75 324.23 337.039)" fill="#D7E5F7"/>
<rect x="325.425" y="342.085" width="16.0327" height="1.4151" transform="rotate(166.75 325.425 342.085)" fill="#D7E5F7"/>
<rect x="326.613" y="347.142" width="16.0327" height="1.4151" transform="rotate(166.75 326.613 347.142)" fill="#D7E5F7"/>
<rect x="301.213" y="324.995" width="9.0953" height="10.3692" transform="rotate(166.75 301.213 324.995)" fill="#D7E5F7"/>
<rect x="304.352" y="338.317" width="9.0953" height="10.3692" transform="rotate(166.75 304.352 338.317)" fill="#D7E5F7"/>
<rect x="307.478" y="351.648" width="9.0953" height="10.3692" transform="rotate(166.75 307.478 351.648)" fill="#D7E5F7"/>
<path d="M321.298 331.993C321.358 332.049 321.384 332.134 321.365 332.214C321.346 332.295 321.285 332.359 321.205 332.382C319.864 332.744 315.643 333.917 315.656 334.279C315.674 334.712 319.471 333.758 319.695 334.089C319.919 334.421 316.19 335.262 316.282 335.722C316.374 336.182 319.747 335.302 319.855 335.48C319.962 335.658 316.819 336.845 316.715 337.149C316.61 337.453 320.116 336.594 320.306 336.775C320.496 336.956 318.274 338.353 318.372 338.558C318.47 338.764 318.501 338.914 324.407 337.202L326.706 336.428L328.241 334.786L327.093 332.33C327.093 332.33 319.692 329.518 319.419 329.709C319.146 329.899 319.226 330.151 321.298 331.993Z" fill="#F4AC7B"/>
<path d="M344.728 353.332L374.543 432.817L381.846 432.222C381.846 432.222 372.754 359.349 367.318 352.412C361.881 345.474 349.956 346.972 349.956 346.972L344.728 353.332Z" fill="#0A0A0A"/>
<path d="M361.362 291.418C361.362 291.418 362.949 283.195 358.317 280.303C353.685 277.411 348.909 277.921 345.732 279.867C342.555 281.813 340.82 288.266 342.432 291.86L353.12 287.989L361.362 291.418Z" fill="#303030"/>
<path d="M348.031 305.001C348.031 305.001 351.714 307.184 354.584 305.001L353.906 299.672L348.197 298.497L348.031 305.001Z" fill="#F4AC7B"/>
<path d="M348.114 301.971L348.203 298.497L353.995 300.298L354.17 301.603C352.872 302.066 350.431 302.634 348.114 301.971Z" fill="#CF8451"/>
<path d="M344.258 291.249C344.587 292.25 344.181 293.272 343.337 293.527C342.493 293.782 341.572 293.177 341.244 292.173C340.916 291.17 341.318 290.15 342.146 289.896C342.975 289.641 343.93 290.246 344.258 291.249Z" fill="#D98B55"/>
<path d="M344.08 296.953C343.864 296.512 343.69 296.051 343.558 295.578C343.216 294.341 343.037 293.064 343.027 291.781C343.027 291.532 343.003 291.283 342.978 291.035C342.875 289.983 342.984 288.921 343.3 287.913C344.438 284.432 347.7 282.09 351.361 282.123C356.328 282.145 360.101 286.234 359.717 290.903C360.235 290.649 360.841 290.649 361.359 290.903C362.317 291.409 362.562 292.76 361.909 293.92C361.255 295.08 359.95 295.615 358.992 295.108C358.861 295.038 358.74 294.95 358.633 294.847C357.899 298.813 354.274 301.573 350.256 301.226C348.365 301.049 346.607 300.174 345.326 298.77C345.234 298.682 345.147 298.589 345.066 298.491C344.671 298.023 344.34 297.506 344.08 296.953Z" fill="#F4AC7B"/>
<path d="M351.589 291.127C351.573 291.317 351.633 291.506 351.757 291.651C351.881 291.796 352.058 291.886 352.249 291.9C352.645 291.942 353.002 291.657 353.05 291.262C353.082 290.865 352.786 290.517 352.39 290.485C351.992 290.442 351.634 290.729 351.589 291.127Z" fill="#171717"/>
<path d="M345.833 290.86C345.816 291.05 345.876 291.238 346 291.384C346.123 291.529 346.3 291.619 346.49 291.633C346.887 291.676 347.245 291.391 347.291 290.995C347.308 290.804 347.248 290.614 347.124 290.468C347 290.322 346.822 290.232 346.631 290.218C346.234 290.175 345.876 290.462 345.833 290.86Z" fill="#171717"/>
<path d="M350.846 289.632C351.197 289.525 351.556 289.445 351.92 289.392C352.261 289.346 352.607 289.346 352.948 289.392C353.286 289.437 353.615 289.534 353.925 289.678L354.047 289.727C354.09 289.745 354.124 289.77 354.164 289.788L354.407 289.914C354.566 290 354.713 290.107 354.894 290.193C354.806 290.027 354.704 289.869 354.588 289.721C354.453 289.572 354.303 289.439 354.139 289.325C353.809 289.087 353.425 288.934 353.022 288.88C352.617 288.823 352.205 288.864 351.819 288.999C351.446 289.125 351.112 289.342 350.846 289.632Z" fill="#303030"/>
<path d="M348.445 289.417C348.204 289.105 347.887 288.86 347.524 288.704C347.152 288.539 346.747 288.463 346.34 288.484C345.932 288.502 345.535 288.621 345.185 288.83C345.016 288.931 344.859 289.049 344.716 289.183C344.583 289.321 344.461 289.47 344.354 289.629C344.541 289.558 344.697 289.463 344.866 289.392L345.118 289.288L345.238 289.236L345.367 289.196C345.689 289.081 346.026 289.015 346.367 288.999C346.711 288.981 347.055 289.011 347.39 289.088C347.75 289.169 348.103 289.278 348.445 289.417Z" fill="#303030"/>
<path d="M349.593 289.398C349.703 289.902 349.737 290.419 349.695 290.933C349.677 291.195 349.634 291.454 349.566 291.707C349.498 291.986 349.369 292.247 349.188 292.471L349.099 292.557L349.022 292.628C348.985 292.659 348.949 292.693 348.915 292.729C348.854 292.795 348.81 292.875 348.786 292.962C348.742 293.15 348.781 293.349 348.894 293.506C349.194 293.889 349.613 294.161 350.085 294.279C349.525 294.337 348.97 294.136 348.577 293.733C348.361 293.498 348.266 293.176 348.32 292.861C348.335 292.781 348.363 292.703 348.403 292.631C348.436 292.557 348.479 292.487 348.531 292.425C348.581 292.364 348.638 292.308 348.7 292.259C348.734 292.229 348.74 292.216 348.759 292.201L348.808 292.152C348.942 291.979 349.046 291.784 349.115 291.575C349.192 291.346 349.257 291.114 349.308 290.878C349.415 290.396 349.498 289.902 349.593 289.398Z" fill="#D1824B"/>
<path d="M347.328 295.264C347.574 296.136 348.648 296.778 349.922 296.756C351.196 296.735 352.246 296.056 352.46 295.175L347.328 295.264Z" fill="white"/>
<path d="M359.502 291.166C359.725 290.919 360.033 290.766 360.365 290.736L360.039 288.097L359.159 286.54C359.159 286.54 355.782 282.39 355.665 282.289C355.548 282.188 353.044 280.902 352.902 280.837C352.761 280.773 349.339 281.423 349.339 281.423C349.339 281.423 343.258 280.426 344.4 283.541C345.541 286.657 350.011 288.146 350.232 287.989C349.489 287.311 349.336 285.303 349.336 285.303C352.574 288.566 358.569 290.816 359.502 291.166Z" fill="#303030"/>
<path d="M325.887 329.322C328.806 330.019 335.673 329.672 340.876 329.263C340.919 324.966 341.081 320.957 341.459 318.145C342.813 308.16 347.417 304.93 347.417 304.93C350.167 305.254 352.942 304.575 355.232 303.018C361.418 303.092 364.994 306.447 364.994 306.447C374.51 314.643 367.305 331.406 367.305 331.406L369.911 353.559C364.024 355.57 339.958 354.36 339.958 354.36C340.688 349.652 341.027 344.891 340.971 340.127C333.343 339.7 325.884 338.487 325.884 338.487C325.589 336.845 325.887 329.322 325.887 329.322Z" fill="#4D72A9"/>
<path d="M357.654 314.394C357.625 317.703 356.282 320.866 353.922 323.186C352.768 324.331 351.448 325.296 350.008 326.05C348.569 326.817 347.051 327.425 345.48 327.864C345.284 327.922 345.094 327.99 344.894 328.042L344.299 328.186C343.899 328.281 343.507 328.389 343.104 328.475L341.898 328.702L341.284 328.815L340.67 328.898C339.857 329.015 339.046 329.138 338.214 329.205L336.987 329.319C336.575 329.349 336.164 329.365 335.759 329.389C332.461 329.539 329.158 329.519 325.862 329.331C329.147 329.78 332.462 329.975 335.777 329.914C339.092 329.822 342.435 329.469 345.646 328.517C347.259 328.057 348.816 327.419 350.287 326.615C351.771 325.808 353.118 324.772 354.278 323.545C355.441 322.323 356.345 320.879 356.936 319.3C357.219 318.514 357.425 317.703 357.55 316.878C357.693 316.058 357.729 315.223 357.654 314.394Z" fill="#D6E6FB"/>
<path d="M325.887 338.488C329.495 339.282 333.152 339.84 336.833 340.158C340.521 340.499 344.229 340.563 347.927 340.351C351.61 340.099 355.334 339.55 358.833 338.249C360.59 337.619 362.245 336.733 363.745 335.621C365.239 334.505 366.46 333.064 367.314 331.406C366.364 332.985 365.081 334.338 363.554 335.369C362.036 336.393 360.383 337.201 358.643 337.77C356.909 338.352 355.131 338.791 353.326 339.083C351.519 339.385 349.697 339.59 347.868 339.697C344.201 339.911 340.523 339.895 336.858 339.651C335.016 339.537 333.182 339.384 331.357 339.194C329.54 338.998 327.713 338.746 325.887 338.488Z" fill="#D6E6FB"/>
<path d="M427.362 109.948C427.362 109.948 432.55 106.108 443.515 107.704C454.479 109.3 456.1 115.412 456.048 123.945L455.182 130.932C455.182 130.932 451.978 130.726 448.926 121.993C448.926 121.993 442.173 128.633 439.564 127.564C436.955 126.496 441.059 121.652 441.059 121.652C441.059 121.652 429.925 132.362 422.518 131.736C422.518 131.736 417.318 117.76 423.203 113.417C423.203 113.417 419.044 113.278 418.89 112.419C418.737 111.56 421.039 110.482 424.98 111.286C424.98 111.286 422.601 105.319 424.235 104.855C425.867 104.392 427.362 109.948 427.362 109.948Z" fill="#171717"/>
<path d="M443.976 130.76C444.424 131.457 444.825 132.183 445.176 132.933C445.538 133.683 445.846 134.457 446.097 135.251C446.226 135.66 446.314 136.08 446.361 136.506C446.368 136.622 446.368 136.738 446.361 136.853C446.361 136.912 446.339 136.979 446.327 137.04C446.307 137.112 446.279 137.18 446.241 137.243C446.219 137.279 446.194 137.312 446.167 137.344L446.103 137.403C446.06 137.44 446.02 137.479 445.977 137.513C445.934 137.547 445.799 137.648 445.707 137.703C445.348 137.926 444.966 138.111 444.568 138.253C444.179 138.4 443.778 138.516 443.371 138.6C444.108 138.254 444.813 137.844 445.477 137.372C445.556 137.314 445.627 137.246 445.698 137.185L445.796 137.083L445.845 137.034C445.843 137.026 445.843 137.018 445.845 137.01C445.893 136.859 445.902 136.698 445.87 136.543C445.815 136.152 445.725 135.767 445.599 135.392C445.369 134.619 445.08 133.857 444.801 133.081C444.522 132.304 444.239 131.546 443.976 130.76Z" fill="#D1824B"/>
<path d="M481.155 356.47C470.305 356.47 461.509 347.674 461.509 336.824V260.117H500.8V336.821C500.8 347.675 492.003 356.471 481.152 356.47H481.155Z" fill="#85C648"/>
<rect x="387.562" y="416.579" width="174.29" height="24.6215" fill="#1F4D93"/>
<rect x="387.562" y="416.579" width="47.0451" height="24.6215" fill="#003585"/>
<path d="M612.811 297.287C612.811 297.287 616.067 294.153 612.326 290.746C612.326 290.746 614.618 286.574 609.974 285.319C609.974 285.319 609.192 278.308 602.687 280.371C602.687 280.371 597.607 275.177 593.441 278.648C593.441 278.648 588.957 277.307 587.238 282.473C587.238 282.473 582.566 284.189 584.441 289.942C584.441 289.942 580.371 294.021 583.542 299.062C583.542 299.062 582.477 305.67 589.804 305.161C590.2 306.947 592.873 307.457 594.497 307.092C594.497 307.092 596.836 309.547 600.873 307.027C601.385 307.457 604.071 309.538 605.735 307.696C605.735 307.696 611.22 308.728 610.646 303.93C610.64 303.93 614.296 301.576 612.811 297.287Z" fill="#731490"/>
<path d="M584.389 373.049L585.372 435.494L586.965 440L591.75 435.494L596.287 371.449L584.389 373.049Z" fill="#F4AC7B"/>
<path d="M612.961 375.164H600.99C600.99 375.164 606.623 435.12 606.583 435.494C606.543 435.869 608.603 438.564 608.603 438.564L612.961 435.494V375.164Z" fill="#F4AC7B"/>
<path d="M584.389 373.049L585.372 435.494L586.965 440L591.75 435.494L596.287 371.449L584.389 373.049Z" fill="#F4AC7B"/>
<path d="M612.961 375.164H600.99C600.99 375.164 606.623 435.12 606.583 435.494C606.543 435.869 608.603 438.564 608.603 438.564L612.961 435.494V375.164Z" fill="#F4AC7B"/>
<path d="M581.528 425.981C584.929 427.345 590.212 428.707 596.047 427.461L597.134 377.592L597.941 368.813C598.555 369.347 598.914 369.599 598.914 369.599L601.83 426.574C606.477 428.034 611.409 428.343 616.202 427.476C616.23 424.047 614.103 371.744 614.084 369.316C613.928 351.779 608.507 349.21 608.507 349.21L599.277 346.874L597.25 347.224C594.024 346.165 588.186 344.955 585.783 348.983C582.378 354.689 582.578 372.278 582.578 372.278C582.578 372.278 581.5 423.565 581.528 425.981Z" fill="#0A0A0A"/>
<path d="M588.788 331.378L580.132 327.388L580.917 336.554C580.917 336.554 564.529 329.113 563.7 328.364C563.423 328.115 563.11 327.443 562.807 326.691C562.502 325.882 562.26 325.051 562.085 324.205C561.797 322.934 560.707 321.915 560.342 321.58C560.028 321.151 559.782 320.677 559.611 320.174C559.579 320.054 559.466 319.973 559.342 319.979C559.217 319.986 559.115 320.079 559.095 320.202L559.006 320.773C558.959 321.27 559.04 321.771 559.243 322.228L559.016 322.142L558.638 325.998L559.101 329.374L561.695 331.326C561.695 331.326 584.53 347.764 586.618 345.615C588.862 343.292 588.788 331.378 588.788 331.378Z" fill="#F4AC7B"/>
<path d="M586.82 311.991C586.82 311.991 585.046 312.411 582.48 315.585C579.914 318.759 577.633 327.557 577.633 327.557L585.82 332.026L591.148 321.423L586.82 311.991Z" fill="#003585"/>
<path opacity="0.5" d="M610.017 362.609C609.155 362.916 608.302 363.272 607.46 363.634C606.619 363.996 605.787 364.389 604.959 364.785C604.13 365.181 603.314 365.593 602.503 366.013C601.693 366.433 600.882 366.866 600.084 367.315L600.02 367.161C600.62 367.036 601.227 366.944 601.837 366.885C602.449 366.824 603.064 366.795 603.679 366.796C604.294 366.794 604.909 366.83 605.521 366.903L605.975 366.961L606.426 367.041L606.65 367.081L606.871 367.136L607.316 367.244L606.868 367.158L606.644 367.112L606.417 367.081L605.966 367.017L605.511 366.974C605.361 366.955 605.204 366.949 605.057 366.943C604.91 366.937 604.75 366.922 604.599 366.919H604.146C603.992 366.919 603.838 366.919 603.688 366.919C603.074 366.919 602.46 366.974 601.87 367.038C601.269 367.103 600.67 367.2 600.078 367.327L599.532 367.45L600.014 367.173C600.812 366.719 601.616 366.283 602.436 365.866C603.255 365.448 604.078 365.04 604.91 364.638C605.741 364.236 606.589 363.886 607.439 363.536C607.866 363.364 608.295 363.195 608.729 363.042C609.161 362.888 609.582 362.75 610.017 362.609Z" fill="#FBF9FC"/>
<path opacity="0.5" d="M585.783 362.259C586.219 362.403 586.661 362.541 587.091 362.704C587.52 362.866 587.953 363.011 588.38 363.195C589.233 363.548 590.077 363.91 590.909 364.3C591.741 364.69 592.567 365.098 593.383 365.527C594.2 365.958 595.007 366.384 595.808 366.839L596.287 367.112L595.75 366.986C595.156 366.859 594.557 366.763 593.954 366.697C593.34 366.63 592.745 366.587 592.137 366.575C591.983 366.575 591.83 366.575 591.68 366.575H591.225C591.072 366.575 590.918 366.575 590.768 366.596C590.617 366.617 590.461 366.596 590.314 366.63L589.859 366.673L589.408 366.734L589.181 366.768L588.957 366.811L588.509 366.9L588.954 366.789L589.175 366.737L589.402 366.697L589.853 366.617L590.307 366.556C590.919 366.482 591.534 366.448 592.149 366.452C592.764 366.45 593.379 366.478 593.991 366.538C594.601 366.599 595.208 366.692 595.808 366.817L595.744 366.971C594.946 366.522 594.135 366.096 593.325 365.669C592.515 365.242 591.692 364.834 590.869 364.441C590.046 364.048 589.212 363.655 588.367 363.29C587.523 362.925 586.645 362.578 585.783 362.259Z" fill="#FBF9FC"/>
<path opacity="0.5" d="M587.625 352.132C588.373 352.264 589.126 352.372 589.88 352.467C590.636 352.562 591.391 352.651 592.149 352.725C593.663 352.869 595.182 352.967 596.704 352.998C597.465 352.998 598.239 353.016 598.985 352.998C599.731 352.98 600.52 352.937 601.263 352.875C602.006 352.814 602.776 352.722 603.528 352.599C604.28 352.476 605.023 352.326 605.757 352.132C605.026 352.338 604.283 352.507 603.534 352.645C602.785 352.783 602.027 352.869 601.269 352.952C600.511 353.035 599.734 353.062 598.988 353.09C598.242 353.118 597.453 353.112 596.701 353.09C595.179 353.049 593.658 352.947 592.14 352.783C591.385 352.703 590.63 352.609 589.875 352.501C589.122 352.4 588.383 352.277 587.625 352.132Z" fill="#E6D6EB"/>
<path d="M604.765 354.959C604.8 355.047 604.841 355.132 604.888 355.214L605.02 355.466L605.284 355.963L605.729 356.789L606.994 358.987C607.169 359.321 608.835 362.21 609.222 362.858C608.689 362.291 608.196 361.688 607.746 361.053C607.546 360.73 607.359 360.402 607.169 360.076C606.978 359.751 606.803 359.413 606.625 359.082C606.275 358.413 605.935 357.738 605.622 357.053C605.462 356.712 605.314 356.365 605.161 356.018C605.09 355.843 605.017 355.672 604.949 355.494C604.875 355.32 604.814 355.142 604.765 354.959Z" fill="#FBF9FC"/>
<path d="M620.878 322.21C617.154 317.719 612.854 312.844 609.093 310.944C607.654 310.219 604.24 310.075 602.254 309.75C598.835 309.381 595.385 309.393 591.968 309.787C589.205 310.793 584.401 312.5 584.337 314.133C584.03 322.286 583.932 328.536 583.974 333.327C583.974 333.343 583.84 350.702 583.974 354.41C583.974 354.41 602.847 358.477 612.501 356.034C612.501 356.034 614.094 333.318 611.804 327.179L612.78 328.422C612.78 328.422 616.654 327.553 620.878 322.21Z" fill="#214F95"/>
<path d="M620.307 322.916C617.744 326.028 614.911 327.683 613.493 328.201L622.619 339.135L605.923 357.133L608.864 362.253C611.184 361.126 611.706 356.853 611.706 356.853C611.706 356.853 632.368 343.04 632.368 339.734C632.371 335.308 620.307 322.916 620.307 322.916Z" fill="#F4AC7B"/>
<path d="M620.454 322.701C620.313 322.86 620.184 323.032 620.034 323.186L619.589 323.655L619.371 323.892L619.137 324.116L618.674 324.561C618.517 324.708 618.367 324.846 618.195 324.988C617.888 325.294 617.529 325.528 617.197 325.801C616.515 326.313 615.797 326.776 615.049 327.185L614.766 327.336C614.671 327.385 614.573 327.428 614.478 327.474C614.287 327.569 614.091 327.655 613.894 327.738C613.796 327.781 613.698 327.818 613.587 327.855C613.477 327.892 613.391 327.935 613.281 327.968C613.17 328.002 613.004 328.063 612.866 328.106L611.869 326.909L610.733 325.577C609.981 324.684 609.198 323.809 608.443 322.925C607.688 322.041 606.908 321.172 606.113 320.306C605.318 319.441 604.535 318.578 603.725 317.731C604.418 318.67 605.134 319.594 605.852 320.512C606.57 321.43 607.307 322.354 608.038 323.247C608.768 324.141 609.514 325.055 610.266 325.948L611.39 327.29L612.526 328.622L612.651 328.77L612.829 328.723C613.052 328.663 613.271 328.591 613.486 328.509C613.701 328.432 613.907 328.346 614.1 328.254C614.293 328.162 614.505 328.066 614.714 327.947C614.815 327.898 614.914 327.849 615.021 327.793L615.31 327.63C616.073 327.187 616.798 326.679 617.477 326.114L617.968 325.678C618.134 325.537 618.275 325.371 618.441 325.227C618.606 325.083 618.748 324.92 618.901 324.76L619.334 324.272L619.549 324.03L619.751 323.775L620.147 323.262C620.405 322.916 620.635 322.55 620.878 322.194L620.454 322.701Z" fill="#F2F9EB"/>
<path d="M593.908 309.6C593.908 309.6 597.656 311.822 600.575 309.6L599.888 304.178L594.08 302.981L593.908 309.6Z" fill="#F4AC7B"/>
<path d="M594 306.514L594.092 302.978L599.983 304.82L600.149 306.146C598.841 306.616 596.364 307.193 594 306.514Z" fill="#CF8451"/>
<path d="M589.764 294.15C589.924 295.212 589.34 296.164 588.466 296.278C587.591 296.391 586.756 295.624 586.599 294.561C586.443 293.499 587.023 292.545 587.898 292.431C588.772 292.318 589.61 293.088 589.764 294.15Z" fill="#D98B55"/>
<path d="M588.604 299.838C588.463 299.358 588.368 298.866 588.318 298.368C588.188 297.069 588.228 295.758 588.438 294.469C588.478 294.217 588.499 293.963 588.521 293.711C588.598 292.641 588.889 291.597 589.377 290.641C591.119 287.347 594.793 285.56 598.46 286.224C603.436 287.102 606.515 291.851 605.327 296.464C605.89 296.302 606.497 296.407 606.972 296.75C607.847 297.422 607.863 298.819 607.006 299.872C606.15 300.925 604.75 301.232 603.875 300.559C603.759 300.466 603.656 300.357 603.568 300.237C602.145 304.083 598.039 306.225 594.071 305.191C592.203 304.693 590.59 303.515 589.546 301.889C589.479 301.796 589.405 301.686 589.331 301.563C589.014 301.023 588.769 300.443 588.604 299.838Z" fill="#F4AC7B"/>
<path d="M597.708 295.286C597.659 295.474 597.687 295.674 597.786 295.841C597.885 296.008 598.048 296.129 598.236 296.176C598.629 296.291 599.041 296.066 599.157 295.672C599.246 295.282 599.01 294.891 598.623 294.787C598.237 294.683 597.836 294.903 597.718 295.286H597.708Z" fill="#171717"/>
<path d="M591.413 294.015C591.362 294.203 591.39 294.403 591.49 294.571C591.589 294.738 591.751 294.859 591.941 294.905C592.13 294.962 592.333 294.941 592.506 294.846C592.68 294.752 592.807 294.591 592.861 294.402C592.911 294.214 592.883 294.014 592.784 293.846C592.684 293.679 592.522 293.558 592.333 293.512C591.94 293.397 591.528 293.622 591.413 294.015Z" fill="#171717"/>
<path d="M597.217 293.668C597.589 293.621 597.963 293.603 598.338 293.616C598.687 293.625 599.033 293.684 599.366 293.791C599.693 293.895 600.004 294.047 600.287 294.242L600.4 294.316L600.508 294.396L600.726 294.564C600.873 294.678 601.002 294.81 601.168 294.93C601.104 294.746 601.024 294.568 600.928 294.399C600.824 294.229 600.701 294.073 600.56 293.932C600.272 293.633 599.913 293.413 599.516 293.291C599.119 293.165 598.699 293.136 598.288 293.205C597.898 293.267 597.53 293.426 597.217 293.668Z" fill="#731490"/>
<path d="M594.28 293.033C594.094 292.68 593.822 292.381 593.488 292.164C593.144 291.931 592.749 291.784 592.337 291.737C591.921 291.682 591.498 291.734 591.109 291.888C590.922 291.957 590.744 292.048 590.578 292.158C590.42 292.273 590.272 292.402 590.135 292.542C590.335 292.505 590.51 292.437 590.691 292.391L590.961 292.333C591.004 292.333 591.047 292.308 591.094 292.302L591.225 292.284C591.568 292.224 591.918 292.215 592.263 292.256C592.61 292.298 592.95 292.387 593.273 292.523C593.622 292.666 593.958 292.836 594.28 293.033Z" fill="#731490"/>
<path d="M595.443 293.214C595.465 293.736 595.411 294.258 595.283 294.764C595.22 295.024 595.131 295.276 595.019 295.519C594.903 295.787 594.729 296.026 594.51 296.219L594.406 296.29L594.313 296.351C594.27 296.374 594.229 296.401 594.191 296.431C594.119 296.488 594.062 296.56 594.022 296.643C593.939 296.822 593.939 297.028 594.022 297.208C594.257 297.643 594.631 297.987 595.084 298.187C594.511 298.153 593.987 297.855 593.666 297.379C593.489 297.106 593.449 296.766 593.558 296.458C593.587 296.38 593.628 296.306 593.681 296.241C593.727 296.172 593.783 296.111 593.847 296.059C593.907 296.006 593.973 295.96 594.043 295.921C594.068 295.906 594.091 295.89 594.114 295.872L594.172 295.832C594.337 295.682 594.473 295.503 594.574 295.304C594.691 295.09 594.793 294.869 594.881 294.641C595.084 294.181 595.253 293.699 595.443 293.214Z" fill="#D1824B"/>
<path d="M592.152 298.706C592.25 299.626 593.214 300.449 594.497 300.649C595.781 300.848 596.953 300.342 597.315 299.501L592.152 298.706Z" fill="white"/>
<path d="M556.133 271.02L561.944 401.602L563.117 401.572L557.306 271.014L556.133 271.02Z" fill="#FBF9FC"/>
<path d="M556.766 325.703C556.766 325.402 556.788 325.101 556.833 324.803C556.909 324.448 557.175 324.163 557.524 324.064L557.923 323.941L557.96 324.84C557.926 325.528 557.914 325.482 558.865 325.893C560.225 326.486 559.654 327.195 559.654 327.195C559.654 327.195 559.28 327.701 557.616 326.869C557.616 326.869 556.818 326.467 556.766 325.703Z" fill="#F4AC7B"/>
<path d="M556.625 326.467C556.625 326.18 556.647 325.894 556.689 325.611C556.762 325.273 557.014 325.002 557.346 324.905L557.726 324.791L557.76 325.648C557.729 326.301 557.717 326.262 558.623 326.651C559.918 327.213 559.375 327.879 559.375 327.879C559.375 327.879 559.016 328.361 557.435 327.572C557.435 327.588 556.674 327.189 556.625 326.467Z" fill="#F4AC7B"/>
<path d="M556.833 327.502C556.833 327.259 556.851 327.017 556.888 326.777C556.945 326.485 557.159 326.249 557.444 326.163L557.751 326.068L557.779 326.792C557.751 327.345 557.742 327.308 558.509 327.64C559.602 328.116 559.145 328.689 559.145 328.689C559.145 328.689 558.838 329.095 557.502 328.426C557.151 328.235 556.905 327.895 556.833 327.502Z" fill="#F4AC7B"/>
<path d="M557.073 324.595C557.073 324.294 557.095 323.993 557.14 323.695C557.218 323.341 557.482 323.057 557.831 322.955L558.233 322.836L558.267 323.735C558.233 324.423 558.22 324.374 559.188 324.788C560.547 325.377 559.98 326.089 559.98 326.089C559.98 326.089 559.602 326.596 557.938 325.764C557.91 325.764 557.113 325.347 557.073 324.595Z" fill="#F4AC7B"/>
<path d="M558.255 323.735C558.249 323.886 558.256 324.037 558.276 324.187C558.321 324.333 558.436 324.449 558.583 324.493C558.862 324.625 559.157 324.724 559.442 324.862C559.51 324.902 559.58 324.938 559.648 324.981C559.715 325.025 559.779 325.075 559.838 325.129C559.966 325.235 560.063 325.374 560.118 325.531C560.17 325.692 560.16 325.868 560.09 326.022C560.074 326.062 560.053 326.1 560.029 326.136C559.997 326.173 559.959 326.205 559.915 326.228C559.839 326.269 559.755 326.297 559.669 326.311C559.507 326.338 559.341 326.338 559.178 326.311C559.021 326.284 558.866 326.245 558.715 326.194C558.416 326.093 558.126 325.966 557.849 325.813C557.579 325.646 557.355 325.416 557.195 325.141C557.124 325.002 557.079 324.851 557.064 324.696C557.056 324.619 557.056 324.542 557.064 324.466L557.082 324.239V324.466C557.074 324.54 557.074 324.615 557.082 324.69C557.107 324.837 557.161 324.978 557.241 325.104C557.404 325.359 557.626 325.57 557.889 325.718C558.164 325.853 558.447 325.97 558.736 326.068C559.02 326.17 559.323 326.209 559.623 326.182C559.691 326.172 559.756 326.151 559.817 326.12C559.842 326.107 559.864 326.091 559.884 326.071C559.904 326.043 559.92 326.013 559.934 325.982C559.993 325.86 560.003 325.719 559.961 325.589C559.916 325.454 559.834 325.334 559.725 325.242C559.672 325.191 559.614 325.145 559.553 325.104C559.492 325.061 559.427 325.022 559.362 324.981C559.099 324.834 558.804 324.724 558.527 324.576C558.456 324.538 558.39 324.491 558.331 324.435C558.275 324.376 558.239 324.301 558.227 324.22C558.219 324.058 558.228 323.895 558.255 323.735Z" fill="#D1824B"/>
<path d="M559.442 326.234C559.648 326.367 559.784 326.586 559.811 326.829C559.813 326.954 559.782 327.077 559.722 327.186C559.704 327.216 559.681 327.243 559.654 327.266L559.571 327.321C559.513 327.35 559.451 327.371 559.387 327.385C559.14 327.425 558.888 327.413 558.647 327.348C558.411 327.287 558.18 327.208 557.957 327.112C557.846 327.066 557.739 327.01 557.628 326.958C557.518 326.903 557.415 326.835 557.321 326.756C557.127 326.605 556.968 326.415 556.854 326.197C556.801 326.088 556.763 325.973 556.741 325.853C556.731 325.793 556.726 325.733 556.726 325.672V325.494C556.745 325.262 556.78 325.031 556.83 324.803C556.811 325.034 556.802 325.267 556.802 325.497V325.669C556.807 325.725 556.815 325.78 556.827 325.835C556.854 325.943 556.897 326.046 556.953 326.142C557.07 326.337 557.223 326.507 557.404 326.645C557.494 326.715 557.59 326.776 557.692 326.826C557.8 326.872 557.904 326.928 557.999 326.971C558.214 327.068 558.435 327.147 558.663 327.207C558.883 327.273 559.115 327.294 559.344 327.268C559.449 327.26 559.547 327.212 559.617 327.133C559.733 326.947 559.74 326.713 559.636 326.52C559.585 326.415 559.52 326.319 559.442 326.234Z" fill="#D1824B"/>
<path d="M559.446 327.333C559.521 327.492 559.521 327.677 559.446 327.836C559.429 327.88 559.402 327.92 559.369 327.953C559.332 327.983 559.292 328.009 559.249 328.03C559.164 328.066 559.074 328.088 558.982 328.094C558.627 328.107 558.274 328.041 557.948 327.901C557.785 327.836 557.641 327.766 557.472 327.689C557.313 327.611 557.167 327.508 557.042 327.382C556.919 327.26 556.816 327.121 556.735 326.968C556.659 326.814 556.62 326.645 556.621 326.473C556.687 326.8 556.868 327.092 557.131 327.296C557.255 327.404 557.395 327.493 557.545 327.56C557.696 327.633 557.852 327.701 558.009 327.763C558.167 327.823 558.328 327.874 558.491 327.916C558.65 327.959 558.814 327.981 558.979 327.981C559.059 327.98 559.139 327.966 559.215 327.94C559.252 327.93 559.287 327.912 559.317 327.888C559.345 327.865 559.368 327.836 559.384 327.802C559.471 327.662 559.493 327.491 559.446 327.333Z" fill="#D1824B"/>
<path d="M559.092 328.027C559.287 328.183 559.348 328.453 559.237 328.677C559.228 328.699 559.217 328.718 559.203 328.736C559.188 328.755 559.17 328.771 559.151 328.785C559.114 328.811 559.074 328.832 559.031 328.846C558.872 328.896 558.704 328.906 558.54 328.877C558.381 328.854 558.224 328.815 558.073 328.76C557.925 328.708 557.779 328.648 557.637 328.579C557.57 328.542 557.496 328.512 557.426 328.466C557.359 328.421 557.295 328.371 557.235 328.318C556.988 328.118 556.841 327.82 556.833 327.502C556.898 327.796 557.07 328.055 557.315 328.229C557.374 328.275 557.436 328.317 557.499 328.355C557.565 328.39 557.633 328.422 557.702 328.45C557.839 328.516 557.981 328.572 558.125 328.619C558.267 328.672 558.412 328.713 558.561 328.739C558.704 328.77 558.852 328.77 558.994 328.739C559.026 328.73 559.057 328.717 559.086 328.702L559.117 328.677C559.129 328.665 559.139 328.65 559.148 328.635C559.225 328.514 559.243 328.365 559.197 328.229C559.171 328.158 559.136 328.09 559.092 328.027Z" fill="#D1824B"/>
<ellipse cx="558.043" cy="280.521" rx="23.0375" ry="25.659" fill="#577AAE"/>
<ellipse cx="558.042" cy="280.521" rx="21.1129" ry="23.5133" fill="#E8D8ED"/>
<rect x="555.513" y="297.686" width="5.48849" height="6.10549" fill="#F4AC7B"/>
<path d="M561.002 301.345V297.686H555.513V300.799C556.695 301.505 558.445 301.91 561.002 301.345Z" fill="#D1824B"/>
<path d="M569.658 286.758C569.073 286.455 568.371 286.486 567.816 286.841C568.021 280.816 563.604 275.751 558.039 275.966C552.477 275.751 548.057 280.816 548.266 286.841C547.711 286.486 547.009 286.455 546.424 286.758C545.325 287.372 544.981 289.088 545.66 290.617C546.338 292.146 547.778 292.895 548.876 292.29C549.028 292.208 549.166 292.104 549.288 291.983C549.902 296.962 553.653 300.698 558.036 300.627C562.42 300.698 566.156 296.962 566.785 291.983C566.907 292.105 567.047 292.208 567.199 292.29C568.298 292.904 569.738 292.146 570.416 290.617C571.094 289.088 570.757 287.363 569.658 286.758Z" fill="#F4AC7B"/>
<path d="M551.36 273.578C551.36 273.578 554.123 270.981 560.376 271.401C566.629 271.822 567.832 275.459 568.185 280.656L567.817 286.842C567.817 286.842 566.19 284.978 564.071 279.815C564.071 279.815 560.566 284.199 559.04 283.68C557.515 283.161 559.617 279.996 559.617 279.996C559.617 279.996 552.475 286.842 548.26 286.832C548.26 286.832 546.031 278.821 549.159 275.88C549.159 275.88 546.805 276.006 546.679 275.49C546.553 274.974 547.803 274.204 550.056 274.495C550.056 274.495 548.444 270.981 549.343 270.615C550.243 270.25 551.36 273.578 551.36 273.578Z" fill="#171717"/>
<path d="M561.637 293.874C561.394 295.083 560.155 296.022 558.632 296.084C557.109 296.145 555.82 295.274 555.513 294.083L561.637 293.874Z" fill="white"/>
<path d="M557.502 303.332L555.513 303.792V303.866C557.336 304.11 559.185 304.089 561.002 303.804L560.695 303.528L557.502 303.332Z" fill="#F4AC7B"/>
<path d="M548.576 268.758L546.264 263.128L547.185 263.107L548.343 266.032C548.772 267.122 548.957 267.641 549.049 267.969C549.122 267.678 549.303 267.153 549.662 266.075L550.743 263.006L551.646 262.984L549.53 268.724L548.576 268.758Z" fill="#731490"/>
<path d="M557.444 265.667C557.478 267.266 556.523 268.672 554.789 268.715C553.125 268.755 552.081 267.466 552.047 265.799C552.013 264.227 553.039 262.83 554.699 262.788C556.36 262.744 557.413 264.095 557.444 265.667ZM552.937 265.759C552.962 266.944 553.61 267.975 554.81 267.944C556.01 267.914 556.575 266.864 556.55 265.704C556.526 264.543 555.894 263.527 554.675 263.555C553.533 263.589 552.916 264.614 552.937 265.759Z" fill="#731490"/>
<path d="M559.731 263.564L557.818 263.61V262.831L562.484 262.714L562.5 263.494L560.593 263.543L560.692 268.454L559.844 268.476L559.731 263.564Z" fill="#731490"/>
<path d="M567.224 265.688L564.213 265.762L564.25 267.57L567.577 267.487L567.485 268.27L563.421 268.371L563.307 262.686L567.322 262.588V263.368L564.151 263.445L564.182 264.979L567.193 264.906L567.224 265.688Z" fill="#731490"/>
<path d="M605.573 286.415L605.8 291.633L593.577 288.686C593.577 288.686 592.241 289.877 592.042 289.853C591.842 289.828 590.286 289.171 590.344 288.932C590.403 288.692 594.642 283.078 594.642 283.078C594.642 283.078 598.694 283.999 599.056 284.091C599.418 284.183 605.573 286.415 605.573 286.415Z" fill="#731490"/>
<path d="M605.572 294.598C605.572 294.598 599.369 289.113 589.049 291.345C589.049 291.345 589.049 291.305 589.024 291.228C588.747 289.735 589.666 288.281 591.133 287.891C593.494 287.25 598.626 286.737 605.253 291.225C605.779 291.575 606.127 292.137 606.206 292.764C606.285 293.391 606.087 294.021 605.665 294.491L605.572 294.598Z" fill="#577AAE"/>
<rect x="666.499" y="320.232" width="5.44245" height="13.184" transform="rotate(-7.55973 666.499 320.232)" fill="#F4AC7B"/>
<path d="M678.832 294.721C678.218 294.532 677.55 294.646 677.034 295.028C676.331 289.73 671.466 286.005 666.169 286.708C660.871 287.41 657.146 292.275 657.848 297.573C657.251 297.336 656.577 297.399 656.034 297.742C655.027 298.414 654.892 299.982 655.728 301.238C656.562 302.493 658.072 302.969 659.079 302.297C659.216 302.203 659.34 302.091 659.448 301.965C660.648 306.263 664.749 309.075 669.043 308.442C673.341 307.933 676.582 304.145 676.619 299.688C676.756 299.782 676.905 299.857 677.061 299.912C678.209 300.299 679.535 299.451 680.02 298.018C680.505 296.584 679.981 295.108 678.832 294.721Z" fill="#F4AC7B"/>
<path d="M665.268 298.509C665.351 298.95 665.061 299.376 664.62 299.46C664.179 299.543 663.753 299.254 663.669 298.812C663.585 298.371 663.875 297.945 664.316 297.861C664.528 297.821 664.748 297.866 664.926 297.988C665.105 298.109 665.228 298.297 665.268 298.509Z" fill="#171717"/>
<path d="M672.23 297.665C672.291 297.99 672.151 298.319 671.875 298.5C671.598 298.681 671.239 298.677 670.967 298.491C670.694 298.304 670.56 297.972 670.628 297.648C670.697 297.325 670.953 297.075 671.278 297.014C671.49 296.974 671.71 297.02 671.889 297.142C672.067 297.264 672.19 297.452 672.23 297.665Z" fill="#171717"/>
<path d="M665.937 296.744C665.533 296.656 665.122 296.602 664.709 296.581C664.328 296.562 663.945 296.596 663.573 296.686C663.204 296.771 662.85 296.913 662.523 297.106L662.391 297.177C662.348 297.198 662.312 297.232 662.269 297.257L662.017 297.425C661.848 297.539 661.694 297.677 661.504 297.794C661.589 297.593 661.692 297.401 661.811 297.22C661.938 297.04 662.086 296.875 662.25 296.729C662.589 296.426 662.999 296.214 663.441 296.115C663.882 296.005 664.342 296.005 664.783 296.115C665.216 296.221 665.613 296.438 665.937 296.744Z" fill="#171717"/>
<path d="M669.188 296.299C669.411 295.918 669.728 295.601 670.109 295.378C670.501 295.152 670.942 295.024 671.395 295.007C671.85 294.986 672.303 295.083 672.712 295.286C672.909 295.383 673.094 295.503 673.264 295.642C673.427 295.785 673.577 295.942 673.712 296.112C673.497 296.05 673.314 295.958 673.12 295.894L672.832 295.802C672.785 295.783 672.738 295.768 672.69 295.756L672.549 295.722C672.181 295.624 671.8 295.582 671.42 295.599C671.038 295.614 670.661 295.682 670.299 295.802C669.916 295.938 669.545 296.105 669.188 296.299Z" fill="#171717"/>
<path d="M676.499 284.515C674.529 281.368 667.447 279.674 663.208 280.831C663.208 280.831 663.337 281.924 663.772 282.482C663.266 281.985 661.317 280.518 657.133 282.108C657.133 282.108 657.904 283.443 658.293 283.95C657.348 284.054 656.391 283.974 655.475 283.713C655.475 283.713 654.417 286.206 655.782 288.299L654.248 287.91C654.248 287.91 655.396 292.922 656.396 295.958C656.581 296.879 656.743 297.493 656.743 297.493C656.823 297.493 657.664 297.253 658.966 298.263L659.193 298.107C660.092 297.493 659.709 293.119 661.01 291.169C663.503 289.702 669.298 288.742 671.447 289.134C673.954 289.592 674.805 295.455 676.008 295.888L676.269 295.98C677.03 294.601 678.133 294.678 678.212 294.666C678.219 294.626 678.467 287.661 676.499 284.515Z" fill="#700F8D"/>
<path d="M667.558 295.808C667.893 296.219 668.201 296.653 668.479 297.106C668.761 297.556 669.01 298.026 669.224 298.512C669.333 298.763 669.419 299.024 669.479 299.292C669.479 299.362 669.498 299.436 669.501 299.513C669.504 299.589 669.501 299.592 669.501 299.632C669.495 299.679 669.481 299.725 669.461 299.767L669.421 299.838L669.384 299.878C669.361 299.906 669.337 299.933 669.31 299.958C669.258 300.004 669.209 300.056 669.154 300.096C668.941 300.262 668.712 300.406 668.469 300.526C668.232 300.646 667.985 300.748 667.733 300.833C668.177 300.563 668.596 300.255 668.985 299.912C669.031 299.869 669.071 299.823 669.114 299.777L669.169 299.709L669.197 299.675C669.195 299.669 669.195 299.663 669.197 299.657C669.222 299.556 669.222 299.451 669.197 299.35C669.132 299.105 669.048 298.866 668.945 298.635C668.746 298.162 668.51 297.695 668.279 297.226C668.049 296.756 667.779 296.289 667.558 295.808Z" fill="#D1824B"/>
<path d="M670.848 302.343C670.759 303.172 669.903 303.915 668.77 304.078C667.637 304.24 666.606 303.771 666.287 303L670.848 302.343Z" fill="white"/>
<path d="M662.904 311.272L676.18 309.513L673.368 315.907C673.368 315.907 667.453 316.97 666.87 316.77C666.287 316.571 662.904 311.272 662.904 311.272Z" fill="#F4AC7B"/>
<path d="M659.616 352.399C659.616 352.399 653.744 404.764 654.705 423.001L665.077 424.229L675.867 363.665L677.232 363.717L684.191 424.652H693.606C693.606 424.652 695.159 363.824 690.082 346.684C685.005 329.543 659.616 352.399 659.616 352.399Z" fill="#305B9C"/>
<path d="M663.281 426.915L663.067 434.5L658.032 438.15C658.032 438.15 656.12 434.506 656.169 434.064C656.218 433.622 656.169 424.919 656.169 424.919L663.281 426.915Z" fill="#F4AC7B"/>
<path d="M685.942 426.915L686.156 434.5L691.19 438.15C691.19 438.15 692.839 434.506 692.793 434.064C692.747 433.622 693.057 424.919 693.057 424.919L685.942 426.915Z" fill="#F4AC7B"/>
<path d="M654.398 422.332L665.31 423.63C665.453 423.649 665.582 423.725 665.667 423.841C665.752 423.956 665.786 424.102 665.762 424.244L665.022 428.09C664.97 428.363 664.713 428.547 664.439 428.508L654.22 427.096C653.96 427.06 653.766 426.837 653.769 426.574L653.815 422.838C653.818 422.691 653.883 422.552 653.994 422.456C654.105 422.359 654.252 422.314 654.398 422.332Z" fill="#4D72A9"/>
<path d="M647.909 321.675L651.286 311.8L648.483 311.186C642.546 311.009 636.947 308.237 636.042 307.294C634.123 305.296 640.895 291.918 640.895 291.918L635.655 290.859C635.655 290.859 623.597 307.018 628.742 312.537C633.887 318.056 646.481 321.559 646.481 321.559L647.909 321.675Z" fill="#F4AC7B"/>
<path d="M693.343 315.65L687.51 306.993L690.052 305.661C695.737 303.939 700.421 299.804 701.048 298.656C702.38 296.228 692.354 285.076 692.354 285.076L697.137 282.688C697.137 282.688 713.01 295.157 709.467 301.815C705.925 308.473 694.694 315.146 694.694 315.146L693.343 315.65Z" fill="#F4AC7B"/>
<path d="M694.521 422.623L683.611 423.922C683.468 423.939 683.338 424.014 683.253 424.131C683.167 424.247 683.134 424.394 683.16 424.536L683.897 428.382C683.95 428.655 684.207 428.84 684.483 428.802L694.702 427.39C694.963 427.353 695.156 427.129 695.153 426.865L695.107 423.133C695.105 422.985 695.04 422.844 694.928 422.747C694.816 422.65 694.668 422.605 694.521 422.623Z" fill="#4D72A9"/>
<path d="M695.74 315.561L690.135 304.998C686.691 306.563 681.304 307.969 678.553 308.636C677.412 308.912 676.323 309.371 675.327 309.992L675.216 310.063C671.856 312.144 667.765 312.686 663.978 311.552L663.856 311.515C662.732 311.174 661.561 311.015 660.387 311.045C657.554 311.119 651.989 311.165 648.256 310.554L645.597 322.219C649.175 322.961 652.827 323.285 656.479 323.186L658.17 356.737C669.748 357.797 681.415 356.265 692.326 352.252L692.6 352.151L685.487 319.306C689.038 318.458 692.479 317.201 695.74 315.561Z" fill="#5CB30B"/>
<path d="M705.768 281.552L624.605 292.318C622.929 292.535 621.392 291.358 621.167 289.684L615.438 246.565C615.219 244.888 616.396 243.35 618.072 243.124L699.242 232.358C700.918 232.141 702.455 233.318 702.681 234.992L708.405 278.114C708.623 279.791 707.444 281.328 705.768 281.552Z" fill="#E6F1FF"/>
<path d="M641.337 290.089C641.337 290.089 642.844 289.475 642.872 288.247C642.899 287.019 643.75 287.581 643.82 288.121C643.891 288.662 644.772 291.133 640.876 291.909C636.981 292.686 635.655 290.859 635.655 290.859L641.337 290.089Z" fill="#F4AC7B"/>
<path d="M691.455 283.443C691.455 283.443 689.843 283.256 689.477 282.065C689.112 280.874 688.459 281.647 688.529 282.191C688.6 282.734 688.397 285.346 692.36 285.076C696.323 284.806 697.142 282.688 697.142 282.688L691.455 283.443Z" fill="#F4AC7B"/>
<rect x="622.616" y="244.069" width="76.5933" height="2.93763" transform="rotate(-7.55973 622.616 244.069)" fill="#AAC1DE"/>
<rect x="623.798" y="252.995" width="76.5933" height="2.93763" transform="rotate(-7.55973 623.798 252.995)" fill="#AAC1DE"/>
<rect x="624.984" y="261.919" width="76.5933" height="2.93763" transform="rotate(-7.55973 624.984 261.919)" fill="#AAC1DE"/>
<rect x="638.187" y="272.466" width="51.9105" height="2.93763" transform="rotate(-7.55973 638.187 272.466)" fill="#AAC1DE"/>
<path d="M762.382 447.079H174.735C173.04 447.079 171.666 445.705 171.666 444.009C171.666 442.314 173.04 440.94 174.735 440.94H762.382C764.077 440.94 765.451 442.314 765.451 444.009C765.451 445.705 764.077 447.079 762.382 447.079Z" fill="#6E0D8C"/>
<path d="M264.81 302.524L265.08 306.38C265.08 306.38 271.14 308.086 271.263 308.037C271.385 307.988 272.724 307.199 272.724 307.199L272.564 305.511C272.527 304.859 272.532 304.206 272.579 303.555C272.665 303.196 265.826 301.806 265.826 301.806L264.81 302.524Z" fill="#F4AC7B"/>
<path d="M273.246 307.389C273.246 307.389 289.822 312.221 297.265 327.17C297.99 328.616 297.799 330.352 296.777 331.606C294.518 334.368 289.496 339.163 280.085 342.451C280.085 342.451 278.323 341.864 278.105 339.587C278.105 339.587 287.062 331.437 289.34 329.528L276.782 319.686L273.246 307.389Z" fill="#5CB30B"/>
<path d="M277.534 341.358L280.441 339.396L281.88 341.785C281.88 341.785 279.873 349.241 279.67 351.301C279.67 351.301 278.937 351.534 278.835 351.107C278.734 350.68 277.534 341.358 277.534 341.358Z" fill="#F4AC7B"/>
<path d="M259.35 293.214C259.35 293.214 257.468 285.503 261.946 282.614C266.425 279.726 271.155 280.048 274.397 281.779C277.638 283.511 279.566 289.542 278.117 292.99L267.373 289.699L259.35 293.214Z" fill="black"/>
<path d="M277.285 435.998L275.354 429.459L281.62 428.796L282.003 429.226L283.053 435.123L280.094 438.106L277.285 435.998Z" fill="#F4AC7B"/>
<path d="M238.065 427.857L241.322 421.871L246.224 425.831L246.19 426.405L242.761 431.319L238.559 431.335L238.065 427.857Z" fill="#F4AC7B"/>
<path d="M231.29 293.849C231.252 293.918 231.18 293.961 231.101 293.961C231.022 293.961 230.95 293.918 230.912 293.849C230.314 292.674 228.408 288.981 228.073 289.064C227.677 289.165 229.301 292.505 229.034 292.778C228.767 293.051 227.266 289.748 226.857 289.926C226.449 290.104 227.92 293.063 227.778 293.195C227.637 293.327 225.918 290.645 225.63 290.602C225.341 290.558 226.805 293.653 226.676 293.864C226.547 294.076 224.816 292.284 224.644 292.416C224.472 292.548 224.337 292.603 227.072 297.757L228.239 299.74L230.062 300.848L232.113 299.313C232.113 299.313 233.288 291.894 233.061 291.685C232.834 291.476 232.595 291.569 231.29 293.849Z" fill="#F4AC7B"/>
<path d="M259.104 343.657C259.104 343.657 250.202 355.153 252.301 373.451C254.401 391.749 253.944 398.315 253.944 398.315C253.944 398.315 242.448 408.871 238.927 424.121C238.927 424.121 243.971 427.639 247.375 428.225C247.375 428.225 264.258 402.419 265.556 399.371C266.854 396.323 269.893 344.118 269.893 344.118L259.104 343.657Z" fill="#0A0A0A"/>
<path d="M267.3 351.478L269.206 386.675C269.206 386.675 272.021 423.897 275.619 431.719H283.6L279.67 344.292H267.785L267.3 351.478Z" fill="#0A0A0A"/>
<path d="M281.745 321.752C281.161 316.373 278.484 311.44 274.292 308.019C273.784 307.608 273.191 307.315 272.555 307.162C270.881 306.826 269.179 306.658 267.472 306.659H263.843C263.843 306.659 258.011 306.966 255.426 307.792C252.842 308.617 242.641 313.133 241.509 312.485C240.376 311.837 232.444 297.444 232.444 297.444L228.076 299.712C228.076 299.712 230.839 319.871 238.433 321.363C246.027 322.854 253.474 320.914 253.474 320.914C253.474 320.914 254.929 341.146 258.653 344.707C258.653 344.707 273.353 345.702 278.817 345.072C279.808 344.956 280.601 344.195 280.757 343.209C281.35 339.587 282.648 330.071 281.745 321.752Z" fill="#85C648"/>
<path d="M277.052 310.748C276.218 309.756 275.293 308.844 274.289 308.025C273.78 307.61 273.184 307.316 272.546 307.162C270.872 306.826 269.169 306.657 267.463 306.659H263.843C263.843 306.659 262.852 306.714 261.507 306.834C264.436 309.072 269.924 312.092 277.052 310.748Z" fill="#F4AC7B"/>
<path d="M264.672 301.296C264.672 301.296 264.856 302.717 264.979 304.433C267.105 306.189 270.032 306.61 272.567 305.526C272.518 304.406 272.536 303.377 272.708 302.871C273.181 301.499 264.672 301.296 264.672 301.296Z" fill="#D1824B"/>
<path d="M276.72 294.353C276.34 295.39 276.702 296.477 277.534 296.784C278.366 297.091 279.345 296.495 279.729 295.458C280.113 294.42 279.747 293.331 278.915 293.027C278.083 292.723 277.104 293.315 276.72 294.353Z" fill="#D98B55"/>
<path d="M276.635 300.348C276.876 299.893 277.074 299.418 277.227 298.926C277.635 297.641 277.877 296.31 277.948 294.964C277.948 294.7 277.997 294.442 278.034 294.181C278.478 290.981 277.082 287.805 274.424 285.968C271.767 284.132 268.301 283.951 265.466 285.498C262.631 287.046 260.909 290.059 261.016 293.288C260.504 292.998 259.885 292.971 259.349 293.214C258.349 293.702 258.036 295.108 258.643 296.357C259.251 297.607 260.559 298.224 261.556 297.735C261.692 297.668 261.818 297.582 261.931 297.481C262.502 301.649 266.041 304.762 270.151 304.541C272.094 304.444 273.927 303.614 275.281 302.217C275.37 302.134 275.462 302.042 275.56 301.935C275.985 301.454 276.346 300.92 276.635 300.348Z" fill="#F4AC7B"/>
<path d="M268.942 294.46C268.963 294.901 268.623 295.277 268.181 295.299C267.74 295.321 267.364 294.981 267.342 294.539C267.32 294.097 267.659 293.721 268.101 293.699C268.314 293.687 268.522 293.761 268.68 293.904C268.838 294.047 268.932 294.247 268.942 294.46Z" fill="#171717"/>
<path d="M276.076 294.46C276.099 294.904 275.758 295.282 275.314 295.305C274.87 295.328 274.492 294.987 274.469 294.543C274.447 294.1 274.788 293.721 275.232 293.699C275.675 293.676 276.053 294.017 276.076 294.46Z" fill="#171717"/>
<path d="M269.617 293.122C269.26 292.932 268.88 292.786 268.488 292.686C268.104 292.592 267.708 292.562 267.315 292.597C267.121 292.615 266.928 292.652 266.741 292.707C266.646 292.732 266.554 292.766 266.462 292.796L266.324 292.855L266.189 292.913C265.826 293.094 265.481 293.309 265.16 293.558C265.41 293.221 265.723 292.935 266.081 292.717C266.263 292.604 266.458 292.514 266.661 292.446C266.865 292.377 267.076 292.331 267.291 292.311C267.718 292.273 268.149 292.328 268.552 292.474C268.751 292.544 268.942 292.634 269.123 292.741C269.303 292.847 269.469 292.975 269.617 293.122Z" fill="black"/>
<path d="M272.856 293.122C273.005 292.975 273.172 292.847 273.353 292.741C273.534 292.634 273.725 292.544 273.924 292.474C274.328 292.328 274.758 292.272 275.186 292.311C275.395 292.333 275.601 292.378 275.799 292.446C276.001 292.514 276.195 292.605 276.377 292.717C276.734 292.935 277.047 293.221 277.297 293.558C276.977 293.309 276.632 293.093 276.269 292.913L276.131 292.855L275.996 292.796C275.901 292.766 275.812 292.732 275.717 292.707C275.528 292.652 275.335 292.615 275.14 292.597C274.747 292.562 274.352 292.592 273.97 292.686C273.583 292.787 273.209 292.933 272.856 293.122Z" fill="black"/>
<path d="M253.603 320.773C253.811 320.552 254.004 320.317 254.18 320.07C254.36 319.823 254.526 319.564 254.674 319.297C254.826 319.03 254.96 318.755 255.076 318.471C255.196 318.186 255.299 317.893 255.383 317.596C255.347 317.909 255.282 318.217 255.187 318.517C255.144 318.667 255.086 318.824 255.031 318.962C254.975 319.1 254.911 319.25 254.837 319.389C254.697 319.671 254.536 319.942 254.355 320.199C254.21 320.407 254.052 320.604 253.882 320.792C254.041 320.825 254.202 320.845 254.364 320.853C254.589 320.866 254.814 320.855 255.037 320.822C255.149 320.807 255.261 320.785 255.371 320.758C255.48 320.73 255.588 320.696 255.693 320.656C255.908 320.575 256.114 320.473 256.307 320.349C255.949 320.655 255.519 320.866 255.058 320.963C254.826 321.013 254.589 321.037 254.352 321.034C254.112 321.033 253.873 321.003 253.64 320.945L253.468 320.899L253.603 320.773Z" fill="white"/>
<path opacity="0.5" d="M277.758 356.15C277.279 356.619 276.815 357.1 276.364 357.593C275.914 358.086 275.474 358.59 275.044 359.104C274.611 359.613 274.187 360.131 273.773 360.656C273.362 361.181 272.948 361.707 272.546 362.244L272.457 362.158C272.819 361.899 273.195 361.66 273.583 361.443C273.971 361.226 274.37 361.029 274.777 360.853C275.183 360.674 275.601 360.522 276.027 360.399L276.334 360.31L276.659 360.233L276.819 360.196L276.984 360.168L277.31 360.113L277.003 360.184L276.84 360.218L276.681 360.261L276.374 360.349L276.067 360.451C275.962 360.481 275.858 360.521 275.76 360.558C275.661 360.595 275.554 360.632 275.453 360.675L275.146 360.801C275.044 360.841 274.946 360.89 274.839 360.936C274.438 361.12 274.046 361.325 273.666 361.55C273.284 361.767 272.914 362.005 272.558 362.262L272.233 362.505L272.469 362.176C272.865 361.636 273.27 361.102 273.697 360.58C274.123 360.058 274.544 359.542 274.98 359.045C275.416 358.548 275.873 358.047 276.334 357.559C276.567 357.32 276.803 357.081 277.046 356.85C277.288 356.62 277.509 356.375 277.758 356.15Z" fill="#E6D6EB"/>
<path opacity="0.5" d="M266.523 362.075C266.01 361.381 265.483 360.696 264.936 360.027C264.39 359.358 263.834 358.695 263.269 358.041C262.705 357.387 262.109 356.761 261.51 356.138C261.203 355.831 260.897 355.524 260.59 355.217C260.283 354.91 259.954 354.631 259.632 354.345C260.246 354.959 260.86 355.573 261.443 356.187C262.026 356.801 262.6 357.47 263.159 358.124C263.718 358.778 264.27 359.444 264.807 360.116C265.243 360.663 265.676 361.209 266.1 361.762C265.759 361.537 265.409 361.329 265.053 361.129C264.552 360.853 264.034 360.608 263.518 360.38C262.992 360.154 262.453 359.961 261.903 359.803L261.489 359.69L261.072 359.598L260.863 359.552L260.651 359.515L260.23 359.447L260.648 359.536L260.857 359.579L261.062 359.634L261.477 359.742L261.885 359.871C262.02 359.911 262.152 359.96 262.287 360.009C262.422 360.058 262.554 360.101 262.686 360.156L263.082 360.316C263.214 360.368 263.343 360.429 263.472 360.485C263.991 360.718 264.497 360.979 265.007 361.258C265.5 361.54 265.979 361.847 266.44 362.179L266.861 362.486L266.523 362.075Z" fill="#E6D6EB"/>
<path opacity="0.3" d="M269.755 299.148C270.376 298.956 271.049 299.046 271.597 299.393C271.597 299.393 272.555 298.779 273.31 299.365C273.077 300.218 272.265 300.78 271.385 300.697C270.516 300.697 269.8 300.016 269.755 299.148Z" fill="#D98B55"/>
<path d="M268.945 298.629C269.122 298.772 269.309 298.903 269.504 299.022C269.7 299.139 269.906 299.242 270.118 299.329C270.526 299.515 270.963 299.632 271.41 299.675C271.856 299.713 272.306 299.662 272.733 299.528C273.169 299.382 273.582 299.175 273.961 298.914C273.789 299.069 273.605 299.21 273.411 299.335C273.216 299.455 273.011 299.557 272.797 299.642C272.578 299.725 272.351 299.783 272.119 299.817C271.886 299.847 271.65 299.854 271.416 299.835C270.949 299.79 270.496 299.654 270.081 299.436C269.657 299.237 269.272 298.964 268.945 298.629Z" fill="#D1824B"/>
<path d="M271.904 294.092C272.129 294.456 272.328 294.836 272.5 295.228C272.677 295.62 272.827 296.024 272.948 296.437C273.009 296.651 273.049 296.87 273.068 297.091C273.071 297.15 273.071 297.21 273.068 297.269C273.068 297.3 273.068 297.333 273.049 297.367C273.037 297.404 273.021 297.439 273 297.471C272.988 297.488 272.974 297.505 272.96 297.521L272.926 297.551L272.862 297.607C272.813 297.64 272.767 297.674 272.721 297.702C272.532 297.813 272.333 297.903 272.125 297.972C271.925 298.042 271.72 298.096 271.511 298.135C271.898 297.964 272.267 297.759 272.616 297.521C272.658 297.492 272.697 297.46 272.733 297.425L272.785 297.376L272.813 297.352C272.838 297.273 272.844 297.19 272.831 297.109C272.809 296.901 272.767 296.696 272.705 296.495C272.595 296.093 272.457 295.694 272.322 295.292C272.187 294.89 272.042 294.5 271.904 294.092Z" fill="#D1824B"/>
<path d="M260.132 291.578L260.811 290.964L261.118 288.947L263.104 284.235L273.016 282.7C273.016 282.7 272.887 283.48 272.761 284.324L275.658 285.521C275.658 285.521 269.943 291.968 261.026 293.281C260.51 293.003 259.896 292.976 259.359 293.208L260.132 291.578Z" fill="black"/>
<path d="M265.964 281.402C265.964 281.402 264.884 271.493 257.038 270.71C249.192 269.928 245.659 273.553 240.855 271.493C240.855 271.493 240.167 281.988 249.778 280.027C259.389 278.065 264.205 283.363 264.205 283.363L265.964 281.402Z" fill="black"/>
<rect opacity="0.5" x="445.814" y="382.482" width="67.5502" height="4.58909" fill="#1F4D93"/>
<rect opacity="0.5" x="445.814" y="395.175" width="67.5502" height="4.58909" fill="#1F4D93"/>
<rect x="210.028" y="273.41" width="14.062" height="4.54919" transform="rotate(25.0603 210.028 273.41)" fill="#85C648"/>
<rect x="350.805" y="63.8711" width="14.062" height="4.54919" transform="rotate(25.0603 350.805 63.8711)" fill="#85C648"/>
<rect x="705.89" y="182.959" width="14.062" height="4.54919" transform="rotate(25.0603 705.89 182.959)" fill="#85C648"/>
<rect x="681.847" y="43.5022" width="14.062" height="4.54919" transform="rotate(25.0603 681.847 43.5022)" fill="#85C648"/>
<rect x="508.778" y="72.9827" width="14.062" height="4.54919" transform="rotate(25.0603 508.778 72.9827)" fill="#85C648"/>
<rect x="200.213" y="121.498" width="14.062" height="4.54919" transform="rotate(34.7501 200.213 121.498)" fill="#832F9C"/>
<rect x="694.374" y="137.065" width="14.062" height="4.54919" transform="rotate(34.7501 694.374 137.065)" fill="#832F9C"/>
<rect x="588.174" y="175.088" width="14.062" height="4.54919" transform="rotate(34.7501 588.174 175.088)" fill="#832F9C"/>
<rect x="155.733" y="262.121" width="14.043" height="4.54304" transform="rotate(34.804 155.733 262.121)" fill="#832F9C"/>
<rect x="220.005" y="220.235" width="14.062" height="4.54919" transform="rotate(-93.9003 220.005 220.235)" fill="#577AAE"/>
<rect x="753.834" y="229.045" width="14.0964" height="4.56032" transform="rotate(-94.0042 753.834 229.045)" fill="#577AAE"/>
<rect x="281.781" y="77.8904" width="14.062" height="4.54919" transform="rotate(-93.9003 281.781 77.8904)" fill="#577AAE"/>
<rect x="153.58" y="334.659" width="14.062" height="4.54919" transform="rotate(-93.9003 153.58 334.659)" fill="#577AAE"/>
<rect x="194.689" y="176.678" width="14.062" height="4.54919" transform="rotate(155.93 194.689 176.678)" fill="#731490"/>
<rect x="150.937" y="136.312" width="14.062" height="4.54919" transform="rotate(-114.07 150.937 136.312)" fill="#731490"/>
<rect x="263.655" y="148.376" width="14.062" height="4.54919" transform="rotate(155.92 263.655 148.376)" fill="#731490"/>
<rect x="250.963" y="28.9387" width="14.062" height="4.54919" transform="rotate(155.92 250.963 28.9387)" fill="#731490"/>
<rect x="750.516" y="118.167" width="14.062" height="4.54919" transform="rotate(155.93 750.516 118.167)" fill="#731490"/>
<rect x="673.633" y="223.985" width="14.062" height="4.54919" transform="rotate(155.92 673.633 223.985)" fill="#731490"/>
<path d="M245.287 440.808L233.749 432.449C233.578 432.325 233.463 432.139 233.429 431.93C233.396 431.722 233.447 431.509 233.571 431.338C233.829 430.981 234.328 430.901 234.685 431.16L246.221 439.519C246.392 439.641 246.508 439.828 246.541 440.037C246.575 440.246 246.523 440.459 246.399 440.629C246.276 440.801 246.089 440.917 245.88 440.95C245.672 440.984 245.458 440.932 245.287 440.808Z" fill="white"/>
<path d="M237.466 427.194L234.439 430.478C234.068 430.883 234.025 431.464 234.35 431.706L245.656 439.896C245.996 440.12 246.436 440.12 246.776 439.896C247.188 439.657 247.605 439.147 247.617 438.054C247.642 435.951 244.738 433.284 243.897 430.936C243.849 430.8 243.76 430.682 243.642 430.598L238.562 426.914C238.267 426.715 237.804 426.844 237.466 427.194Z" fill="#171717"/>
<path d="M241.515 432.249C241.483 432.117 241.543 431.979 241.662 431.912C242.242 431.581 243.811 430.883 245.039 432.154C245.097 432.255 245.078 432.382 244.993 432.461C244.901 432.56 244.775 432.578 244.707 432.507C243.599 431.375 242.252 432.004 241.766 432.286C241.659 432.369 241.555 432.342 241.515 432.249Z" fill="white"/>
<path d="M242.359 433.563C242.326 433.43 242.386 433.29 242.506 433.222C243.083 432.894 244.655 432.197 245.883 433.465C245.948 433.571 245.927 433.708 245.834 433.79C245.742 433.889 245.619 433.907 245.548 433.836C244.44 432.704 243.093 433.33 242.608 433.613C242.571 433.646 242.52 433.661 242.471 433.651C242.422 433.642 242.38 433.609 242.359 433.563Z" fill="white"/>
<path d="M243.139 434.785C243.107 434.652 243.167 434.515 243.286 434.448C243.863 434.116 245.435 433.419 246.663 434.69C246.72 434.791 246.7 434.919 246.614 434.997C246.521 435.095 246.399 435.114 246.328 435.043C245.22 433.91 243.872 434.54 243.387 434.822C243.28 434.899 243.175 434.877 243.139 434.785Z" fill="white"/>
<path d="M290.399 441.087H276.153C275.712 441.087 275.354 440.73 275.354 440.289C275.354 439.849 275.712 439.491 276.153 439.491H290.399C290.839 439.491 291.197 439.848 291.197 440.289C291.197 440.73 290.839 441.087 290.399 441.087Z" fill="white"/>
<path d="M276.085 434.641L275.557 439.073C275.493 439.62 275.797 440.117 276.199 440.117H290.159C290.569 440.105 290.932 439.849 291.08 439.467C291.274 439.031 291.314 438.371 290.69 437.487C289.463 435.771 285.564 435.313 283.501 433.901C283.381 433.821 283.24 433.779 283.096 433.778H276.825C276.453 433.781 276.143 434.144 276.085 434.641Z" fill="#171717"/>
<path d="M282.341 436.36C282.237 436.27 282.206 436.122 282.264 435.997C282.537 435.384 283.394 433.913 285.137 434.217C285.239 434.236 285.306 434.371 285.291 434.524C285.291 434.659 285.183 434.745 285.088 434.73C283.526 434.46 282.795 435.764 282.574 436.265C282.51 436.36 282.415 436.412 282.341 436.36Z" fill="white"/>
<path d="M283.781 436.931C283.677 436.842 283.645 436.696 283.701 436.572C283.974 435.958 284.833 434.484 286.574 434.791C286.675 434.791 286.743 434.942 286.727 435.08C286.709 435.215 286.62 435.301 286.522 435.286C284.959 435.018 284.229 436.32 284.008 436.82C283.962 436.943 283.876 436.974 283.781 436.931Z" fill="white"/>
<path d="M285.128 437.465C285.023 437.376 284.991 437.227 285.048 437.103C285.322 436.489 286.181 435.018 287.925 435.322C288.046 435.37 288.111 435.503 288.075 435.629C288.057 435.764 287.968 435.85 287.869 435.835C286.307 435.565 285.576 436.869 285.355 437.369C285.309 437.474 285.211 437.517 285.128 437.465Z" fill="white"/>
<path d="M352.533 440.265C352.534 440.656 352.216 440.974 351.825 440.974L339.153 440.983C338.762 440.984 338.444 440.666 338.444 440.275C338.444 439.883 338.761 439.565 339.152 439.565L351.824 439.556C352.215 439.556 352.533 439.873 352.533 440.265Z" fill="white"/>
<path d="M351.923 435.227L352.393 439.169C352.451 439.657 352.178 440.09 351.822 440.09H339.405C339.044 440.078 338.724 439.85 338.595 439.513C338.42 439.122 338.386 438.539 338.942 437.753C340.019 436.219 343.5 435.816 345.336 434.564C345.441 434.491 345.567 434.452 345.695 434.454H351.272C351.595 434.466 351.871 434.788 351.923 435.227Z" fill="#171717"/>
<path d="M382.116 440.071C382.116 440.463 381.799 440.78 381.407 440.78H368.736C368.344 440.78 368.026 440.463 368.026 440.071C368.026 439.679 368.344 439.362 368.736 439.362H381.407C381.799 439.362 382.116 439.679 382.116 440.071Z" fill="white"/>
<path d="M381.198 435.227L381.668 439.169C381.723 439.657 381.453 440.09 381.097 440.09H368.68C368.319 440.078 367.999 439.85 367.87 439.512C367.695 439.123 367.661 438.539 368.217 437.753C369.294 436.219 372.775 435.817 374.608 434.564C374.714 434.492 374.839 434.453 374.967 434.454H380.547C380.876 434.466 381.146 434.788 381.198 435.227Z" fill="#171717"/>
<path d="M598.985 440.964H613.232C613.671 440.964 614.028 440.609 614.029 440.169C614.028 439.729 613.672 439.373 613.232 439.371H598.982C598.771 439.371 598.568 439.455 598.419 439.605C598.27 439.755 598.186 439.958 598.187 440.169C598.187 440.381 598.271 440.583 598.421 440.733C598.571 440.882 598.774 440.965 598.985 440.964Z" fill="white"/>
<path d="M613.299 434.518L613.827 438.953C613.891 439.5 613.587 439.994 613.185 439.994H599.225C598.815 439.983 598.451 439.726 598.304 439.343C598.107 438.907 598.07 438.25 598.694 437.366C599.921 435.647 603.82 435.19 605.883 433.781C606.001 433.699 606.141 433.655 606.285 433.655H612.559C612.94 433.667 613.247 434.03 613.299 434.518Z" fill="#171717"/>
<path d="M607.055 436.246C607.159 436.156 607.19 436.008 607.132 435.884C606.859 435.27 605.999 433.8 604.259 434.104C604.144 434.149 604.079 434.271 604.105 434.392C604.124 434.524 604.213 434.613 604.311 434.594C605.873 434.328 606.604 435.632 606.825 436.13C606.871 436.255 606.969 436.298 607.055 436.246Z" fill="white"/>
<path d="M605.603 436.817C605.708 436.728 605.741 436.58 605.683 436.455C605.41 435.841 604.55 434.371 602.807 434.675C602.693 434.721 602.629 434.843 602.657 434.963C602.675 435.095 602.764 435.184 602.862 435.169C604.425 434.899 605.152 436.203 605.376 436.703C605.422 436.827 605.52 436.869 605.603 436.817Z" fill="white"/>
<path d="M604.256 437.351C604.361 437.262 604.393 437.114 604.336 436.989C604.063 436.375 603.203 434.905 601.459 435.209C601.345 435.254 601.28 435.377 601.309 435.497C601.328 435.629 601.417 435.718 601.515 435.7C603.077 435.433 603.805 436.737 604.029 437.235C604.075 437.361 604.173 437.403 604.256 437.351Z" fill="white"/>
<path d="M649.03 440.964H663.279C663.718 440.964 664.074 440.609 664.074 440.169C664.075 439.957 663.991 439.754 663.841 439.604C663.691 439.454 663.488 439.37 663.276 439.371H649.03C648.818 439.37 648.614 439.454 648.464 439.604C648.315 439.754 648.23 439.957 648.231 440.169C648.233 440.609 648.59 440.964 649.03 440.964Z" fill="#2B2B2B"/>
<path d="M663.346 434.518L663.874 438.953C663.939 439.5 663.632 439.994 663.229 439.994H649.272C648.861 439.984 648.498 439.727 648.351 439.343C648.155 438.907 648.114 438.25 648.738 437.366C649.966 435.647 653.867 435.19 655.927 433.781C656.046 433.699 656.187 433.655 656.332 433.655H662.603C662.975 433.667 663.282 434.03 663.346 434.518Z" fill="#85C648"/>
<path d="M657.1 436.246C657.205 436.157 657.237 436.009 657.18 435.884C656.903 435.27 656.047 433.8 654.303 434.104C654.188 434.148 654.123 434.272 654.153 434.392C654.153 434.524 654.26 434.613 654.359 434.594C655.921 434.328 656.648 435.632 656.873 436.13C656.918 436.255 657.017 436.298 657.1 436.246Z" fill="white"/>
<path d="M655.65 436.817C655.755 436.728 655.788 436.58 655.73 436.455C655.454 435.841 654.597 434.371 652.854 434.675C652.739 434.72 652.675 434.843 652.704 434.963C652.704 435.095 652.811 435.184 652.909 435.169C654.469 434.899 655.199 436.203 655.42 436.703C655.469 436.827 655.567 436.869 655.65 436.817Z" fill="white"/>
<path d="M654.303 437.351C654.407 437.261 654.438 437.113 654.38 436.989C654.107 436.375 653.25 434.905 651.506 435.209C651.392 435.254 651.326 435.376 651.353 435.497C651.353 435.629 651.46 435.718 651.556 435.7C653.118 435.433 653.849 436.737 654.07 437.235C654.122 437.361 654.217 437.403 654.303 437.351Z" fill="white"/>
<path d="M699.81 440.964H685.561C685.122 440.964 684.766 440.609 684.766 440.169C684.765 439.957 684.849 439.754 684.999 439.604C685.149 439.454 685.352 439.37 685.564 439.371H699.81C700.251 439.371 700.608 439.729 700.608 440.169C700.605 440.608 700.249 440.963 699.81 440.964Z" fill="#2B2B2B"/>
<path d="M685.503 434.518L684.975 438.954C684.91 439.5 685.217 439.995 685.619 439.995H699.577C699.987 439.983 700.35 439.727 700.498 439.344C700.694 438.908 700.734 438.251 700.108 437.367C698.88 435.648 694.982 435.191 692.919 433.782C692.801 433.699 692.661 433.655 692.517 433.656H686.245C685.871 433.668 685.561 434.03 685.503 434.518Z" fill="#85C648"/>
<path d="M691.75 436.246C691.645 436.157 691.612 436.009 691.67 435.884C691.943 435.27 692.803 433.8 694.546 434.104C694.661 434.149 694.725 434.272 694.696 434.392C694.678 434.524 694.589 434.613 694.491 434.594C692.928 434.328 692.201 435.632 691.977 436.13C691.931 436.255 691.829 436.298 691.75 436.246Z" fill="white"/>
<path d="M693.199 436.817C693.094 436.728 693.061 436.58 693.118 436.455C693.395 435.841 694.251 434.371 695.995 434.675C696.11 434.72 696.174 434.843 696.145 434.963C696.145 435.095 696.038 435.184 695.94 435.169C694.377 434.899 693.65 436.203 693.429 436.703C693.38 436.827 693.281 436.869 693.199 436.817Z" fill="white"/>
<path d="M694.546 437.351C694.441 437.262 694.409 437.114 694.466 436.989C694.743 436.375 695.599 434.905 697.343 435.209C697.458 435.253 697.523 435.377 697.493 435.497C697.493 435.629 697.386 435.718 697.287 435.7C695.728 435.433 694.997 436.737 694.776 437.235C694.727 437.361 694.632 437.403 694.546 437.351Z" fill="white"/>
<path d="M578.253 440.964H592.503C592.942 440.964 593.298 440.609 593.298 440.169C593.298 439.957 593.215 439.754 593.065 439.604C592.915 439.454 592.711 439.37 592.499 439.371H578.253C578.041 439.37 577.838 439.454 577.688 439.604C577.538 439.754 577.454 439.957 577.455 440.169C577.457 440.609 577.814 440.964 578.253 440.964Z" fill="white"/>
<path d="M592.573 434.518L593.101 438.953C593.165 439.5 592.858 439.994 592.456 439.994H578.498C578.088 439.983 577.725 439.726 577.577 439.343C577.381 438.907 577.341 438.25 577.964 437.366C579.192 435.647 583.093 435.19 585.153 433.781C585.272 433.699 585.414 433.655 585.559 433.655H591.83C592.204 433.667 592.514 434.03 592.573 434.518Z" fill="#171717"/>
<path d="M586.326 436.246C586.431 436.157 586.464 436.009 586.406 435.884C586.13 435.27 585.273 433.8 583.53 434.104C583.414 434.148 583.35 434.272 583.379 434.392C583.379 434.524 583.487 434.613 583.585 434.594C585.147 434.328 585.875 435.632 586.099 436.13C586.145 436.255 586.234 436.298 586.326 436.246Z" fill="white"/>
<path d="M584.877 436.817C584.982 436.728 585.015 436.58 584.957 436.455C584.681 435.841 583.824 434.371 582.081 434.675C581.966 434.72 581.902 434.843 581.93 434.963C581.93 435.095 582.038 435.184 582.136 435.169C583.695 434.899 584.426 436.203 584.647 436.703C584.699 436.827 584.794 436.869 584.877 436.817Z" fill="white"/>
<path d="M583.53 437.351C583.633 437.261 583.665 437.113 583.606 436.989C583.333 436.375 582.477 434.905 580.733 435.209C580.618 435.254 580.553 435.377 580.579 435.497C580.595 435.629 580.687 435.718 580.782 435.7C582.345 435.433 583.075 436.737 583.296 437.235C583.348 437.361 583.444 437.403 583.53 437.351Z" fill="white"/>
</svg>
